G04 #@! TF.GenerationSoftware,KiCad,Pcbnew,(5.1.0)-1*
G04 #@! TF.CreationDate,2020-01-26T20:33:10+01:00*
G04 #@! TF.ProjectId,Huge7SegDisplay,48756765-3753-4656-9744-6973706c6179,rev?*
G04 #@! TF.SameCoordinates,Original*
G04 #@! TF.FileFunction,Legend,Bot*
G04 #@! TF.FilePolarity,Positive*
%FSLAX46Y46*%
G04 Gerber Fmt 4.6, Leading zero omitted, Abs format (unit mm)*
G04 Created by KiCad (PCBNEW (5.1.0)-1) date 2020-01-26 20:33:10*
%MOMM*%
%LPD*%
G04 APERTURE LIST*
%ADD10C,0.120000*%
%ADD11C,0.150000*%
G04 APERTURE END LIST*
D10*
X88900000Y-90170000D02*
X87630000Y-90170000D01*
X88900000Y-91440000D02*
X88900000Y-90170000D01*
X86587071Y-104520000D02*
X86190000Y-104520000D01*
X86587071Y-103760000D02*
X86190000Y-103760000D01*
X77530000Y-104520000D02*
X83530000Y-104520000D01*
X77530000Y-103760000D02*
X77530000Y-104520000D01*
X83530000Y-103760000D02*
X77530000Y-103760000D01*
X86190000Y-102870000D02*
X83530000Y-102870000D01*
X86587071Y-101980000D02*
X86190000Y-101980000D01*
X86587071Y-101220000D02*
X86190000Y-101220000D01*
X77530000Y-101980000D02*
X83530000Y-101980000D01*
X77530000Y-101220000D02*
X77530000Y-101980000D01*
X83530000Y-101220000D02*
X77530000Y-101220000D01*
X86190000Y-100330000D02*
X83530000Y-100330000D01*
X86587071Y-99440000D02*
X86190000Y-99440000D01*
X86587071Y-98680000D02*
X86190000Y-98680000D01*
X77530000Y-99440000D02*
X83530000Y-99440000D01*
X77530000Y-98680000D02*
X77530000Y-99440000D01*
X83530000Y-98680000D02*
X77530000Y-98680000D01*
X86190000Y-97790000D02*
X83530000Y-97790000D01*
X86587071Y-96900000D02*
X86190000Y-96900000D01*
X86587071Y-96140000D02*
X86190000Y-96140000D01*
X77530000Y-96900000D02*
X83530000Y-96900000D01*
X77530000Y-96140000D02*
X77530000Y-96900000D01*
X83530000Y-96140000D02*
X77530000Y-96140000D01*
X86190000Y-95250000D02*
X83530000Y-95250000D01*
X86587071Y-94360000D02*
X86190000Y-94360000D01*
X86587071Y-93600000D02*
X86190000Y-93600000D01*
X77530000Y-94360000D02*
X83530000Y-94360000D01*
X77530000Y-93600000D02*
X77530000Y-94360000D01*
X83530000Y-93600000D02*
X77530000Y-93600000D01*
X86190000Y-92710000D02*
X83530000Y-92710000D01*
X86520000Y-91820000D02*
X86190000Y-91820000D01*
X86520000Y-91060000D02*
X86190000Y-91060000D01*
X83530000Y-91720000D02*
X77530000Y-91720000D01*
X83530000Y-91600000D02*
X77530000Y-91600000D01*
X83530000Y-91480000D02*
X77530000Y-91480000D01*
X83530000Y-91360000D02*
X77530000Y-91360000D01*
X83530000Y-91240000D02*
X77530000Y-91240000D01*
X83530000Y-91120000D02*
X77530000Y-91120000D01*
X77530000Y-91820000D02*
X83530000Y-91820000D01*
X77530000Y-91060000D02*
X77530000Y-91820000D01*
X83530000Y-91060000D02*
X77530000Y-91060000D01*
X83530000Y-90110000D02*
X86190000Y-90110000D01*
X83530000Y-105470000D02*
X83530000Y-90110000D01*
X86190000Y-105470000D02*
X83530000Y-105470000D01*
X86190000Y-90110000D02*
X86190000Y-105470000D01*
X116610000Y-90110000D02*
X116610000Y-108010000D01*
X116610000Y-108010000D02*
X119270000Y-108010000D01*
X119270000Y-108010000D02*
X119270000Y-90110000D01*
X119270000Y-90110000D02*
X116610000Y-90110000D01*
X119270000Y-91060000D02*
X125270000Y-91060000D01*
X125270000Y-91060000D02*
X125270000Y-91820000D01*
X125270000Y-91820000D02*
X119270000Y-91820000D01*
X119270000Y-91120000D02*
X125270000Y-91120000D01*
X119270000Y-91240000D02*
X125270000Y-91240000D01*
X119270000Y-91360000D02*
X125270000Y-91360000D01*
X119270000Y-91480000D02*
X125270000Y-91480000D01*
X119270000Y-91600000D02*
X125270000Y-91600000D01*
X119270000Y-91720000D02*
X125270000Y-91720000D01*
X116280000Y-91060000D02*
X116610000Y-91060000D01*
X116280000Y-91820000D02*
X116610000Y-91820000D01*
X116610000Y-92710000D02*
X119270000Y-92710000D01*
X119270000Y-93600000D02*
X125270000Y-93600000D01*
X125270000Y-93600000D02*
X125270000Y-94360000D01*
X125270000Y-94360000D02*
X119270000Y-94360000D01*
X116212929Y-93600000D02*
X116610000Y-93600000D01*
X116212929Y-94360000D02*
X116610000Y-94360000D01*
X116610000Y-95250000D02*
X119270000Y-95250000D01*
X119270000Y-96140000D02*
X125270000Y-96140000D01*
X125270000Y-96140000D02*
X125270000Y-96900000D01*
X125270000Y-96900000D02*
X119270000Y-96900000D01*
X116212929Y-96140000D02*
X116610000Y-96140000D01*
X116212929Y-96900000D02*
X116610000Y-96900000D01*
X116610000Y-97790000D02*
X119270000Y-97790000D01*
X119270000Y-98680000D02*
X125270000Y-98680000D01*
X125270000Y-98680000D02*
X125270000Y-99440000D01*
X125270000Y-99440000D02*
X119270000Y-99440000D01*
X116212929Y-98680000D02*
X116610000Y-98680000D01*
X116212929Y-99440000D02*
X116610000Y-99440000D01*
X116610000Y-100330000D02*
X119270000Y-100330000D01*
X119270000Y-101220000D02*
X125270000Y-101220000D01*
X125270000Y-101220000D02*
X125270000Y-101980000D01*
X125270000Y-101980000D02*
X119270000Y-101980000D01*
X116212929Y-101220000D02*
X116610000Y-101220000D01*
X116212929Y-101980000D02*
X116610000Y-101980000D01*
X116610000Y-102870000D02*
X119270000Y-102870000D01*
X119270000Y-103760000D02*
X125270000Y-103760000D01*
X125270000Y-103760000D02*
X125270000Y-104520000D01*
X125270000Y-104520000D02*
X119270000Y-104520000D01*
X116212929Y-103760000D02*
X116610000Y-103760000D01*
X116212929Y-104520000D02*
X116610000Y-104520000D01*
X116610000Y-105410000D02*
X119270000Y-105410000D01*
X119270000Y-106300000D02*
X125270000Y-106300000D01*
X125270000Y-106300000D02*
X125270000Y-107060000D01*
X125270000Y-107060000D02*
X119270000Y-107060000D01*
X116212929Y-106300000D02*
X116610000Y-106300000D01*
X116212929Y-107060000D02*
X116610000Y-107060000D01*
X113900000Y-91440000D02*
X113900000Y-90170000D01*
X113900000Y-90170000D02*
X115170000Y-90170000D01*
X97080000Y-71626252D02*
X97080000Y-71103748D01*
X98500000Y-71626252D02*
X98500000Y-71103748D01*
D11*
X99195000Y-92680000D02*
X97820000Y-92680000D01*
X99195000Y-82555000D02*
X103345000Y-82555000D01*
X99195000Y-92705000D02*
X103345000Y-92705000D01*
X99195000Y-82555000D02*
X99195000Y-82660000D01*
X103345000Y-82555000D02*
X103345000Y-82660000D01*
X103345000Y-92705000D02*
X103345000Y-92600000D01*
X99195000Y-92705000D02*
X99195000Y-92680000D01*
D10*
X115518000Y-122293748D02*
X115518000Y-122816252D01*
X114098000Y-122293748D02*
X114098000Y-122816252D01*
X92000000Y-71626252D02*
X92000000Y-71103748D01*
X93420000Y-71626252D02*
X93420000Y-71103748D01*
X91769000Y-122293748D02*
X91769000Y-122816252D01*
X90349000Y-122293748D02*
X90349000Y-122816252D01*
X97357000Y-122293748D02*
X97357000Y-122816252D01*
X95937000Y-122293748D02*
X95937000Y-122816252D01*
X109803000Y-122293748D02*
X109803000Y-122816252D01*
X108383000Y-122293748D02*
X108383000Y-122816252D01*
X107240000Y-71626252D02*
X107240000Y-71103748D01*
X108660000Y-71626252D02*
X108660000Y-71103748D01*
X102160000Y-71626252D02*
X102160000Y-71103748D01*
X103580000Y-71626252D02*
X103580000Y-71103748D01*
X100890000Y-117981252D02*
X100890000Y-117458748D01*
X102310000Y-117981252D02*
X102310000Y-117458748D01*
X103430000Y-117981252D02*
X103430000Y-117458748D01*
X104850000Y-117981252D02*
X104850000Y-117458748D01*
X99770000Y-117458748D02*
X99770000Y-117981252D01*
X98350000Y-117458748D02*
X98350000Y-117981252D01*
X112978000Y-122293748D02*
X112978000Y-122816252D01*
X111558000Y-122293748D02*
X111558000Y-122816252D01*
X94540000Y-71626252D02*
X94540000Y-71103748D01*
X95960000Y-71626252D02*
X95960000Y-71103748D01*
X99620000Y-71626252D02*
X99620000Y-71103748D01*
X101040000Y-71626252D02*
X101040000Y-71103748D01*
X89229000Y-122293748D02*
X89229000Y-122816252D01*
X87809000Y-122293748D02*
X87809000Y-122816252D01*
X94817000Y-122293748D02*
X94817000Y-122816252D01*
X93397000Y-122293748D02*
X93397000Y-122816252D01*
X107263000Y-122293748D02*
X107263000Y-122816252D01*
X105843000Y-122293748D02*
X105843000Y-122816252D01*
X109780000Y-71626252D02*
X109780000Y-71103748D01*
X111200000Y-71626252D02*
X111200000Y-71103748D01*
X106120000Y-71626252D02*
X106120000Y-71103748D01*
X104700000Y-71626252D02*
X104700000Y-71103748D01*
X114298000Y-116215000D02*
X112838000Y-116215000D01*
X114298000Y-119375000D02*
X112138000Y-119375000D01*
X114298000Y-119375000D02*
X114298000Y-118445000D01*
X114298000Y-116215000D02*
X114298000Y-117145000D01*
X93220000Y-77145000D02*
X94680000Y-77145000D01*
X93220000Y-73985000D02*
X95380000Y-73985000D01*
X93220000Y-73985000D02*
X93220000Y-74915000D01*
X93220000Y-77145000D02*
X93220000Y-76215000D01*
X98300000Y-77145000D02*
X99760000Y-77145000D01*
X98300000Y-73985000D02*
X100460000Y-73985000D01*
X98300000Y-73985000D02*
X98300000Y-74915000D01*
X98300000Y-77145000D02*
X98300000Y-76215000D01*
X90549000Y-116276000D02*
X89089000Y-116276000D01*
X90549000Y-119436000D02*
X88389000Y-119436000D01*
X90549000Y-119436000D02*
X90549000Y-118506000D01*
X90549000Y-116276000D02*
X90549000Y-117206000D01*
X96137000Y-116215000D02*
X94677000Y-116215000D01*
X96137000Y-119375000D02*
X93977000Y-119375000D01*
X96137000Y-119375000D02*
X96137000Y-118445000D01*
X96137000Y-116215000D02*
X96137000Y-117145000D01*
X103180000Y-123585000D02*
X103180000Y-122125000D01*
X100020000Y-123585000D02*
X100020000Y-121425000D01*
X100020000Y-123585000D02*
X100950000Y-123585000D01*
X103180000Y-123585000D02*
X102250000Y-123585000D01*
X108710000Y-116215000D02*
X107250000Y-116215000D01*
X108710000Y-119375000D02*
X106550000Y-119375000D01*
X108710000Y-119375000D02*
X108710000Y-118445000D01*
X108710000Y-116215000D02*
X108710000Y-117145000D01*
X108460000Y-77145000D02*
X109920000Y-77145000D01*
X108460000Y-73985000D02*
X110620000Y-73985000D01*
X108460000Y-73985000D02*
X108460000Y-74915000D01*
X108460000Y-77145000D02*
X108460000Y-76215000D01*
X103380000Y-77145000D02*
X104840000Y-77145000D01*
X103380000Y-73985000D02*
X105540000Y-73985000D01*
X103380000Y-73985000D02*
X103380000Y-74915000D01*
X103380000Y-77145000D02*
X103380000Y-76215000D01*
X102545000Y-114425000D02*
X102545000Y-112965000D01*
X99385000Y-114425000D02*
X99385000Y-112265000D01*
X99385000Y-114425000D02*
X100315000Y-114425000D01*
X102545000Y-114425000D02*
X101615000Y-114425000D01*
X103230000Y-94743748D02*
X103230000Y-95266252D01*
X104650000Y-94743748D02*
X104650000Y-95266252D01*
D11*
X83578333Y-88622380D02*
X83578333Y-89336666D01*
X83625952Y-89479523D01*
X83721190Y-89574761D01*
X83864047Y-89622380D01*
X83959285Y-89622380D01*
X83149761Y-88717619D02*
X83102142Y-88670000D01*
X83006904Y-88622380D01*
X82768809Y-88622380D01*
X82673571Y-88670000D01*
X82625952Y-88717619D01*
X82578333Y-88812857D01*
X82578333Y-88908095D01*
X82625952Y-89050952D01*
X83197380Y-89622380D01*
X82578333Y-89622380D01*
X119888333Y-88622380D02*
X119888333Y-89336666D01*
X119935952Y-89479523D01*
X120031190Y-89574761D01*
X120174047Y-89622380D01*
X120269285Y-89622380D01*
X118888333Y-89622380D02*
X119459761Y-89622380D01*
X119174047Y-89622380D02*
X119174047Y-88622380D01*
X119269285Y-88765238D01*
X119364523Y-88860476D01*
X119459761Y-88908095D01*
X97924857Y-69286380D02*
X98258190Y-68810190D01*
X98496285Y-69286380D02*
X98496285Y-68286380D01*
X98115333Y-68286380D01*
X98020095Y-68334000D01*
X97972476Y-68381619D01*
X97924857Y-68476857D01*
X97924857Y-68619714D01*
X97972476Y-68714952D01*
X98020095Y-68762571D01*
X98115333Y-68810190D01*
X98496285Y-68810190D01*
X96972476Y-69286380D02*
X97543904Y-69286380D01*
X97258190Y-69286380D02*
X97258190Y-68286380D01*
X97353428Y-68429238D01*
X97448666Y-68524476D01*
X97543904Y-68572095D01*
X96639142Y-68286380D02*
X95972476Y-68286380D01*
X96401047Y-69286380D01*
X102031904Y-80986380D02*
X102031904Y-81795904D01*
X101984285Y-81891142D01*
X101936666Y-81938761D01*
X101841428Y-81986380D01*
X101650952Y-81986380D01*
X101555714Y-81938761D01*
X101508095Y-81891142D01*
X101460476Y-81795904D01*
X101460476Y-80986380D01*
X100460476Y-81986380D02*
X101031904Y-81986380D01*
X100746190Y-81986380D02*
X100746190Y-80986380D01*
X100841428Y-81129238D01*
X100936666Y-81224476D01*
X101031904Y-81272095D01*
X115577857Y-125547380D02*
X115911190Y-125071190D01*
X116149285Y-125547380D02*
X116149285Y-124547380D01*
X115768333Y-124547380D01*
X115673095Y-124595000D01*
X115625476Y-124642619D01*
X115577857Y-124737857D01*
X115577857Y-124880714D01*
X115625476Y-124975952D01*
X115673095Y-125023571D01*
X115768333Y-125071190D01*
X116149285Y-125071190D01*
X114625476Y-125547380D02*
X115196904Y-125547380D01*
X114911190Y-125547380D02*
X114911190Y-124547380D01*
X115006428Y-124690238D01*
X115101666Y-124785476D01*
X115196904Y-124833095D01*
X114149285Y-125547380D02*
X113958809Y-125547380D01*
X113863571Y-125499761D01*
X113815952Y-125452142D01*
X113720714Y-125309285D01*
X113673095Y-125118809D01*
X113673095Y-124737857D01*
X113720714Y-124642619D01*
X113768333Y-124595000D01*
X113863571Y-124547380D01*
X114054047Y-124547380D01*
X114149285Y-124595000D01*
X114196904Y-124642619D01*
X114244523Y-124737857D01*
X114244523Y-124975952D01*
X114196904Y-125071190D01*
X114149285Y-125118809D01*
X114054047Y-125166428D01*
X113863571Y-125166428D01*
X113768333Y-125118809D01*
X113720714Y-125071190D01*
X113673095Y-124975952D01*
X90812857Y-71826380D02*
X91146190Y-71350190D01*
X91384285Y-71826380D02*
X91384285Y-70826380D01*
X91003333Y-70826380D01*
X90908095Y-70874000D01*
X90860476Y-70921619D01*
X90812857Y-71016857D01*
X90812857Y-71159714D01*
X90860476Y-71254952D01*
X90908095Y-71302571D01*
X91003333Y-71350190D01*
X91384285Y-71350190D01*
X89860476Y-71826380D02*
X90431904Y-71826380D01*
X90146190Y-71826380D02*
X90146190Y-70826380D01*
X90241428Y-70969238D01*
X90336666Y-71064476D01*
X90431904Y-71112095D01*
X89289047Y-71254952D02*
X89384285Y-71207333D01*
X89431904Y-71159714D01*
X89479523Y-71064476D01*
X89479523Y-71016857D01*
X89431904Y-70921619D01*
X89384285Y-70874000D01*
X89289047Y-70826380D01*
X89098571Y-70826380D01*
X89003333Y-70874000D01*
X88955714Y-70921619D01*
X88908095Y-71016857D01*
X88908095Y-71064476D01*
X88955714Y-71159714D01*
X89003333Y-71207333D01*
X89098571Y-71254952D01*
X89289047Y-71254952D01*
X89384285Y-71302571D01*
X89431904Y-71350190D01*
X89479523Y-71445428D01*
X89479523Y-71635904D01*
X89431904Y-71731142D01*
X89384285Y-71778761D01*
X89289047Y-71826380D01*
X89098571Y-71826380D01*
X89003333Y-71778761D01*
X88955714Y-71731142D01*
X88908095Y-71635904D01*
X88908095Y-71445428D01*
X88955714Y-71350190D01*
X89003333Y-71302571D01*
X89098571Y-71254952D01*
X91447857Y-125547380D02*
X91781190Y-125071190D01*
X92019285Y-125547380D02*
X92019285Y-124547380D01*
X91638333Y-124547380D01*
X91543095Y-124595000D01*
X91495476Y-124642619D01*
X91447857Y-124737857D01*
X91447857Y-124880714D01*
X91495476Y-124975952D01*
X91543095Y-125023571D01*
X91638333Y-125071190D01*
X92019285Y-125071190D01*
X90495476Y-125547380D02*
X91066904Y-125547380D01*
X90781190Y-125547380D02*
X90781190Y-124547380D01*
X90876428Y-124690238D01*
X90971666Y-124785476D01*
X91066904Y-124833095D01*
X89638333Y-124547380D02*
X89828809Y-124547380D01*
X89924047Y-124595000D01*
X89971666Y-124642619D01*
X90066904Y-124785476D01*
X90114523Y-124975952D01*
X90114523Y-125356904D01*
X90066904Y-125452142D01*
X90019285Y-125499761D01*
X89924047Y-125547380D01*
X89733571Y-125547380D01*
X89638333Y-125499761D01*
X89590714Y-125452142D01*
X89543095Y-125356904D01*
X89543095Y-125118809D01*
X89590714Y-125023571D01*
X89638333Y-124975952D01*
X89733571Y-124928333D01*
X89924047Y-124928333D01*
X90019285Y-124975952D01*
X90066904Y-125023571D01*
X90114523Y-125118809D01*
X97924857Y-125547380D02*
X98258190Y-125071190D01*
X98496285Y-125547380D02*
X98496285Y-124547380D01*
X98115333Y-124547380D01*
X98020095Y-124595000D01*
X97972476Y-124642619D01*
X97924857Y-124737857D01*
X97924857Y-124880714D01*
X97972476Y-124975952D01*
X98020095Y-125023571D01*
X98115333Y-125071190D01*
X98496285Y-125071190D01*
X96972476Y-125547380D02*
X97543904Y-125547380D01*
X97258190Y-125547380D02*
X97258190Y-124547380D01*
X97353428Y-124690238D01*
X97448666Y-124785476D01*
X97543904Y-124833095D01*
X96067714Y-124547380D02*
X96543904Y-124547380D01*
X96591523Y-125023571D01*
X96543904Y-124975952D01*
X96448666Y-124928333D01*
X96210571Y-124928333D01*
X96115333Y-124975952D01*
X96067714Y-125023571D01*
X96020095Y-125118809D01*
X96020095Y-125356904D01*
X96067714Y-125452142D01*
X96115333Y-125499761D01*
X96210571Y-125547380D01*
X96448666Y-125547380D01*
X96543904Y-125499761D01*
X96591523Y-125452142D01*
X110116857Y-120594380D02*
X110450190Y-120118190D01*
X110688285Y-120594380D02*
X110688285Y-119594380D01*
X110307333Y-119594380D01*
X110212095Y-119642000D01*
X110164476Y-119689619D01*
X110116857Y-119784857D01*
X110116857Y-119927714D01*
X110164476Y-120022952D01*
X110212095Y-120070571D01*
X110307333Y-120118190D01*
X110688285Y-120118190D01*
X109164476Y-120594380D02*
X109735904Y-120594380D01*
X109450190Y-120594380D02*
X109450190Y-119594380D01*
X109545428Y-119737238D01*
X109640666Y-119832476D01*
X109735904Y-119880095D01*
X108307333Y-119927714D02*
X108307333Y-120594380D01*
X108545428Y-119546761D02*
X108783523Y-120261047D01*
X108164476Y-120261047D01*
X109100857Y-69286380D02*
X109434190Y-68810190D01*
X109672285Y-69286380D02*
X109672285Y-68286380D01*
X109291333Y-68286380D01*
X109196095Y-68334000D01*
X109148476Y-68381619D01*
X109100857Y-68476857D01*
X109100857Y-68619714D01*
X109148476Y-68714952D01*
X109196095Y-68762571D01*
X109291333Y-68810190D01*
X109672285Y-68810190D01*
X108148476Y-69286380D02*
X108719904Y-69286380D01*
X108434190Y-69286380D02*
X108434190Y-68286380D01*
X108529428Y-68429238D01*
X108624666Y-68524476D01*
X108719904Y-68572095D01*
X107815142Y-68286380D02*
X107196095Y-68286380D01*
X107529428Y-68667333D01*
X107386571Y-68667333D01*
X107291333Y-68714952D01*
X107243714Y-68762571D01*
X107196095Y-68857809D01*
X107196095Y-69095904D01*
X107243714Y-69191142D01*
X107291333Y-69238761D01*
X107386571Y-69286380D01*
X107672285Y-69286380D01*
X107767523Y-69238761D01*
X107815142Y-69191142D01*
X103512857Y-69286380D02*
X103846190Y-68810190D01*
X104084285Y-69286380D02*
X104084285Y-68286380D01*
X103703333Y-68286380D01*
X103608095Y-68334000D01*
X103560476Y-68381619D01*
X103512857Y-68476857D01*
X103512857Y-68619714D01*
X103560476Y-68714952D01*
X103608095Y-68762571D01*
X103703333Y-68810190D01*
X104084285Y-68810190D01*
X102560476Y-69286380D02*
X103131904Y-69286380D01*
X102846190Y-69286380D02*
X102846190Y-68286380D01*
X102941428Y-68429238D01*
X103036666Y-68524476D01*
X103131904Y-68572095D01*
X102179523Y-68381619D02*
X102131904Y-68334000D01*
X102036666Y-68286380D01*
X101798571Y-68286380D01*
X101703333Y-68334000D01*
X101655714Y-68381619D01*
X101608095Y-68476857D01*
X101608095Y-68572095D01*
X101655714Y-68714952D01*
X102227142Y-69286380D01*
X101608095Y-69286380D01*
X102142857Y-120702380D02*
X102476190Y-120226190D01*
X102714285Y-120702380D02*
X102714285Y-119702380D01*
X102333333Y-119702380D01*
X102238095Y-119750000D01*
X102190476Y-119797619D01*
X102142857Y-119892857D01*
X102142857Y-120035714D01*
X102190476Y-120130952D01*
X102238095Y-120178571D01*
X102333333Y-120226190D01*
X102714285Y-120226190D01*
X101190476Y-120702380D02*
X101761904Y-120702380D01*
X101476190Y-120702380D02*
X101476190Y-119702380D01*
X101571428Y-119845238D01*
X101666666Y-119940476D01*
X101761904Y-119988095D01*
X100238095Y-120702380D02*
X100809523Y-120702380D01*
X100523809Y-120702380D02*
X100523809Y-119702380D01*
X100619047Y-119845238D01*
X100714285Y-119940476D01*
X100809523Y-119988095D01*
X104892857Y-115387380D02*
X105226190Y-114911190D01*
X105464285Y-115387380D02*
X105464285Y-114387380D01*
X105083333Y-114387380D01*
X104988095Y-114435000D01*
X104940476Y-114482619D01*
X104892857Y-114577857D01*
X104892857Y-114720714D01*
X104940476Y-114815952D01*
X104988095Y-114863571D01*
X105083333Y-114911190D01*
X105464285Y-114911190D01*
X103940476Y-115387380D02*
X104511904Y-115387380D01*
X104226190Y-115387380D02*
X104226190Y-114387380D01*
X104321428Y-114530238D01*
X104416666Y-114625476D01*
X104511904Y-114673095D01*
X103321428Y-114387380D02*
X103226190Y-114387380D01*
X103130952Y-114435000D01*
X103083333Y-114482619D01*
X103035714Y-114577857D01*
X102988095Y-114768333D01*
X102988095Y-115006428D01*
X103035714Y-115196904D01*
X103083333Y-115292142D01*
X103130952Y-115339761D01*
X103226190Y-115387380D01*
X103321428Y-115387380D01*
X103416666Y-115339761D01*
X103464285Y-115292142D01*
X103511904Y-115196904D01*
X103559523Y-115006428D01*
X103559523Y-114768333D01*
X103511904Y-114577857D01*
X103464285Y-114482619D01*
X103416666Y-114435000D01*
X103321428Y-114387380D01*
X98166666Y-115387380D02*
X98500000Y-114911190D01*
X98738095Y-115387380D02*
X98738095Y-114387380D01*
X98357142Y-114387380D01*
X98261904Y-114435000D01*
X98214285Y-114482619D01*
X98166666Y-114577857D01*
X98166666Y-114720714D01*
X98214285Y-114815952D01*
X98261904Y-114863571D01*
X98357142Y-114911190D01*
X98738095Y-114911190D01*
X97690476Y-115387380D02*
X97500000Y-115387380D01*
X97404761Y-115339761D01*
X97357142Y-115292142D01*
X97261904Y-115149285D01*
X97214285Y-114958809D01*
X97214285Y-114577857D01*
X97261904Y-114482619D01*
X97309523Y-114435000D01*
X97404761Y-114387380D01*
X97595238Y-114387380D01*
X97690476Y-114435000D01*
X97738095Y-114482619D01*
X97785714Y-114577857D01*
X97785714Y-114815952D01*
X97738095Y-114911190D01*
X97690476Y-114958809D01*
X97595238Y-115006428D01*
X97404761Y-115006428D01*
X97309523Y-114958809D01*
X97261904Y-114911190D01*
X97214285Y-114815952D01*
X112561666Y-125547380D02*
X112895000Y-125071190D01*
X113133095Y-125547380D02*
X113133095Y-124547380D01*
X112752142Y-124547380D01*
X112656904Y-124595000D01*
X112609285Y-124642619D01*
X112561666Y-124737857D01*
X112561666Y-124880714D01*
X112609285Y-124975952D01*
X112656904Y-125023571D01*
X112752142Y-125071190D01*
X113133095Y-125071190D01*
X111990238Y-124975952D02*
X112085476Y-124928333D01*
X112133095Y-124880714D01*
X112180714Y-124785476D01*
X112180714Y-124737857D01*
X112133095Y-124642619D01*
X112085476Y-124595000D01*
X111990238Y-124547380D01*
X111799761Y-124547380D01*
X111704523Y-124595000D01*
X111656904Y-124642619D01*
X111609285Y-124737857D01*
X111609285Y-124785476D01*
X111656904Y-124880714D01*
X111704523Y-124928333D01*
X111799761Y-124975952D01*
X111990238Y-124975952D01*
X112085476Y-125023571D01*
X112133095Y-125071190D01*
X112180714Y-125166428D01*
X112180714Y-125356904D01*
X112133095Y-125452142D01*
X112085476Y-125499761D01*
X111990238Y-125547380D01*
X111799761Y-125547380D01*
X111704523Y-125499761D01*
X111656904Y-125452142D01*
X111609285Y-125356904D01*
X111609285Y-125166428D01*
X111656904Y-125071190D01*
X111704523Y-125023571D01*
X111799761Y-124975952D01*
X96559666Y-74366380D02*
X96893000Y-73890190D01*
X97131095Y-74366380D02*
X97131095Y-73366380D01*
X96750142Y-73366380D01*
X96654904Y-73414000D01*
X96607285Y-73461619D01*
X96559666Y-73556857D01*
X96559666Y-73699714D01*
X96607285Y-73794952D01*
X96654904Y-73842571D01*
X96750142Y-73890190D01*
X97131095Y-73890190D01*
X96226333Y-73366380D02*
X95559666Y-73366380D01*
X95988238Y-74366380D01*
X101766666Y-74366380D02*
X102100000Y-73890190D01*
X102338095Y-74366380D02*
X102338095Y-73366380D01*
X101957142Y-73366380D01*
X101861904Y-73414000D01*
X101814285Y-73461619D01*
X101766666Y-73556857D01*
X101766666Y-73699714D01*
X101814285Y-73794952D01*
X101861904Y-73842571D01*
X101957142Y-73890190D01*
X102338095Y-73890190D01*
X100909523Y-73366380D02*
X101100000Y-73366380D01*
X101195238Y-73414000D01*
X101242857Y-73461619D01*
X101338095Y-73604476D01*
X101385714Y-73794952D01*
X101385714Y-74175904D01*
X101338095Y-74271142D01*
X101290476Y-74318761D01*
X101195238Y-74366380D01*
X101004761Y-74366380D01*
X100909523Y-74318761D01*
X100861904Y-74271142D01*
X100814285Y-74175904D01*
X100814285Y-73937809D01*
X100861904Y-73842571D01*
X100909523Y-73794952D01*
X101004761Y-73747333D01*
X101195238Y-73747333D01*
X101290476Y-73794952D01*
X101338095Y-73842571D01*
X101385714Y-73937809D01*
X88431666Y-125547380D02*
X88765000Y-125071190D01*
X89003095Y-125547380D02*
X89003095Y-124547380D01*
X88622142Y-124547380D01*
X88526904Y-124595000D01*
X88479285Y-124642619D01*
X88431666Y-124737857D01*
X88431666Y-124880714D01*
X88479285Y-124975952D01*
X88526904Y-125023571D01*
X88622142Y-125071190D01*
X89003095Y-125071190D01*
X87526904Y-124547380D02*
X88003095Y-124547380D01*
X88050714Y-125023571D01*
X88003095Y-124975952D01*
X87907857Y-124928333D01*
X87669761Y-124928333D01*
X87574523Y-124975952D01*
X87526904Y-125023571D01*
X87479285Y-125118809D01*
X87479285Y-125356904D01*
X87526904Y-125452142D01*
X87574523Y-125499761D01*
X87669761Y-125547380D01*
X87907857Y-125547380D01*
X88003095Y-125499761D01*
X88050714Y-125452142D01*
X93765666Y-125547380D02*
X94099000Y-125071190D01*
X94337095Y-125547380D02*
X94337095Y-124547380D01*
X93956142Y-124547380D01*
X93860904Y-124595000D01*
X93813285Y-124642619D01*
X93765666Y-124737857D01*
X93765666Y-124880714D01*
X93813285Y-124975952D01*
X93860904Y-125023571D01*
X93956142Y-125071190D01*
X94337095Y-125071190D01*
X92908523Y-124880714D02*
X92908523Y-125547380D01*
X93146619Y-124499761D02*
X93384714Y-125214047D01*
X92765666Y-125214047D01*
X106846666Y-125547380D02*
X107180000Y-125071190D01*
X107418095Y-125547380D02*
X107418095Y-124547380D01*
X107037142Y-124547380D01*
X106941904Y-124595000D01*
X106894285Y-124642619D01*
X106846666Y-124737857D01*
X106846666Y-124880714D01*
X106894285Y-124975952D01*
X106941904Y-125023571D01*
X107037142Y-125071190D01*
X107418095Y-125071190D01*
X106513333Y-124547380D02*
X105894285Y-124547380D01*
X106227619Y-124928333D01*
X106084761Y-124928333D01*
X105989523Y-124975952D01*
X105941904Y-125023571D01*
X105894285Y-125118809D01*
X105894285Y-125356904D01*
X105941904Y-125452142D01*
X105989523Y-125499761D01*
X106084761Y-125547380D01*
X106370476Y-125547380D01*
X106465714Y-125499761D01*
X106513333Y-125452142D01*
X112688666Y-71826380D02*
X113022000Y-71350190D01*
X113260095Y-71826380D02*
X113260095Y-70826380D01*
X112879142Y-70826380D01*
X112783904Y-70874000D01*
X112736285Y-70921619D01*
X112688666Y-71016857D01*
X112688666Y-71159714D01*
X112736285Y-71254952D01*
X112783904Y-71302571D01*
X112879142Y-71350190D01*
X113260095Y-71350190D01*
X112307714Y-70921619D02*
X112260095Y-70874000D01*
X112164857Y-70826380D01*
X111926761Y-70826380D01*
X111831523Y-70874000D01*
X111783904Y-70921619D01*
X111736285Y-71016857D01*
X111736285Y-71112095D01*
X111783904Y-71254952D01*
X112355333Y-71826380D01*
X111736285Y-71826380D01*
X106846666Y-74366380D02*
X107180000Y-73890190D01*
X107418095Y-74366380D02*
X107418095Y-73366380D01*
X107037142Y-73366380D01*
X106941904Y-73414000D01*
X106894285Y-73461619D01*
X106846666Y-73556857D01*
X106846666Y-73699714D01*
X106894285Y-73794952D01*
X106941904Y-73842571D01*
X107037142Y-73890190D01*
X107418095Y-73890190D01*
X105894285Y-74366380D02*
X106465714Y-74366380D01*
X106180000Y-74366380D02*
X106180000Y-73366380D01*
X106275238Y-73509238D01*
X106370476Y-73604476D01*
X106465714Y-73652095D01*
X114071428Y-115482619D02*
X114166666Y-115435000D01*
X114261904Y-115339761D01*
X114404761Y-115196904D01*
X114500000Y-115149285D01*
X114595238Y-115149285D01*
X114547619Y-115387380D02*
X114642857Y-115339761D01*
X114738095Y-115244523D01*
X114785714Y-115054047D01*
X114785714Y-114720714D01*
X114738095Y-114530238D01*
X114642857Y-114435000D01*
X114547619Y-114387380D01*
X114357142Y-114387380D01*
X114261904Y-114435000D01*
X114166666Y-114530238D01*
X114119047Y-114720714D01*
X114119047Y-115054047D01*
X114166666Y-115244523D01*
X114261904Y-115339761D01*
X114357142Y-115387380D01*
X114547619Y-115387380D01*
X113166666Y-115387380D02*
X113738095Y-115387380D01*
X113452380Y-115387380D02*
X113452380Y-114387380D01*
X113547619Y-114530238D01*
X113642857Y-114625476D01*
X113738095Y-114673095D01*
X112547619Y-114387380D02*
X112452380Y-114387380D01*
X112357142Y-114435000D01*
X112309523Y-114482619D01*
X112261904Y-114577857D01*
X112214285Y-114768333D01*
X112214285Y-115006428D01*
X112261904Y-115196904D01*
X112309523Y-115292142D01*
X112357142Y-115339761D01*
X112452380Y-115387380D01*
X112547619Y-115387380D01*
X112642857Y-115339761D01*
X112690476Y-115292142D01*
X112738095Y-115196904D01*
X112785714Y-115006428D01*
X112785714Y-114768333D01*
X112738095Y-114577857D01*
X112690476Y-114482619D01*
X112642857Y-114435000D01*
X112547619Y-114387380D01*
X94075238Y-78652619D02*
X94170476Y-78605000D01*
X94265714Y-78509761D01*
X94408571Y-78366904D01*
X94503809Y-78319285D01*
X94599047Y-78319285D01*
X94551428Y-78557380D02*
X94646666Y-78509761D01*
X94741904Y-78414523D01*
X94789523Y-78224047D01*
X94789523Y-77890714D01*
X94741904Y-77700238D01*
X94646666Y-77605000D01*
X94551428Y-77557380D01*
X94360952Y-77557380D01*
X94265714Y-77605000D01*
X94170476Y-77700238D01*
X94122857Y-77890714D01*
X94122857Y-78224047D01*
X94170476Y-78414523D01*
X94265714Y-78509761D01*
X94360952Y-78557380D01*
X94551428Y-78557380D01*
X93646666Y-78557380D02*
X93456190Y-78557380D01*
X93360952Y-78509761D01*
X93313333Y-78462142D01*
X93218095Y-78319285D01*
X93170476Y-78128809D01*
X93170476Y-77747857D01*
X93218095Y-77652619D01*
X93265714Y-77605000D01*
X93360952Y-77557380D01*
X93551428Y-77557380D01*
X93646666Y-77605000D01*
X93694285Y-77652619D01*
X93741904Y-77747857D01*
X93741904Y-77985952D01*
X93694285Y-78081190D01*
X93646666Y-78128809D01*
X93551428Y-78176428D01*
X93360952Y-78176428D01*
X93265714Y-78128809D01*
X93218095Y-78081190D01*
X93170476Y-77985952D01*
X99155238Y-78652619D02*
X99250476Y-78605000D01*
X99345714Y-78509761D01*
X99488571Y-78366904D01*
X99583809Y-78319285D01*
X99679047Y-78319285D01*
X99631428Y-78557380D02*
X99726666Y-78509761D01*
X99821904Y-78414523D01*
X99869523Y-78224047D01*
X99869523Y-77890714D01*
X99821904Y-77700238D01*
X99726666Y-77605000D01*
X99631428Y-77557380D01*
X99440952Y-77557380D01*
X99345714Y-77605000D01*
X99250476Y-77700238D01*
X99202857Y-77890714D01*
X99202857Y-78224047D01*
X99250476Y-78414523D01*
X99345714Y-78509761D01*
X99440952Y-78557380D01*
X99631428Y-78557380D01*
X98631428Y-77985952D02*
X98726666Y-77938333D01*
X98774285Y-77890714D01*
X98821904Y-77795476D01*
X98821904Y-77747857D01*
X98774285Y-77652619D01*
X98726666Y-77605000D01*
X98631428Y-77557380D01*
X98440952Y-77557380D01*
X98345714Y-77605000D01*
X98298095Y-77652619D01*
X98250476Y-77747857D01*
X98250476Y-77795476D01*
X98298095Y-77890714D01*
X98345714Y-77938333D01*
X98440952Y-77985952D01*
X98631428Y-77985952D01*
X98726666Y-78033571D01*
X98774285Y-78081190D01*
X98821904Y-78176428D01*
X98821904Y-78366904D01*
X98774285Y-78462142D01*
X98726666Y-78509761D01*
X98631428Y-78557380D01*
X98440952Y-78557380D01*
X98345714Y-78509761D01*
X98298095Y-78462142D01*
X98250476Y-78366904D01*
X98250476Y-78176428D01*
X98298095Y-78081190D01*
X98345714Y-78033571D01*
X98440952Y-77985952D01*
X89884238Y-115482619D02*
X89979476Y-115435000D01*
X90074714Y-115339761D01*
X90217571Y-115196904D01*
X90312809Y-115149285D01*
X90408047Y-115149285D01*
X90360428Y-115387380D02*
X90455666Y-115339761D01*
X90550904Y-115244523D01*
X90598523Y-115054047D01*
X90598523Y-114720714D01*
X90550904Y-114530238D01*
X90455666Y-114435000D01*
X90360428Y-114387380D01*
X90169952Y-114387380D01*
X90074714Y-114435000D01*
X89979476Y-114530238D01*
X89931857Y-114720714D01*
X89931857Y-115054047D01*
X89979476Y-115244523D01*
X90074714Y-115339761D01*
X90169952Y-115387380D01*
X90360428Y-115387380D01*
X89598523Y-114387380D02*
X88931857Y-114387380D01*
X89360428Y-115387380D01*
X95345238Y-115482619D02*
X95440476Y-115435000D01*
X95535714Y-115339761D01*
X95678571Y-115196904D01*
X95773809Y-115149285D01*
X95869047Y-115149285D01*
X95821428Y-115387380D02*
X95916666Y-115339761D01*
X96011904Y-115244523D01*
X96059523Y-115054047D01*
X96059523Y-114720714D01*
X96011904Y-114530238D01*
X95916666Y-114435000D01*
X95821428Y-114387380D01*
X95630952Y-114387380D01*
X95535714Y-114435000D01*
X95440476Y-114530238D01*
X95392857Y-114720714D01*
X95392857Y-115054047D01*
X95440476Y-115244523D01*
X95535714Y-115339761D01*
X95630952Y-115387380D01*
X95821428Y-115387380D01*
X94535714Y-114387380D02*
X94726190Y-114387380D01*
X94821428Y-114435000D01*
X94869047Y-114482619D01*
X94964285Y-114625476D01*
X95011904Y-114815952D01*
X95011904Y-115196904D01*
X94964285Y-115292142D01*
X94916666Y-115339761D01*
X94821428Y-115387380D01*
X94630952Y-115387380D01*
X94535714Y-115339761D01*
X94488095Y-115292142D01*
X94440476Y-115196904D01*
X94440476Y-114958809D01*
X94488095Y-114863571D01*
X94535714Y-114815952D01*
X94630952Y-114768333D01*
X94821428Y-114768333D01*
X94916666Y-114815952D01*
X94964285Y-114863571D01*
X95011904Y-114958809D01*
X99028238Y-123864619D02*
X99123476Y-123817000D01*
X99218714Y-123721761D01*
X99361571Y-123578904D01*
X99456809Y-123531285D01*
X99552047Y-123531285D01*
X99504428Y-123769380D02*
X99599666Y-123721761D01*
X99694904Y-123626523D01*
X99742523Y-123436047D01*
X99742523Y-123102714D01*
X99694904Y-122912238D01*
X99599666Y-122817000D01*
X99504428Y-122769380D01*
X99313952Y-122769380D01*
X99218714Y-122817000D01*
X99123476Y-122912238D01*
X99075857Y-123102714D01*
X99075857Y-123436047D01*
X99123476Y-123626523D01*
X99218714Y-123721761D01*
X99313952Y-123769380D01*
X99504428Y-123769380D01*
X98171095Y-122769380D02*
X98647285Y-122769380D01*
X98694904Y-123245571D01*
X98647285Y-123197952D01*
X98552047Y-123150333D01*
X98313952Y-123150333D01*
X98218714Y-123197952D01*
X98171095Y-123245571D01*
X98123476Y-123340809D01*
X98123476Y-123578904D01*
X98171095Y-123674142D01*
X98218714Y-123721761D01*
X98313952Y-123769380D01*
X98552047Y-123769380D01*
X98647285Y-123721761D01*
X98694904Y-123674142D01*
X108045238Y-115482619D02*
X108140476Y-115435000D01*
X108235714Y-115339761D01*
X108378571Y-115196904D01*
X108473809Y-115149285D01*
X108569047Y-115149285D01*
X108521428Y-115387380D02*
X108616666Y-115339761D01*
X108711904Y-115244523D01*
X108759523Y-115054047D01*
X108759523Y-114720714D01*
X108711904Y-114530238D01*
X108616666Y-114435000D01*
X108521428Y-114387380D01*
X108330952Y-114387380D01*
X108235714Y-114435000D01*
X108140476Y-114530238D01*
X108092857Y-114720714D01*
X108092857Y-115054047D01*
X108140476Y-115244523D01*
X108235714Y-115339761D01*
X108330952Y-115387380D01*
X108521428Y-115387380D01*
X107235714Y-114720714D02*
X107235714Y-115387380D01*
X107473809Y-114339761D02*
X107711904Y-115054047D01*
X107092857Y-115054047D01*
X109315238Y-78652619D02*
X109410476Y-78605000D01*
X109505714Y-78509761D01*
X109648571Y-78366904D01*
X109743809Y-78319285D01*
X109839047Y-78319285D01*
X109791428Y-78557380D02*
X109886666Y-78509761D01*
X109981904Y-78414523D01*
X110029523Y-78224047D01*
X110029523Y-77890714D01*
X109981904Y-77700238D01*
X109886666Y-77605000D01*
X109791428Y-77557380D01*
X109600952Y-77557380D01*
X109505714Y-77605000D01*
X109410476Y-77700238D01*
X109362857Y-77890714D01*
X109362857Y-78224047D01*
X109410476Y-78414523D01*
X109505714Y-78509761D01*
X109600952Y-78557380D01*
X109791428Y-78557380D01*
X109029523Y-77557380D02*
X108410476Y-77557380D01*
X108743809Y-77938333D01*
X108600952Y-77938333D01*
X108505714Y-77985952D01*
X108458095Y-78033571D01*
X108410476Y-78128809D01*
X108410476Y-78366904D01*
X108458095Y-78462142D01*
X108505714Y-78509761D01*
X108600952Y-78557380D01*
X108886666Y-78557380D01*
X108981904Y-78509761D01*
X109029523Y-78462142D01*
X104235238Y-78652619D02*
X104330476Y-78605000D01*
X104425714Y-78509761D01*
X104568571Y-78366904D01*
X104663809Y-78319285D01*
X104759047Y-78319285D01*
X104711428Y-78557380D02*
X104806666Y-78509761D01*
X104901904Y-78414523D01*
X104949523Y-78224047D01*
X104949523Y-77890714D01*
X104901904Y-77700238D01*
X104806666Y-77605000D01*
X104711428Y-77557380D01*
X104520952Y-77557380D01*
X104425714Y-77605000D01*
X104330476Y-77700238D01*
X104282857Y-77890714D01*
X104282857Y-78224047D01*
X104330476Y-78414523D01*
X104425714Y-78509761D01*
X104520952Y-78557380D01*
X104711428Y-78557380D01*
X103901904Y-77652619D02*
X103854285Y-77605000D01*
X103759047Y-77557380D01*
X103520952Y-77557380D01*
X103425714Y-77605000D01*
X103378095Y-77652619D01*
X103330476Y-77747857D01*
X103330476Y-77843095D01*
X103378095Y-77985952D01*
X103949523Y-78557380D01*
X103330476Y-78557380D01*
X100845238Y-111797619D02*
X100940476Y-111750000D01*
X101035714Y-111654761D01*
X101178571Y-111511904D01*
X101273809Y-111464285D01*
X101369047Y-111464285D01*
X101321428Y-111702380D02*
X101416666Y-111654761D01*
X101511904Y-111559523D01*
X101559523Y-111369047D01*
X101559523Y-111035714D01*
X101511904Y-110845238D01*
X101416666Y-110750000D01*
X101321428Y-110702380D01*
X101130952Y-110702380D01*
X101035714Y-110750000D01*
X100940476Y-110845238D01*
X100892857Y-111035714D01*
X100892857Y-111369047D01*
X100940476Y-111559523D01*
X101035714Y-111654761D01*
X101130952Y-111702380D01*
X101321428Y-111702380D01*
X99940476Y-111702380D02*
X100511904Y-111702380D01*
X100226190Y-111702380D02*
X100226190Y-110702380D01*
X100321428Y-110845238D01*
X100416666Y-110940476D01*
X100511904Y-110988095D01*
X104179666Y-98020142D02*
X104227285Y-98067761D01*
X104370142Y-98115380D01*
X104465380Y-98115380D01*
X104608238Y-98067761D01*
X104703476Y-97972523D01*
X104751095Y-97877285D01*
X104798714Y-97686809D01*
X104798714Y-97543952D01*
X104751095Y-97353476D01*
X104703476Y-97258238D01*
X104608238Y-97163000D01*
X104465380Y-97115380D01*
X104370142Y-97115380D01*
X104227285Y-97163000D01*
X104179666Y-97210619D01*
X103227285Y-98115380D02*
X103798714Y-98115380D01*
X103513000Y-98115380D02*
X103513000Y-97115380D01*
X103608238Y-97258238D01*
X103703476Y-97353476D01*
X103798714Y-97401095D01*
M02*
