G04 #@! TF.GenerationSoftware,KiCad,Pcbnew,(5.1.0)-1*
G04 #@! TF.CreationDate,2020-01-26T20:33:10+01:00*
G04 #@! TF.ProjectId,Huge7SegDisplay,48756765-3753-4656-9744-6973706c6179,rev?*
G04 #@! TF.SameCoordinates,Original*
G04 #@! TF.FileFunction,Paste,Bot*
G04 #@! TF.FilePolarity,Positive*
%FSLAX46Y46*%
G04 Gerber Fmt 4.6, Leading zero omitted, Abs format (unit mm)*
G04 Created by KiCad (PCBNEW (5.1.0)-1) date 2020-01-26 20:33:10*
%MOMM*%
%LPD*%
G04 APERTURE LIST*
%ADD10C,0.100000*%
%ADD11C,1.150000*%
%ADD12R,1.500000X0.600000*%
%ADD13R,0.900000X0.800000*%
%ADD14R,0.800000X0.900000*%
G04 APERTURE END LIST*
D10*
G36*
X98264505Y-69766204D02*
G01*
X98288773Y-69769804D01*
X98312572Y-69775765D01*
X98335671Y-69784030D01*
X98357850Y-69794520D01*
X98378893Y-69807132D01*
X98398599Y-69821747D01*
X98416777Y-69838223D01*
X98433253Y-69856401D01*
X98447868Y-69876107D01*
X98460480Y-69897150D01*
X98470970Y-69919329D01*
X98479235Y-69942428D01*
X98485196Y-69966227D01*
X98488796Y-69990495D01*
X98490000Y-70014999D01*
X98490000Y-70665001D01*
X98488796Y-70689505D01*
X98485196Y-70713773D01*
X98479235Y-70737572D01*
X98470970Y-70760671D01*
X98460480Y-70782850D01*
X98447868Y-70803893D01*
X98433253Y-70823599D01*
X98416777Y-70841777D01*
X98398599Y-70858253D01*
X98378893Y-70872868D01*
X98357850Y-70885480D01*
X98335671Y-70895970D01*
X98312572Y-70904235D01*
X98288773Y-70910196D01*
X98264505Y-70913796D01*
X98240001Y-70915000D01*
X97339999Y-70915000D01*
X97315495Y-70913796D01*
X97291227Y-70910196D01*
X97267428Y-70904235D01*
X97244329Y-70895970D01*
X97222150Y-70885480D01*
X97201107Y-70872868D01*
X97181401Y-70858253D01*
X97163223Y-70841777D01*
X97146747Y-70823599D01*
X97132132Y-70803893D01*
X97119520Y-70782850D01*
X97109030Y-70760671D01*
X97100765Y-70737572D01*
X97094804Y-70713773D01*
X97091204Y-70689505D01*
X97090000Y-70665001D01*
X97090000Y-70014999D01*
X97091204Y-69990495D01*
X97094804Y-69966227D01*
X97100765Y-69942428D01*
X97109030Y-69919329D01*
X97119520Y-69897150D01*
X97132132Y-69876107D01*
X97146747Y-69856401D01*
X97163223Y-69838223D01*
X97181401Y-69821747D01*
X97201107Y-69807132D01*
X97222150Y-69794520D01*
X97244329Y-69784030D01*
X97267428Y-69775765D01*
X97291227Y-69769804D01*
X97315495Y-69766204D01*
X97339999Y-69765000D01*
X98240001Y-69765000D01*
X98264505Y-69766204D01*
X98264505Y-69766204D01*
G37*
D11*
X97790000Y-70340000D03*
D10*
G36*
X98264505Y-71816204D02*
G01*
X98288773Y-71819804D01*
X98312572Y-71825765D01*
X98335671Y-71834030D01*
X98357850Y-71844520D01*
X98378893Y-71857132D01*
X98398599Y-71871747D01*
X98416777Y-71888223D01*
X98433253Y-71906401D01*
X98447868Y-71926107D01*
X98460480Y-71947150D01*
X98470970Y-71969329D01*
X98479235Y-71992428D01*
X98485196Y-72016227D01*
X98488796Y-72040495D01*
X98490000Y-72064999D01*
X98490000Y-72715001D01*
X98488796Y-72739505D01*
X98485196Y-72763773D01*
X98479235Y-72787572D01*
X98470970Y-72810671D01*
X98460480Y-72832850D01*
X98447868Y-72853893D01*
X98433253Y-72873599D01*
X98416777Y-72891777D01*
X98398599Y-72908253D01*
X98378893Y-72922868D01*
X98357850Y-72935480D01*
X98335671Y-72945970D01*
X98312572Y-72954235D01*
X98288773Y-72960196D01*
X98264505Y-72963796D01*
X98240001Y-72965000D01*
X97339999Y-72965000D01*
X97315495Y-72963796D01*
X97291227Y-72960196D01*
X97267428Y-72954235D01*
X97244329Y-72945970D01*
X97222150Y-72935480D01*
X97201107Y-72922868D01*
X97181401Y-72908253D01*
X97163223Y-72891777D01*
X97146747Y-72873599D01*
X97132132Y-72853893D01*
X97119520Y-72832850D01*
X97109030Y-72810671D01*
X97100765Y-72787572D01*
X97094804Y-72763773D01*
X97091204Y-72739505D01*
X97090000Y-72715001D01*
X97090000Y-72064999D01*
X97091204Y-72040495D01*
X97094804Y-72016227D01*
X97100765Y-71992428D01*
X97109030Y-71969329D01*
X97119520Y-71947150D01*
X97132132Y-71926107D01*
X97146747Y-71906401D01*
X97163223Y-71888223D01*
X97181401Y-71871747D01*
X97201107Y-71857132D01*
X97222150Y-71844520D01*
X97244329Y-71834030D01*
X97267428Y-71825765D01*
X97291227Y-71819804D01*
X97315495Y-71816204D01*
X97339999Y-71815000D01*
X98240001Y-71815000D01*
X98264505Y-71816204D01*
X98264505Y-71816204D01*
G37*
D11*
X97790000Y-72390000D03*
D12*
X103970000Y-92075000D03*
X103970000Y-90805000D03*
X103970000Y-89535000D03*
X103970000Y-88265000D03*
X103970000Y-86995000D03*
X103970000Y-85725000D03*
X103970000Y-84455000D03*
X103970000Y-83185000D03*
X98570000Y-83185000D03*
X98570000Y-84455000D03*
X98570000Y-85725000D03*
X98570000Y-86995000D03*
X98570000Y-88265000D03*
X98570000Y-89535000D03*
X98570000Y-90805000D03*
X98570000Y-92075000D03*
D10*
G36*
X115282505Y-123006204D02*
G01*
X115306773Y-123009804D01*
X115330572Y-123015765D01*
X115353671Y-123024030D01*
X115375850Y-123034520D01*
X115396893Y-123047132D01*
X115416599Y-123061747D01*
X115434777Y-123078223D01*
X115451253Y-123096401D01*
X115465868Y-123116107D01*
X115478480Y-123137150D01*
X115488970Y-123159329D01*
X115497235Y-123182428D01*
X115503196Y-123206227D01*
X115506796Y-123230495D01*
X115508000Y-123254999D01*
X115508000Y-123905001D01*
X115506796Y-123929505D01*
X115503196Y-123953773D01*
X115497235Y-123977572D01*
X115488970Y-124000671D01*
X115478480Y-124022850D01*
X115465868Y-124043893D01*
X115451253Y-124063599D01*
X115434777Y-124081777D01*
X115416599Y-124098253D01*
X115396893Y-124112868D01*
X115375850Y-124125480D01*
X115353671Y-124135970D01*
X115330572Y-124144235D01*
X115306773Y-124150196D01*
X115282505Y-124153796D01*
X115258001Y-124155000D01*
X114357999Y-124155000D01*
X114333495Y-124153796D01*
X114309227Y-124150196D01*
X114285428Y-124144235D01*
X114262329Y-124135970D01*
X114240150Y-124125480D01*
X114219107Y-124112868D01*
X114199401Y-124098253D01*
X114181223Y-124081777D01*
X114164747Y-124063599D01*
X114150132Y-124043893D01*
X114137520Y-124022850D01*
X114127030Y-124000671D01*
X114118765Y-123977572D01*
X114112804Y-123953773D01*
X114109204Y-123929505D01*
X114108000Y-123905001D01*
X114108000Y-123254999D01*
X114109204Y-123230495D01*
X114112804Y-123206227D01*
X114118765Y-123182428D01*
X114127030Y-123159329D01*
X114137520Y-123137150D01*
X114150132Y-123116107D01*
X114164747Y-123096401D01*
X114181223Y-123078223D01*
X114199401Y-123061747D01*
X114219107Y-123047132D01*
X114240150Y-123034520D01*
X114262329Y-123024030D01*
X114285428Y-123015765D01*
X114309227Y-123009804D01*
X114333495Y-123006204D01*
X114357999Y-123005000D01*
X115258001Y-123005000D01*
X115282505Y-123006204D01*
X115282505Y-123006204D01*
G37*
D11*
X114808000Y-123580000D03*
D10*
G36*
X115282505Y-120956204D02*
G01*
X115306773Y-120959804D01*
X115330572Y-120965765D01*
X115353671Y-120974030D01*
X115375850Y-120984520D01*
X115396893Y-120997132D01*
X115416599Y-121011747D01*
X115434777Y-121028223D01*
X115451253Y-121046401D01*
X115465868Y-121066107D01*
X115478480Y-121087150D01*
X115488970Y-121109329D01*
X115497235Y-121132428D01*
X115503196Y-121156227D01*
X115506796Y-121180495D01*
X115508000Y-121204999D01*
X115508000Y-121855001D01*
X115506796Y-121879505D01*
X115503196Y-121903773D01*
X115497235Y-121927572D01*
X115488970Y-121950671D01*
X115478480Y-121972850D01*
X115465868Y-121993893D01*
X115451253Y-122013599D01*
X115434777Y-122031777D01*
X115416599Y-122048253D01*
X115396893Y-122062868D01*
X115375850Y-122075480D01*
X115353671Y-122085970D01*
X115330572Y-122094235D01*
X115306773Y-122100196D01*
X115282505Y-122103796D01*
X115258001Y-122105000D01*
X114357999Y-122105000D01*
X114333495Y-122103796D01*
X114309227Y-122100196D01*
X114285428Y-122094235D01*
X114262329Y-122085970D01*
X114240150Y-122075480D01*
X114219107Y-122062868D01*
X114199401Y-122048253D01*
X114181223Y-122031777D01*
X114164747Y-122013599D01*
X114150132Y-121993893D01*
X114137520Y-121972850D01*
X114127030Y-121950671D01*
X114118765Y-121927572D01*
X114112804Y-121903773D01*
X114109204Y-121879505D01*
X114108000Y-121855001D01*
X114108000Y-121204999D01*
X114109204Y-121180495D01*
X114112804Y-121156227D01*
X114118765Y-121132428D01*
X114127030Y-121109329D01*
X114137520Y-121087150D01*
X114150132Y-121066107D01*
X114164747Y-121046401D01*
X114181223Y-121028223D01*
X114199401Y-121011747D01*
X114219107Y-120997132D01*
X114240150Y-120984520D01*
X114262329Y-120974030D01*
X114285428Y-120965765D01*
X114309227Y-120959804D01*
X114333495Y-120956204D01*
X114357999Y-120955000D01*
X115258001Y-120955000D01*
X115282505Y-120956204D01*
X115282505Y-120956204D01*
G37*
D11*
X114808000Y-121530000D03*
D10*
G36*
X93184505Y-69766204D02*
G01*
X93208773Y-69769804D01*
X93232572Y-69775765D01*
X93255671Y-69784030D01*
X93277850Y-69794520D01*
X93298893Y-69807132D01*
X93318599Y-69821747D01*
X93336777Y-69838223D01*
X93353253Y-69856401D01*
X93367868Y-69876107D01*
X93380480Y-69897150D01*
X93390970Y-69919329D01*
X93399235Y-69942428D01*
X93405196Y-69966227D01*
X93408796Y-69990495D01*
X93410000Y-70014999D01*
X93410000Y-70665001D01*
X93408796Y-70689505D01*
X93405196Y-70713773D01*
X93399235Y-70737572D01*
X93390970Y-70760671D01*
X93380480Y-70782850D01*
X93367868Y-70803893D01*
X93353253Y-70823599D01*
X93336777Y-70841777D01*
X93318599Y-70858253D01*
X93298893Y-70872868D01*
X93277850Y-70885480D01*
X93255671Y-70895970D01*
X93232572Y-70904235D01*
X93208773Y-70910196D01*
X93184505Y-70913796D01*
X93160001Y-70915000D01*
X92259999Y-70915000D01*
X92235495Y-70913796D01*
X92211227Y-70910196D01*
X92187428Y-70904235D01*
X92164329Y-70895970D01*
X92142150Y-70885480D01*
X92121107Y-70872868D01*
X92101401Y-70858253D01*
X92083223Y-70841777D01*
X92066747Y-70823599D01*
X92052132Y-70803893D01*
X92039520Y-70782850D01*
X92029030Y-70760671D01*
X92020765Y-70737572D01*
X92014804Y-70713773D01*
X92011204Y-70689505D01*
X92010000Y-70665001D01*
X92010000Y-70014999D01*
X92011204Y-69990495D01*
X92014804Y-69966227D01*
X92020765Y-69942428D01*
X92029030Y-69919329D01*
X92039520Y-69897150D01*
X92052132Y-69876107D01*
X92066747Y-69856401D01*
X92083223Y-69838223D01*
X92101401Y-69821747D01*
X92121107Y-69807132D01*
X92142150Y-69794520D01*
X92164329Y-69784030D01*
X92187428Y-69775765D01*
X92211227Y-69769804D01*
X92235495Y-69766204D01*
X92259999Y-69765000D01*
X93160001Y-69765000D01*
X93184505Y-69766204D01*
X93184505Y-69766204D01*
G37*
D11*
X92710000Y-70340000D03*
D10*
G36*
X93184505Y-71816204D02*
G01*
X93208773Y-71819804D01*
X93232572Y-71825765D01*
X93255671Y-71834030D01*
X93277850Y-71844520D01*
X93298893Y-71857132D01*
X93318599Y-71871747D01*
X93336777Y-71888223D01*
X93353253Y-71906401D01*
X93367868Y-71926107D01*
X93380480Y-71947150D01*
X93390970Y-71969329D01*
X93399235Y-71992428D01*
X93405196Y-72016227D01*
X93408796Y-72040495D01*
X93410000Y-72064999D01*
X93410000Y-72715001D01*
X93408796Y-72739505D01*
X93405196Y-72763773D01*
X93399235Y-72787572D01*
X93390970Y-72810671D01*
X93380480Y-72832850D01*
X93367868Y-72853893D01*
X93353253Y-72873599D01*
X93336777Y-72891777D01*
X93318599Y-72908253D01*
X93298893Y-72922868D01*
X93277850Y-72935480D01*
X93255671Y-72945970D01*
X93232572Y-72954235D01*
X93208773Y-72960196D01*
X93184505Y-72963796D01*
X93160001Y-72965000D01*
X92259999Y-72965000D01*
X92235495Y-72963796D01*
X92211227Y-72960196D01*
X92187428Y-72954235D01*
X92164329Y-72945970D01*
X92142150Y-72935480D01*
X92121107Y-72922868D01*
X92101401Y-72908253D01*
X92083223Y-72891777D01*
X92066747Y-72873599D01*
X92052132Y-72853893D01*
X92039520Y-72832850D01*
X92029030Y-72810671D01*
X92020765Y-72787572D01*
X92014804Y-72763773D01*
X92011204Y-72739505D01*
X92010000Y-72715001D01*
X92010000Y-72064999D01*
X92011204Y-72040495D01*
X92014804Y-72016227D01*
X92020765Y-71992428D01*
X92029030Y-71969329D01*
X92039520Y-71947150D01*
X92052132Y-71926107D01*
X92066747Y-71906401D01*
X92083223Y-71888223D01*
X92101401Y-71871747D01*
X92121107Y-71857132D01*
X92142150Y-71844520D01*
X92164329Y-71834030D01*
X92187428Y-71825765D01*
X92211227Y-71819804D01*
X92235495Y-71816204D01*
X92259999Y-71815000D01*
X93160001Y-71815000D01*
X93184505Y-71816204D01*
X93184505Y-71816204D01*
G37*
D11*
X92710000Y-72390000D03*
D10*
G36*
X91533505Y-123006204D02*
G01*
X91557773Y-123009804D01*
X91581572Y-123015765D01*
X91604671Y-123024030D01*
X91626850Y-123034520D01*
X91647893Y-123047132D01*
X91667599Y-123061747D01*
X91685777Y-123078223D01*
X91702253Y-123096401D01*
X91716868Y-123116107D01*
X91729480Y-123137150D01*
X91739970Y-123159329D01*
X91748235Y-123182428D01*
X91754196Y-123206227D01*
X91757796Y-123230495D01*
X91759000Y-123254999D01*
X91759000Y-123905001D01*
X91757796Y-123929505D01*
X91754196Y-123953773D01*
X91748235Y-123977572D01*
X91739970Y-124000671D01*
X91729480Y-124022850D01*
X91716868Y-124043893D01*
X91702253Y-124063599D01*
X91685777Y-124081777D01*
X91667599Y-124098253D01*
X91647893Y-124112868D01*
X91626850Y-124125480D01*
X91604671Y-124135970D01*
X91581572Y-124144235D01*
X91557773Y-124150196D01*
X91533505Y-124153796D01*
X91509001Y-124155000D01*
X90608999Y-124155000D01*
X90584495Y-124153796D01*
X90560227Y-124150196D01*
X90536428Y-124144235D01*
X90513329Y-124135970D01*
X90491150Y-124125480D01*
X90470107Y-124112868D01*
X90450401Y-124098253D01*
X90432223Y-124081777D01*
X90415747Y-124063599D01*
X90401132Y-124043893D01*
X90388520Y-124022850D01*
X90378030Y-124000671D01*
X90369765Y-123977572D01*
X90363804Y-123953773D01*
X90360204Y-123929505D01*
X90359000Y-123905001D01*
X90359000Y-123254999D01*
X90360204Y-123230495D01*
X90363804Y-123206227D01*
X90369765Y-123182428D01*
X90378030Y-123159329D01*
X90388520Y-123137150D01*
X90401132Y-123116107D01*
X90415747Y-123096401D01*
X90432223Y-123078223D01*
X90450401Y-123061747D01*
X90470107Y-123047132D01*
X90491150Y-123034520D01*
X90513329Y-123024030D01*
X90536428Y-123015765D01*
X90560227Y-123009804D01*
X90584495Y-123006204D01*
X90608999Y-123005000D01*
X91509001Y-123005000D01*
X91533505Y-123006204D01*
X91533505Y-123006204D01*
G37*
D11*
X91059000Y-123580000D03*
D10*
G36*
X91533505Y-120956204D02*
G01*
X91557773Y-120959804D01*
X91581572Y-120965765D01*
X91604671Y-120974030D01*
X91626850Y-120984520D01*
X91647893Y-120997132D01*
X91667599Y-121011747D01*
X91685777Y-121028223D01*
X91702253Y-121046401D01*
X91716868Y-121066107D01*
X91729480Y-121087150D01*
X91739970Y-121109329D01*
X91748235Y-121132428D01*
X91754196Y-121156227D01*
X91757796Y-121180495D01*
X91759000Y-121204999D01*
X91759000Y-121855001D01*
X91757796Y-121879505D01*
X91754196Y-121903773D01*
X91748235Y-121927572D01*
X91739970Y-121950671D01*
X91729480Y-121972850D01*
X91716868Y-121993893D01*
X91702253Y-122013599D01*
X91685777Y-122031777D01*
X91667599Y-122048253D01*
X91647893Y-122062868D01*
X91626850Y-122075480D01*
X91604671Y-122085970D01*
X91581572Y-122094235D01*
X91557773Y-122100196D01*
X91533505Y-122103796D01*
X91509001Y-122105000D01*
X90608999Y-122105000D01*
X90584495Y-122103796D01*
X90560227Y-122100196D01*
X90536428Y-122094235D01*
X90513329Y-122085970D01*
X90491150Y-122075480D01*
X90470107Y-122062868D01*
X90450401Y-122048253D01*
X90432223Y-122031777D01*
X90415747Y-122013599D01*
X90401132Y-121993893D01*
X90388520Y-121972850D01*
X90378030Y-121950671D01*
X90369765Y-121927572D01*
X90363804Y-121903773D01*
X90360204Y-121879505D01*
X90359000Y-121855001D01*
X90359000Y-121204999D01*
X90360204Y-121180495D01*
X90363804Y-121156227D01*
X90369765Y-121132428D01*
X90378030Y-121109329D01*
X90388520Y-121087150D01*
X90401132Y-121066107D01*
X90415747Y-121046401D01*
X90432223Y-121028223D01*
X90450401Y-121011747D01*
X90470107Y-120997132D01*
X90491150Y-120984520D01*
X90513329Y-120974030D01*
X90536428Y-120965765D01*
X90560227Y-120959804D01*
X90584495Y-120956204D01*
X90608999Y-120955000D01*
X91509001Y-120955000D01*
X91533505Y-120956204D01*
X91533505Y-120956204D01*
G37*
D11*
X91059000Y-121530000D03*
D10*
G36*
X97121505Y-123006204D02*
G01*
X97145773Y-123009804D01*
X97169572Y-123015765D01*
X97192671Y-123024030D01*
X97214850Y-123034520D01*
X97235893Y-123047132D01*
X97255599Y-123061747D01*
X97273777Y-123078223D01*
X97290253Y-123096401D01*
X97304868Y-123116107D01*
X97317480Y-123137150D01*
X97327970Y-123159329D01*
X97336235Y-123182428D01*
X97342196Y-123206227D01*
X97345796Y-123230495D01*
X97347000Y-123254999D01*
X97347000Y-123905001D01*
X97345796Y-123929505D01*
X97342196Y-123953773D01*
X97336235Y-123977572D01*
X97327970Y-124000671D01*
X97317480Y-124022850D01*
X97304868Y-124043893D01*
X97290253Y-124063599D01*
X97273777Y-124081777D01*
X97255599Y-124098253D01*
X97235893Y-124112868D01*
X97214850Y-124125480D01*
X97192671Y-124135970D01*
X97169572Y-124144235D01*
X97145773Y-124150196D01*
X97121505Y-124153796D01*
X97097001Y-124155000D01*
X96196999Y-124155000D01*
X96172495Y-124153796D01*
X96148227Y-124150196D01*
X96124428Y-124144235D01*
X96101329Y-124135970D01*
X96079150Y-124125480D01*
X96058107Y-124112868D01*
X96038401Y-124098253D01*
X96020223Y-124081777D01*
X96003747Y-124063599D01*
X95989132Y-124043893D01*
X95976520Y-124022850D01*
X95966030Y-124000671D01*
X95957765Y-123977572D01*
X95951804Y-123953773D01*
X95948204Y-123929505D01*
X95947000Y-123905001D01*
X95947000Y-123254999D01*
X95948204Y-123230495D01*
X95951804Y-123206227D01*
X95957765Y-123182428D01*
X95966030Y-123159329D01*
X95976520Y-123137150D01*
X95989132Y-123116107D01*
X96003747Y-123096401D01*
X96020223Y-123078223D01*
X96038401Y-123061747D01*
X96058107Y-123047132D01*
X96079150Y-123034520D01*
X96101329Y-123024030D01*
X96124428Y-123015765D01*
X96148227Y-123009804D01*
X96172495Y-123006204D01*
X96196999Y-123005000D01*
X97097001Y-123005000D01*
X97121505Y-123006204D01*
X97121505Y-123006204D01*
G37*
D11*
X96647000Y-123580000D03*
D10*
G36*
X97121505Y-120956204D02*
G01*
X97145773Y-120959804D01*
X97169572Y-120965765D01*
X97192671Y-120974030D01*
X97214850Y-120984520D01*
X97235893Y-120997132D01*
X97255599Y-121011747D01*
X97273777Y-121028223D01*
X97290253Y-121046401D01*
X97304868Y-121066107D01*
X97317480Y-121087150D01*
X97327970Y-121109329D01*
X97336235Y-121132428D01*
X97342196Y-121156227D01*
X97345796Y-121180495D01*
X97347000Y-121204999D01*
X97347000Y-121855001D01*
X97345796Y-121879505D01*
X97342196Y-121903773D01*
X97336235Y-121927572D01*
X97327970Y-121950671D01*
X97317480Y-121972850D01*
X97304868Y-121993893D01*
X97290253Y-122013599D01*
X97273777Y-122031777D01*
X97255599Y-122048253D01*
X97235893Y-122062868D01*
X97214850Y-122075480D01*
X97192671Y-122085970D01*
X97169572Y-122094235D01*
X97145773Y-122100196D01*
X97121505Y-122103796D01*
X97097001Y-122105000D01*
X96196999Y-122105000D01*
X96172495Y-122103796D01*
X96148227Y-122100196D01*
X96124428Y-122094235D01*
X96101329Y-122085970D01*
X96079150Y-122075480D01*
X96058107Y-122062868D01*
X96038401Y-122048253D01*
X96020223Y-122031777D01*
X96003747Y-122013599D01*
X95989132Y-121993893D01*
X95976520Y-121972850D01*
X95966030Y-121950671D01*
X95957765Y-121927572D01*
X95951804Y-121903773D01*
X95948204Y-121879505D01*
X95947000Y-121855001D01*
X95947000Y-121204999D01*
X95948204Y-121180495D01*
X95951804Y-121156227D01*
X95957765Y-121132428D01*
X95966030Y-121109329D01*
X95976520Y-121087150D01*
X95989132Y-121066107D01*
X96003747Y-121046401D01*
X96020223Y-121028223D01*
X96038401Y-121011747D01*
X96058107Y-120997132D01*
X96079150Y-120984520D01*
X96101329Y-120974030D01*
X96124428Y-120965765D01*
X96148227Y-120959804D01*
X96172495Y-120956204D01*
X96196999Y-120955000D01*
X97097001Y-120955000D01*
X97121505Y-120956204D01*
X97121505Y-120956204D01*
G37*
D11*
X96647000Y-121530000D03*
D10*
G36*
X109567505Y-123006204D02*
G01*
X109591773Y-123009804D01*
X109615572Y-123015765D01*
X109638671Y-123024030D01*
X109660850Y-123034520D01*
X109681893Y-123047132D01*
X109701599Y-123061747D01*
X109719777Y-123078223D01*
X109736253Y-123096401D01*
X109750868Y-123116107D01*
X109763480Y-123137150D01*
X109773970Y-123159329D01*
X109782235Y-123182428D01*
X109788196Y-123206227D01*
X109791796Y-123230495D01*
X109793000Y-123254999D01*
X109793000Y-123905001D01*
X109791796Y-123929505D01*
X109788196Y-123953773D01*
X109782235Y-123977572D01*
X109773970Y-124000671D01*
X109763480Y-124022850D01*
X109750868Y-124043893D01*
X109736253Y-124063599D01*
X109719777Y-124081777D01*
X109701599Y-124098253D01*
X109681893Y-124112868D01*
X109660850Y-124125480D01*
X109638671Y-124135970D01*
X109615572Y-124144235D01*
X109591773Y-124150196D01*
X109567505Y-124153796D01*
X109543001Y-124155000D01*
X108642999Y-124155000D01*
X108618495Y-124153796D01*
X108594227Y-124150196D01*
X108570428Y-124144235D01*
X108547329Y-124135970D01*
X108525150Y-124125480D01*
X108504107Y-124112868D01*
X108484401Y-124098253D01*
X108466223Y-124081777D01*
X108449747Y-124063599D01*
X108435132Y-124043893D01*
X108422520Y-124022850D01*
X108412030Y-124000671D01*
X108403765Y-123977572D01*
X108397804Y-123953773D01*
X108394204Y-123929505D01*
X108393000Y-123905001D01*
X108393000Y-123254999D01*
X108394204Y-123230495D01*
X108397804Y-123206227D01*
X108403765Y-123182428D01*
X108412030Y-123159329D01*
X108422520Y-123137150D01*
X108435132Y-123116107D01*
X108449747Y-123096401D01*
X108466223Y-123078223D01*
X108484401Y-123061747D01*
X108504107Y-123047132D01*
X108525150Y-123034520D01*
X108547329Y-123024030D01*
X108570428Y-123015765D01*
X108594227Y-123009804D01*
X108618495Y-123006204D01*
X108642999Y-123005000D01*
X109543001Y-123005000D01*
X109567505Y-123006204D01*
X109567505Y-123006204D01*
G37*
D11*
X109093000Y-123580000D03*
D10*
G36*
X109567505Y-120956204D02*
G01*
X109591773Y-120959804D01*
X109615572Y-120965765D01*
X109638671Y-120974030D01*
X109660850Y-120984520D01*
X109681893Y-120997132D01*
X109701599Y-121011747D01*
X109719777Y-121028223D01*
X109736253Y-121046401D01*
X109750868Y-121066107D01*
X109763480Y-121087150D01*
X109773970Y-121109329D01*
X109782235Y-121132428D01*
X109788196Y-121156227D01*
X109791796Y-121180495D01*
X109793000Y-121204999D01*
X109793000Y-121855001D01*
X109791796Y-121879505D01*
X109788196Y-121903773D01*
X109782235Y-121927572D01*
X109773970Y-121950671D01*
X109763480Y-121972850D01*
X109750868Y-121993893D01*
X109736253Y-122013599D01*
X109719777Y-122031777D01*
X109701599Y-122048253D01*
X109681893Y-122062868D01*
X109660850Y-122075480D01*
X109638671Y-122085970D01*
X109615572Y-122094235D01*
X109591773Y-122100196D01*
X109567505Y-122103796D01*
X109543001Y-122105000D01*
X108642999Y-122105000D01*
X108618495Y-122103796D01*
X108594227Y-122100196D01*
X108570428Y-122094235D01*
X108547329Y-122085970D01*
X108525150Y-122075480D01*
X108504107Y-122062868D01*
X108484401Y-122048253D01*
X108466223Y-122031777D01*
X108449747Y-122013599D01*
X108435132Y-121993893D01*
X108422520Y-121972850D01*
X108412030Y-121950671D01*
X108403765Y-121927572D01*
X108397804Y-121903773D01*
X108394204Y-121879505D01*
X108393000Y-121855001D01*
X108393000Y-121204999D01*
X108394204Y-121180495D01*
X108397804Y-121156227D01*
X108403765Y-121132428D01*
X108412030Y-121109329D01*
X108422520Y-121087150D01*
X108435132Y-121066107D01*
X108449747Y-121046401D01*
X108466223Y-121028223D01*
X108484401Y-121011747D01*
X108504107Y-120997132D01*
X108525150Y-120984520D01*
X108547329Y-120974030D01*
X108570428Y-120965765D01*
X108594227Y-120959804D01*
X108618495Y-120956204D01*
X108642999Y-120955000D01*
X109543001Y-120955000D01*
X109567505Y-120956204D01*
X109567505Y-120956204D01*
G37*
D11*
X109093000Y-121530000D03*
D10*
G36*
X108424505Y-69766204D02*
G01*
X108448773Y-69769804D01*
X108472572Y-69775765D01*
X108495671Y-69784030D01*
X108517850Y-69794520D01*
X108538893Y-69807132D01*
X108558599Y-69821747D01*
X108576777Y-69838223D01*
X108593253Y-69856401D01*
X108607868Y-69876107D01*
X108620480Y-69897150D01*
X108630970Y-69919329D01*
X108639235Y-69942428D01*
X108645196Y-69966227D01*
X108648796Y-69990495D01*
X108650000Y-70014999D01*
X108650000Y-70665001D01*
X108648796Y-70689505D01*
X108645196Y-70713773D01*
X108639235Y-70737572D01*
X108630970Y-70760671D01*
X108620480Y-70782850D01*
X108607868Y-70803893D01*
X108593253Y-70823599D01*
X108576777Y-70841777D01*
X108558599Y-70858253D01*
X108538893Y-70872868D01*
X108517850Y-70885480D01*
X108495671Y-70895970D01*
X108472572Y-70904235D01*
X108448773Y-70910196D01*
X108424505Y-70913796D01*
X108400001Y-70915000D01*
X107499999Y-70915000D01*
X107475495Y-70913796D01*
X107451227Y-70910196D01*
X107427428Y-70904235D01*
X107404329Y-70895970D01*
X107382150Y-70885480D01*
X107361107Y-70872868D01*
X107341401Y-70858253D01*
X107323223Y-70841777D01*
X107306747Y-70823599D01*
X107292132Y-70803893D01*
X107279520Y-70782850D01*
X107269030Y-70760671D01*
X107260765Y-70737572D01*
X107254804Y-70713773D01*
X107251204Y-70689505D01*
X107250000Y-70665001D01*
X107250000Y-70014999D01*
X107251204Y-69990495D01*
X107254804Y-69966227D01*
X107260765Y-69942428D01*
X107269030Y-69919329D01*
X107279520Y-69897150D01*
X107292132Y-69876107D01*
X107306747Y-69856401D01*
X107323223Y-69838223D01*
X107341401Y-69821747D01*
X107361107Y-69807132D01*
X107382150Y-69794520D01*
X107404329Y-69784030D01*
X107427428Y-69775765D01*
X107451227Y-69769804D01*
X107475495Y-69766204D01*
X107499999Y-69765000D01*
X108400001Y-69765000D01*
X108424505Y-69766204D01*
X108424505Y-69766204D01*
G37*
D11*
X107950000Y-70340000D03*
D10*
G36*
X108424505Y-71816204D02*
G01*
X108448773Y-71819804D01*
X108472572Y-71825765D01*
X108495671Y-71834030D01*
X108517850Y-71844520D01*
X108538893Y-71857132D01*
X108558599Y-71871747D01*
X108576777Y-71888223D01*
X108593253Y-71906401D01*
X108607868Y-71926107D01*
X108620480Y-71947150D01*
X108630970Y-71969329D01*
X108639235Y-71992428D01*
X108645196Y-72016227D01*
X108648796Y-72040495D01*
X108650000Y-72064999D01*
X108650000Y-72715001D01*
X108648796Y-72739505D01*
X108645196Y-72763773D01*
X108639235Y-72787572D01*
X108630970Y-72810671D01*
X108620480Y-72832850D01*
X108607868Y-72853893D01*
X108593253Y-72873599D01*
X108576777Y-72891777D01*
X108558599Y-72908253D01*
X108538893Y-72922868D01*
X108517850Y-72935480D01*
X108495671Y-72945970D01*
X108472572Y-72954235D01*
X108448773Y-72960196D01*
X108424505Y-72963796D01*
X108400001Y-72965000D01*
X107499999Y-72965000D01*
X107475495Y-72963796D01*
X107451227Y-72960196D01*
X107427428Y-72954235D01*
X107404329Y-72945970D01*
X107382150Y-72935480D01*
X107361107Y-72922868D01*
X107341401Y-72908253D01*
X107323223Y-72891777D01*
X107306747Y-72873599D01*
X107292132Y-72853893D01*
X107279520Y-72832850D01*
X107269030Y-72810671D01*
X107260765Y-72787572D01*
X107254804Y-72763773D01*
X107251204Y-72739505D01*
X107250000Y-72715001D01*
X107250000Y-72064999D01*
X107251204Y-72040495D01*
X107254804Y-72016227D01*
X107260765Y-71992428D01*
X107269030Y-71969329D01*
X107279520Y-71947150D01*
X107292132Y-71926107D01*
X107306747Y-71906401D01*
X107323223Y-71888223D01*
X107341401Y-71871747D01*
X107361107Y-71857132D01*
X107382150Y-71844520D01*
X107404329Y-71834030D01*
X107427428Y-71825765D01*
X107451227Y-71819804D01*
X107475495Y-71816204D01*
X107499999Y-71815000D01*
X108400001Y-71815000D01*
X108424505Y-71816204D01*
X108424505Y-71816204D01*
G37*
D11*
X107950000Y-72390000D03*
D10*
G36*
X103344505Y-69766204D02*
G01*
X103368773Y-69769804D01*
X103392572Y-69775765D01*
X103415671Y-69784030D01*
X103437850Y-69794520D01*
X103458893Y-69807132D01*
X103478599Y-69821747D01*
X103496777Y-69838223D01*
X103513253Y-69856401D01*
X103527868Y-69876107D01*
X103540480Y-69897150D01*
X103550970Y-69919329D01*
X103559235Y-69942428D01*
X103565196Y-69966227D01*
X103568796Y-69990495D01*
X103570000Y-70014999D01*
X103570000Y-70665001D01*
X103568796Y-70689505D01*
X103565196Y-70713773D01*
X103559235Y-70737572D01*
X103550970Y-70760671D01*
X103540480Y-70782850D01*
X103527868Y-70803893D01*
X103513253Y-70823599D01*
X103496777Y-70841777D01*
X103478599Y-70858253D01*
X103458893Y-70872868D01*
X103437850Y-70885480D01*
X103415671Y-70895970D01*
X103392572Y-70904235D01*
X103368773Y-70910196D01*
X103344505Y-70913796D01*
X103320001Y-70915000D01*
X102419999Y-70915000D01*
X102395495Y-70913796D01*
X102371227Y-70910196D01*
X102347428Y-70904235D01*
X102324329Y-70895970D01*
X102302150Y-70885480D01*
X102281107Y-70872868D01*
X102261401Y-70858253D01*
X102243223Y-70841777D01*
X102226747Y-70823599D01*
X102212132Y-70803893D01*
X102199520Y-70782850D01*
X102189030Y-70760671D01*
X102180765Y-70737572D01*
X102174804Y-70713773D01*
X102171204Y-70689505D01*
X102170000Y-70665001D01*
X102170000Y-70014999D01*
X102171204Y-69990495D01*
X102174804Y-69966227D01*
X102180765Y-69942428D01*
X102189030Y-69919329D01*
X102199520Y-69897150D01*
X102212132Y-69876107D01*
X102226747Y-69856401D01*
X102243223Y-69838223D01*
X102261401Y-69821747D01*
X102281107Y-69807132D01*
X102302150Y-69794520D01*
X102324329Y-69784030D01*
X102347428Y-69775765D01*
X102371227Y-69769804D01*
X102395495Y-69766204D01*
X102419999Y-69765000D01*
X103320001Y-69765000D01*
X103344505Y-69766204D01*
X103344505Y-69766204D01*
G37*
D11*
X102870000Y-70340000D03*
D10*
G36*
X103344505Y-71816204D02*
G01*
X103368773Y-71819804D01*
X103392572Y-71825765D01*
X103415671Y-71834030D01*
X103437850Y-71844520D01*
X103458893Y-71857132D01*
X103478599Y-71871747D01*
X103496777Y-71888223D01*
X103513253Y-71906401D01*
X103527868Y-71926107D01*
X103540480Y-71947150D01*
X103550970Y-71969329D01*
X103559235Y-71992428D01*
X103565196Y-72016227D01*
X103568796Y-72040495D01*
X103570000Y-72064999D01*
X103570000Y-72715001D01*
X103568796Y-72739505D01*
X103565196Y-72763773D01*
X103559235Y-72787572D01*
X103550970Y-72810671D01*
X103540480Y-72832850D01*
X103527868Y-72853893D01*
X103513253Y-72873599D01*
X103496777Y-72891777D01*
X103478599Y-72908253D01*
X103458893Y-72922868D01*
X103437850Y-72935480D01*
X103415671Y-72945970D01*
X103392572Y-72954235D01*
X103368773Y-72960196D01*
X103344505Y-72963796D01*
X103320001Y-72965000D01*
X102419999Y-72965000D01*
X102395495Y-72963796D01*
X102371227Y-72960196D01*
X102347428Y-72954235D01*
X102324329Y-72945970D01*
X102302150Y-72935480D01*
X102281107Y-72922868D01*
X102261401Y-72908253D01*
X102243223Y-72891777D01*
X102226747Y-72873599D01*
X102212132Y-72853893D01*
X102199520Y-72832850D01*
X102189030Y-72810671D01*
X102180765Y-72787572D01*
X102174804Y-72763773D01*
X102171204Y-72739505D01*
X102170000Y-72715001D01*
X102170000Y-72064999D01*
X102171204Y-72040495D01*
X102174804Y-72016227D01*
X102180765Y-71992428D01*
X102189030Y-71969329D01*
X102199520Y-71947150D01*
X102212132Y-71926107D01*
X102226747Y-71906401D01*
X102243223Y-71888223D01*
X102261401Y-71871747D01*
X102281107Y-71857132D01*
X102302150Y-71844520D01*
X102324329Y-71834030D01*
X102347428Y-71825765D01*
X102371227Y-71819804D01*
X102395495Y-71816204D01*
X102419999Y-71815000D01*
X103320001Y-71815000D01*
X103344505Y-71816204D01*
X103344505Y-71816204D01*
G37*
D11*
X102870000Y-72390000D03*
D10*
G36*
X102074505Y-116121204D02*
G01*
X102098773Y-116124804D01*
X102122572Y-116130765D01*
X102145671Y-116139030D01*
X102167850Y-116149520D01*
X102188893Y-116162132D01*
X102208599Y-116176747D01*
X102226777Y-116193223D01*
X102243253Y-116211401D01*
X102257868Y-116231107D01*
X102270480Y-116252150D01*
X102280970Y-116274329D01*
X102289235Y-116297428D01*
X102295196Y-116321227D01*
X102298796Y-116345495D01*
X102300000Y-116369999D01*
X102300000Y-117020001D01*
X102298796Y-117044505D01*
X102295196Y-117068773D01*
X102289235Y-117092572D01*
X102280970Y-117115671D01*
X102270480Y-117137850D01*
X102257868Y-117158893D01*
X102243253Y-117178599D01*
X102226777Y-117196777D01*
X102208599Y-117213253D01*
X102188893Y-117227868D01*
X102167850Y-117240480D01*
X102145671Y-117250970D01*
X102122572Y-117259235D01*
X102098773Y-117265196D01*
X102074505Y-117268796D01*
X102050001Y-117270000D01*
X101149999Y-117270000D01*
X101125495Y-117268796D01*
X101101227Y-117265196D01*
X101077428Y-117259235D01*
X101054329Y-117250970D01*
X101032150Y-117240480D01*
X101011107Y-117227868D01*
X100991401Y-117213253D01*
X100973223Y-117196777D01*
X100956747Y-117178599D01*
X100942132Y-117158893D01*
X100929520Y-117137850D01*
X100919030Y-117115671D01*
X100910765Y-117092572D01*
X100904804Y-117068773D01*
X100901204Y-117044505D01*
X100900000Y-117020001D01*
X100900000Y-116369999D01*
X100901204Y-116345495D01*
X100904804Y-116321227D01*
X100910765Y-116297428D01*
X100919030Y-116274329D01*
X100929520Y-116252150D01*
X100942132Y-116231107D01*
X100956747Y-116211401D01*
X100973223Y-116193223D01*
X100991401Y-116176747D01*
X101011107Y-116162132D01*
X101032150Y-116149520D01*
X101054329Y-116139030D01*
X101077428Y-116130765D01*
X101101227Y-116124804D01*
X101125495Y-116121204D01*
X101149999Y-116120000D01*
X102050001Y-116120000D01*
X102074505Y-116121204D01*
X102074505Y-116121204D01*
G37*
D11*
X101600000Y-116695000D03*
D10*
G36*
X102074505Y-118171204D02*
G01*
X102098773Y-118174804D01*
X102122572Y-118180765D01*
X102145671Y-118189030D01*
X102167850Y-118199520D01*
X102188893Y-118212132D01*
X102208599Y-118226747D01*
X102226777Y-118243223D01*
X102243253Y-118261401D01*
X102257868Y-118281107D01*
X102270480Y-118302150D01*
X102280970Y-118324329D01*
X102289235Y-118347428D01*
X102295196Y-118371227D01*
X102298796Y-118395495D01*
X102300000Y-118419999D01*
X102300000Y-119070001D01*
X102298796Y-119094505D01*
X102295196Y-119118773D01*
X102289235Y-119142572D01*
X102280970Y-119165671D01*
X102270480Y-119187850D01*
X102257868Y-119208893D01*
X102243253Y-119228599D01*
X102226777Y-119246777D01*
X102208599Y-119263253D01*
X102188893Y-119277868D01*
X102167850Y-119290480D01*
X102145671Y-119300970D01*
X102122572Y-119309235D01*
X102098773Y-119315196D01*
X102074505Y-119318796D01*
X102050001Y-119320000D01*
X101149999Y-119320000D01*
X101125495Y-119318796D01*
X101101227Y-119315196D01*
X101077428Y-119309235D01*
X101054329Y-119300970D01*
X101032150Y-119290480D01*
X101011107Y-119277868D01*
X100991401Y-119263253D01*
X100973223Y-119246777D01*
X100956747Y-119228599D01*
X100942132Y-119208893D01*
X100929520Y-119187850D01*
X100919030Y-119165671D01*
X100910765Y-119142572D01*
X100904804Y-119118773D01*
X100901204Y-119094505D01*
X100900000Y-119070001D01*
X100900000Y-118419999D01*
X100901204Y-118395495D01*
X100904804Y-118371227D01*
X100910765Y-118347428D01*
X100919030Y-118324329D01*
X100929520Y-118302150D01*
X100942132Y-118281107D01*
X100956747Y-118261401D01*
X100973223Y-118243223D01*
X100991401Y-118226747D01*
X101011107Y-118212132D01*
X101032150Y-118199520D01*
X101054329Y-118189030D01*
X101077428Y-118180765D01*
X101101227Y-118174804D01*
X101125495Y-118171204D01*
X101149999Y-118170000D01*
X102050001Y-118170000D01*
X102074505Y-118171204D01*
X102074505Y-118171204D01*
G37*
D11*
X101600000Y-118745000D03*
D10*
G36*
X104614505Y-116121204D02*
G01*
X104638773Y-116124804D01*
X104662572Y-116130765D01*
X104685671Y-116139030D01*
X104707850Y-116149520D01*
X104728893Y-116162132D01*
X104748599Y-116176747D01*
X104766777Y-116193223D01*
X104783253Y-116211401D01*
X104797868Y-116231107D01*
X104810480Y-116252150D01*
X104820970Y-116274329D01*
X104829235Y-116297428D01*
X104835196Y-116321227D01*
X104838796Y-116345495D01*
X104840000Y-116369999D01*
X104840000Y-117020001D01*
X104838796Y-117044505D01*
X104835196Y-117068773D01*
X104829235Y-117092572D01*
X104820970Y-117115671D01*
X104810480Y-117137850D01*
X104797868Y-117158893D01*
X104783253Y-117178599D01*
X104766777Y-117196777D01*
X104748599Y-117213253D01*
X104728893Y-117227868D01*
X104707850Y-117240480D01*
X104685671Y-117250970D01*
X104662572Y-117259235D01*
X104638773Y-117265196D01*
X104614505Y-117268796D01*
X104590001Y-117270000D01*
X103689999Y-117270000D01*
X103665495Y-117268796D01*
X103641227Y-117265196D01*
X103617428Y-117259235D01*
X103594329Y-117250970D01*
X103572150Y-117240480D01*
X103551107Y-117227868D01*
X103531401Y-117213253D01*
X103513223Y-117196777D01*
X103496747Y-117178599D01*
X103482132Y-117158893D01*
X103469520Y-117137850D01*
X103459030Y-117115671D01*
X103450765Y-117092572D01*
X103444804Y-117068773D01*
X103441204Y-117044505D01*
X103440000Y-117020001D01*
X103440000Y-116369999D01*
X103441204Y-116345495D01*
X103444804Y-116321227D01*
X103450765Y-116297428D01*
X103459030Y-116274329D01*
X103469520Y-116252150D01*
X103482132Y-116231107D01*
X103496747Y-116211401D01*
X103513223Y-116193223D01*
X103531401Y-116176747D01*
X103551107Y-116162132D01*
X103572150Y-116149520D01*
X103594329Y-116139030D01*
X103617428Y-116130765D01*
X103641227Y-116124804D01*
X103665495Y-116121204D01*
X103689999Y-116120000D01*
X104590001Y-116120000D01*
X104614505Y-116121204D01*
X104614505Y-116121204D01*
G37*
D11*
X104140000Y-116695000D03*
D10*
G36*
X104614505Y-118171204D02*
G01*
X104638773Y-118174804D01*
X104662572Y-118180765D01*
X104685671Y-118189030D01*
X104707850Y-118199520D01*
X104728893Y-118212132D01*
X104748599Y-118226747D01*
X104766777Y-118243223D01*
X104783253Y-118261401D01*
X104797868Y-118281107D01*
X104810480Y-118302150D01*
X104820970Y-118324329D01*
X104829235Y-118347428D01*
X104835196Y-118371227D01*
X104838796Y-118395495D01*
X104840000Y-118419999D01*
X104840000Y-119070001D01*
X104838796Y-119094505D01*
X104835196Y-119118773D01*
X104829235Y-119142572D01*
X104820970Y-119165671D01*
X104810480Y-119187850D01*
X104797868Y-119208893D01*
X104783253Y-119228599D01*
X104766777Y-119246777D01*
X104748599Y-119263253D01*
X104728893Y-119277868D01*
X104707850Y-119290480D01*
X104685671Y-119300970D01*
X104662572Y-119309235D01*
X104638773Y-119315196D01*
X104614505Y-119318796D01*
X104590001Y-119320000D01*
X103689999Y-119320000D01*
X103665495Y-119318796D01*
X103641227Y-119315196D01*
X103617428Y-119309235D01*
X103594329Y-119300970D01*
X103572150Y-119290480D01*
X103551107Y-119277868D01*
X103531401Y-119263253D01*
X103513223Y-119246777D01*
X103496747Y-119228599D01*
X103482132Y-119208893D01*
X103469520Y-119187850D01*
X103459030Y-119165671D01*
X103450765Y-119142572D01*
X103444804Y-119118773D01*
X103441204Y-119094505D01*
X103440000Y-119070001D01*
X103440000Y-118419999D01*
X103441204Y-118395495D01*
X103444804Y-118371227D01*
X103450765Y-118347428D01*
X103459030Y-118324329D01*
X103469520Y-118302150D01*
X103482132Y-118281107D01*
X103496747Y-118261401D01*
X103513223Y-118243223D01*
X103531401Y-118226747D01*
X103551107Y-118212132D01*
X103572150Y-118199520D01*
X103594329Y-118189030D01*
X103617428Y-118180765D01*
X103641227Y-118174804D01*
X103665495Y-118171204D01*
X103689999Y-118170000D01*
X104590001Y-118170000D01*
X104614505Y-118171204D01*
X104614505Y-118171204D01*
G37*
D11*
X104140000Y-118745000D03*
D10*
G36*
X99534505Y-118171204D02*
G01*
X99558773Y-118174804D01*
X99582572Y-118180765D01*
X99605671Y-118189030D01*
X99627850Y-118199520D01*
X99648893Y-118212132D01*
X99668599Y-118226747D01*
X99686777Y-118243223D01*
X99703253Y-118261401D01*
X99717868Y-118281107D01*
X99730480Y-118302150D01*
X99740970Y-118324329D01*
X99749235Y-118347428D01*
X99755196Y-118371227D01*
X99758796Y-118395495D01*
X99760000Y-118419999D01*
X99760000Y-119070001D01*
X99758796Y-119094505D01*
X99755196Y-119118773D01*
X99749235Y-119142572D01*
X99740970Y-119165671D01*
X99730480Y-119187850D01*
X99717868Y-119208893D01*
X99703253Y-119228599D01*
X99686777Y-119246777D01*
X99668599Y-119263253D01*
X99648893Y-119277868D01*
X99627850Y-119290480D01*
X99605671Y-119300970D01*
X99582572Y-119309235D01*
X99558773Y-119315196D01*
X99534505Y-119318796D01*
X99510001Y-119320000D01*
X98609999Y-119320000D01*
X98585495Y-119318796D01*
X98561227Y-119315196D01*
X98537428Y-119309235D01*
X98514329Y-119300970D01*
X98492150Y-119290480D01*
X98471107Y-119277868D01*
X98451401Y-119263253D01*
X98433223Y-119246777D01*
X98416747Y-119228599D01*
X98402132Y-119208893D01*
X98389520Y-119187850D01*
X98379030Y-119165671D01*
X98370765Y-119142572D01*
X98364804Y-119118773D01*
X98361204Y-119094505D01*
X98360000Y-119070001D01*
X98360000Y-118419999D01*
X98361204Y-118395495D01*
X98364804Y-118371227D01*
X98370765Y-118347428D01*
X98379030Y-118324329D01*
X98389520Y-118302150D01*
X98402132Y-118281107D01*
X98416747Y-118261401D01*
X98433223Y-118243223D01*
X98451401Y-118226747D01*
X98471107Y-118212132D01*
X98492150Y-118199520D01*
X98514329Y-118189030D01*
X98537428Y-118180765D01*
X98561227Y-118174804D01*
X98585495Y-118171204D01*
X98609999Y-118170000D01*
X99510001Y-118170000D01*
X99534505Y-118171204D01*
X99534505Y-118171204D01*
G37*
D11*
X99060000Y-118745000D03*
D10*
G36*
X99534505Y-116121204D02*
G01*
X99558773Y-116124804D01*
X99582572Y-116130765D01*
X99605671Y-116139030D01*
X99627850Y-116149520D01*
X99648893Y-116162132D01*
X99668599Y-116176747D01*
X99686777Y-116193223D01*
X99703253Y-116211401D01*
X99717868Y-116231107D01*
X99730480Y-116252150D01*
X99740970Y-116274329D01*
X99749235Y-116297428D01*
X99755196Y-116321227D01*
X99758796Y-116345495D01*
X99760000Y-116369999D01*
X99760000Y-117020001D01*
X99758796Y-117044505D01*
X99755196Y-117068773D01*
X99749235Y-117092572D01*
X99740970Y-117115671D01*
X99730480Y-117137850D01*
X99717868Y-117158893D01*
X99703253Y-117178599D01*
X99686777Y-117196777D01*
X99668599Y-117213253D01*
X99648893Y-117227868D01*
X99627850Y-117240480D01*
X99605671Y-117250970D01*
X99582572Y-117259235D01*
X99558773Y-117265196D01*
X99534505Y-117268796D01*
X99510001Y-117270000D01*
X98609999Y-117270000D01*
X98585495Y-117268796D01*
X98561227Y-117265196D01*
X98537428Y-117259235D01*
X98514329Y-117250970D01*
X98492150Y-117240480D01*
X98471107Y-117227868D01*
X98451401Y-117213253D01*
X98433223Y-117196777D01*
X98416747Y-117178599D01*
X98402132Y-117158893D01*
X98389520Y-117137850D01*
X98379030Y-117115671D01*
X98370765Y-117092572D01*
X98364804Y-117068773D01*
X98361204Y-117044505D01*
X98360000Y-117020001D01*
X98360000Y-116369999D01*
X98361204Y-116345495D01*
X98364804Y-116321227D01*
X98370765Y-116297428D01*
X98379030Y-116274329D01*
X98389520Y-116252150D01*
X98402132Y-116231107D01*
X98416747Y-116211401D01*
X98433223Y-116193223D01*
X98451401Y-116176747D01*
X98471107Y-116162132D01*
X98492150Y-116149520D01*
X98514329Y-116139030D01*
X98537428Y-116130765D01*
X98561227Y-116124804D01*
X98585495Y-116121204D01*
X98609999Y-116120000D01*
X99510001Y-116120000D01*
X99534505Y-116121204D01*
X99534505Y-116121204D01*
G37*
D11*
X99060000Y-116695000D03*
D10*
G36*
X112742505Y-123006204D02*
G01*
X112766773Y-123009804D01*
X112790572Y-123015765D01*
X112813671Y-123024030D01*
X112835850Y-123034520D01*
X112856893Y-123047132D01*
X112876599Y-123061747D01*
X112894777Y-123078223D01*
X112911253Y-123096401D01*
X112925868Y-123116107D01*
X112938480Y-123137150D01*
X112948970Y-123159329D01*
X112957235Y-123182428D01*
X112963196Y-123206227D01*
X112966796Y-123230495D01*
X112968000Y-123254999D01*
X112968000Y-123905001D01*
X112966796Y-123929505D01*
X112963196Y-123953773D01*
X112957235Y-123977572D01*
X112948970Y-124000671D01*
X112938480Y-124022850D01*
X112925868Y-124043893D01*
X112911253Y-124063599D01*
X112894777Y-124081777D01*
X112876599Y-124098253D01*
X112856893Y-124112868D01*
X112835850Y-124125480D01*
X112813671Y-124135970D01*
X112790572Y-124144235D01*
X112766773Y-124150196D01*
X112742505Y-124153796D01*
X112718001Y-124155000D01*
X111817999Y-124155000D01*
X111793495Y-124153796D01*
X111769227Y-124150196D01*
X111745428Y-124144235D01*
X111722329Y-124135970D01*
X111700150Y-124125480D01*
X111679107Y-124112868D01*
X111659401Y-124098253D01*
X111641223Y-124081777D01*
X111624747Y-124063599D01*
X111610132Y-124043893D01*
X111597520Y-124022850D01*
X111587030Y-124000671D01*
X111578765Y-123977572D01*
X111572804Y-123953773D01*
X111569204Y-123929505D01*
X111568000Y-123905001D01*
X111568000Y-123254999D01*
X111569204Y-123230495D01*
X111572804Y-123206227D01*
X111578765Y-123182428D01*
X111587030Y-123159329D01*
X111597520Y-123137150D01*
X111610132Y-123116107D01*
X111624747Y-123096401D01*
X111641223Y-123078223D01*
X111659401Y-123061747D01*
X111679107Y-123047132D01*
X111700150Y-123034520D01*
X111722329Y-123024030D01*
X111745428Y-123015765D01*
X111769227Y-123009804D01*
X111793495Y-123006204D01*
X111817999Y-123005000D01*
X112718001Y-123005000D01*
X112742505Y-123006204D01*
X112742505Y-123006204D01*
G37*
D11*
X112268000Y-123580000D03*
D10*
G36*
X112742505Y-120956204D02*
G01*
X112766773Y-120959804D01*
X112790572Y-120965765D01*
X112813671Y-120974030D01*
X112835850Y-120984520D01*
X112856893Y-120997132D01*
X112876599Y-121011747D01*
X112894777Y-121028223D01*
X112911253Y-121046401D01*
X112925868Y-121066107D01*
X112938480Y-121087150D01*
X112948970Y-121109329D01*
X112957235Y-121132428D01*
X112963196Y-121156227D01*
X112966796Y-121180495D01*
X112968000Y-121204999D01*
X112968000Y-121855001D01*
X112966796Y-121879505D01*
X112963196Y-121903773D01*
X112957235Y-121927572D01*
X112948970Y-121950671D01*
X112938480Y-121972850D01*
X112925868Y-121993893D01*
X112911253Y-122013599D01*
X112894777Y-122031777D01*
X112876599Y-122048253D01*
X112856893Y-122062868D01*
X112835850Y-122075480D01*
X112813671Y-122085970D01*
X112790572Y-122094235D01*
X112766773Y-122100196D01*
X112742505Y-122103796D01*
X112718001Y-122105000D01*
X111817999Y-122105000D01*
X111793495Y-122103796D01*
X111769227Y-122100196D01*
X111745428Y-122094235D01*
X111722329Y-122085970D01*
X111700150Y-122075480D01*
X111679107Y-122062868D01*
X111659401Y-122048253D01*
X111641223Y-122031777D01*
X111624747Y-122013599D01*
X111610132Y-121993893D01*
X111597520Y-121972850D01*
X111587030Y-121950671D01*
X111578765Y-121927572D01*
X111572804Y-121903773D01*
X111569204Y-121879505D01*
X111568000Y-121855001D01*
X111568000Y-121204999D01*
X111569204Y-121180495D01*
X111572804Y-121156227D01*
X111578765Y-121132428D01*
X111587030Y-121109329D01*
X111597520Y-121087150D01*
X111610132Y-121066107D01*
X111624747Y-121046401D01*
X111641223Y-121028223D01*
X111659401Y-121011747D01*
X111679107Y-120997132D01*
X111700150Y-120984520D01*
X111722329Y-120974030D01*
X111745428Y-120965765D01*
X111769227Y-120959804D01*
X111793495Y-120956204D01*
X111817999Y-120955000D01*
X112718001Y-120955000D01*
X112742505Y-120956204D01*
X112742505Y-120956204D01*
G37*
D11*
X112268000Y-121530000D03*
D10*
G36*
X95724505Y-69766204D02*
G01*
X95748773Y-69769804D01*
X95772572Y-69775765D01*
X95795671Y-69784030D01*
X95817850Y-69794520D01*
X95838893Y-69807132D01*
X95858599Y-69821747D01*
X95876777Y-69838223D01*
X95893253Y-69856401D01*
X95907868Y-69876107D01*
X95920480Y-69897150D01*
X95930970Y-69919329D01*
X95939235Y-69942428D01*
X95945196Y-69966227D01*
X95948796Y-69990495D01*
X95950000Y-70014999D01*
X95950000Y-70665001D01*
X95948796Y-70689505D01*
X95945196Y-70713773D01*
X95939235Y-70737572D01*
X95930970Y-70760671D01*
X95920480Y-70782850D01*
X95907868Y-70803893D01*
X95893253Y-70823599D01*
X95876777Y-70841777D01*
X95858599Y-70858253D01*
X95838893Y-70872868D01*
X95817850Y-70885480D01*
X95795671Y-70895970D01*
X95772572Y-70904235D01*
X95748773Y-70910196D01*
X95724505Y-70913796D01*
X95700001Y-70915000D01*
X94799999Y-70915000D01*
X94775495Y-70913796D01*
X94751227Y-70910196D01*
X94727428Y-70904235D01*
X94704329Y-70895970D01*
X94682150Y-70885480D01*
X94661107Y-70872868D01*
X94641401Y-70858253D01*
X94623223Y-70841777D01*
X94606747Y-70823599D01*
X94592132Y-70803893D01*
X94579520Y-70782850D01*
X94569030Y-70760671D01*
X94560765Y-70737572D01*
X94554804Y-70713773D01*
X94551204Y-70689505D01*
X94550000Y-70665001D01*
X94550000Y-70014999D01*
X94551204Y-69990495D01*
X94554804Y-69966227D01*
X94560765Y-69942428D01*
X94569030Y-69919329D01*
X94579520Y-69897150D01*
X94592132Y-69876107D01*
X94606747Y-69856401D01*
X94623223Y-69838223D01*
X94641401Y-69821747D01*
X94661107Y-69807132D01*
X94682150Y-69794520D01*
X94704329Y-69784030D01*
X94727428Y-69775765D01*
X94751227Y-69769804D01*
X94775495Y-69766204D01*
X94799999Y-69765000D01*
X95700001Y-69765000D01*
X95724505Y-69766204D01*
X95724505Y-69766204D01*
G37*
D11*
X95250000Y-70340000D03*
D10*
G36*
X95724505Y-71816204D02*
G01*
X95748773Y-71819804D01*
X95772572Y-71825765D01*
X95795671Y-71834030D01*
X95817850Y-71844520D01*
X95838893Y-71857132D01*
X95858599Y-71871747D01*
X95876777Y-71888223D01*
X95893253Y-71906401D01*
X95907868Y-71926107D01*
X95920480Y-71947150D01*
X95930970Y-71969329D01*
X95939235Y-71992428D01*
X95945196Y-72016227D01*
X95948796Y-72040495D01*
X95950000Y-72064999D01*
X95950000Y-72715001D01*
X95948796Y-72739505D01*
X95945196Y-72763773D01*
X95939235Y-72787572D01*
X95930970Y-72810671D01*
X95920480Y-72832850D01*
X95907868Y-72853893D01*
X95893253Y-72873599D01*
X95876777Y-72891777D01*
X95858599Y-72908253D01*
X95838893Y-72922868D01*
X95817850Y-72935480D01*
X95795671Y-72945970D01*
X95772572Y-72954235D01*
X95748773Y-72960196D01*
X95724505Y-72963796D01*
X95700001Y-72965000D01*
X94799999Y-72965000D01*
X94775495Y-72963796D01*
X94751227Y-72960196D01*
X94727428Y-72954235D01*
X94704329Y-72945970D01*
X94682150Y-72935480D01*
X94661107Y-72922868D01*
X94641401Y-72908253D01*
X94623223Y-72891777D01*
X94606747Y-72873599D01*
X94592132Y-72853893D01*
X94579520Y-72832850D01*
X94569030Y-72810671D01*
X94560765Y-72787572D01*
X94554804Y-72763773D01*
X94551204Y-72739505D01*
X94550000Y-72715001D01*
X94550000Y-72064999D01*
X94551204Y-72040495D01*
X94554804Y-72016227D01*
X94560765Y-71992428D01*
X94569030Y-71969329D01*
X94579520Y-71947150D01*
X94592132Y-71926107D01*
X94606747Y-71906401D01*
X94623223Y-71888223D01*
X94641401Y-71871747D01*
X94661107Y-71857132D01*
X94682150Y-71844520D01*
X94704329Y-71834030D01*
X94727428Y-71825765D01*
X94751227Y-71819804D01*
X94775495Y-71816204D01*
X94799999Y-71815000D01*
X95700001Y-71815000D01*
X95724505Y-71816204D01*
X95724505Y-71816204D01*
G37*
D11*
X95250000Y-72390000D03*
D10*
G36*
X100804505Y-69766204D02*
G01*
X100828773Y-69769804D01*
X100852572Y-69775765D01*
X100875671Y-69784030D01*
X100897850Y-69794520D01*
X100918893Y-69807132D01*
X100938599Y-69821747D01*
X100956777Y-69838223D01*
X100973253Y-69856401D01*
X100987868Y-69876107D01*
X101000480Y-69897150D01*
X101010970Y-69919329D01*
X101019235Y-69942428D01*
X101025196Y-69966227D01*
X101028796Y-69990495D01*
X101030000Y-70014999D01*
X101030000Y-70665001D01*
X101028796Y-70689505D01*
X101025196Y-70713773D01*
X101019235Y-70737572D01*
X101010970Y-70760671D01*
X101000480Y-70782850D01*
X100987868Y-70803893D01*
X100973253Y-70823599D01*
X100956777Y-70841777D01*
X100938599Y-70858253D01*
X100918893Y-70872868D01*
X100897850Y-70885480D01*
X100875671Y-70895970D01*
X100852572Y-70904235D01*
X100828773Y-70910196D01*
X100804505Y-70913796D01*
X100780001Y-70915000D01*
X99879999Y-70915000D01*
X99855495Y-70913796D01*
X99831227Y-70910196D01*
X99807428Y-70904235D01*
X99784329Y-70895970D01*
X99762150Y-70885480D01*
X99741107Y-70872868D01*
X99721401Y-70858253D01*
X99703223Y-70841777D01*
X99686747Y-70823599D01*
X99672132Y-70803893D01*
X99659520Y-70782850D01*
X99649030Y-70760671D01*
X99640765Y-70737572D01*
X99634804Y-70713773D01*
X99631204Y-70689505D01*
X99630000Y-70665001D01*
X99630000Y-70014999D01*
X99631204Y-69990495D01*
X99634804Y-69966227D01*
X99640765Y-69942428D01*
X99649030Y-69919329D01*
X99659520Y-69897150D01*
X99672132Y-69876107D01*
X99686747Y-69856401D01*
X99703223Y-69838223D01*
X99721401Y-69821747D01*
X99741107Y-69807132D01*
X99762150Y-69794520D01*
X99784329Y-69784030D01*
X99807428Y-69775765D01*
X99831227Y-69769804D01*
X99855495Y-69766204D01*
X99879999Y-69765000D01*
X100780001Y-69765000D01*
X100804505Y-69766204D01*
X100804505Y-69766204D01*
G37*
D11*
X100330000Y-70340000D03*
D10*
G36*
X100804505Y-71816204D02*
G01*
X100828773Y-71819804D01*
X100852572Y-71825765D01*
X100875671Y-71834030D01*
X100897850Y-71844520D01*
X100918893Y-71857132D01*
X100938599Y-71871747D01*
X100956777Y-71888223D01*
X100973253Y-71906401D01*
X100987868Y-71926107D01*
X101000480Y-71947150D01*
X101010970Y-71969329D01*
X101019235Y-71992428D01*
X101025196Y-72016227D01*
X101028796Y-72040495D01*
X101030000Y-72064999D01*
X101030000Y-72715001D01*
X101028796Y-72739505D01*
X101025196Y-72763773D01*
X101019235Y-72787572D01*
X101010970Y-72810671D01*
X101000480Y-72832850D01*
X100987868Y-72853893D01*
X100973253Y-72873599D01*
X100956777Y-72891777D01*
X100938599Y-72908253D01*
X100918893Y-72922868D01*
X100897850Y-72935480D01*
X100875671Y-72945970D01*
X100852572Y-72954235D01*
X100828773Y-72960196D01*
X100804505Y-72963796D01*
X100780001Y-72965000D01*
X99879999Y-72965000D01*
X99855495Y-72963796D01*
X99831227Y-72960196D01*
X99807428Y-72954235D01*
X99784329Y-72945970D01*
X99762150Y-72935480D01*
X99741107Y-72922868D01*
X99721401Y-72908253D01*
X99703223Y-72891777D01*
X99686747Y-72873599D01*
X99672132Y-72853893D01*
X99659520Y-72832850D01*
X99649030Y-72810671D01*
X99640765Y-72787572D01*
X99634804Y-72763773D01*
X99631204Y-72739505D01*
X99630000Y-72715001D01*
X99630000Y-72064999D01*
X99631204Y-72040495D01*
X99634804Y-72016227D01*
X99640765Y-71992428D01*
X99649030Y-71969329D01*
X99659520Y-71947150D01*
X99672132Y-71926107D01*
X99686747Y-71906401D01*
X99703223Y-71888223D01*
X99721401Y-71871747D01*
X99741107Y-71857132D01*
X99762150Y-71844520D01*
X99784329Y-71834030D01*
X99807428Y-71825765D01*
X99831227Y-71819804D01*
X99855495Y-71816204D01*
X99879999Y-71815000D01*
X100780001Y-71815000D01*
X100804505Y-71816204D01*
X100804505Y-71816204D01*
G37*
D11*
X100330000Y-72390000D03*
D10*
G36*
X88993505Y-123006204D02*
G01*
X89017773Y-123009804D01*
X89041572Y-123015765D01*
X89064671Y-123024030D01*
X89086850Y-123034520D01*
X89107893Y-123047132D01*
X89127599Y-123061747D01*
X89145777Y-123078223D01*
X89162253Y-123096401D01*
X89176868Y-123116107D01*
X89189480Y-123137150D01*
X89199970Y-123159329D01*
X89208235Y-123182428D01*
X89214196Y-123206227D01*
X89217796Y-123230495D01*
X89219000Y-123254999D01*
X89219000Y-123905001D01*
X89217796Y-123929505D01*
X89214196Y-123953773D01*
X89208235Y-123977572D01*
X89199970Y-124000671D01*
X89189480Y-124022850D01*
X89176868Y-124043893D01*
X89162253Y-124063599D01*
X89145777Y-124081777D01*
X89127599Y-124098253D01*
X89107893Y-124112868D01*
X89086850Y-124125480D01*
X89064671Y-124135970D01*
X89041572Y-124144235D01*
X89017773Y-124150196D01*
X88993505Y-124153796D01*
X88969001Y-124155000D01*
X88068999Y-124155000D01*
X88044495Y-124153796D01*
X88020227Y-124150196D01*
X87996428Y-124144235D01*
X87973329Y-124135970D01*
X87951150Y-124125480D01*
X87930107Y-124112868D01*
X87910401Y-124098253D01*
X87892223Y-124081777D01*
X87875747Y-124063599D01*
X87861132Y-124043893D01*
X87848520Y-124022850D01*
X87838030Y-124000671D01*
X87829765Y-123977572D01*
X87823804Y-123953773D01*
X87820204Y-123929505D01*
X87819000Y-123905001D01*
X87819000Y-123254999D01*
X87820204Y-123230495D01*
X87823804Y-123206227D01*
X87829765Y-123182428D01*
X87838030Y-123159329D01*
X87848520Y-123137150D01*
X87861132Y-123116107D01*
X87875747Y-123096401D01*
X87892223Y-123078223D01*
X87910401Y-123061747D01*
X87930107Y-123047132D01*
X87951150Y-123034520D01*
X87973329Y-123024030D01*
X87996428Y-123015765D01*
X88020227Y-123009804D01*
X88044495Y-123006204D01*
X88068999Y-123005000D01*
X88969001Y-123005000D01*
X88993505Y-123006204D01*
X88993505Y-123006204D01*
G37*
D11*
X88519000Y-123580000D03*
D10*
G36*
X88993505Y-120956204D02*
G01*
X89017773Y-120959804D01*
X89041572Y-120965765D01*
X89064671Y-120974030D01*
X89086850Y-120984520D01*
X89107893Y-120997132D01*
X89127599Y-121011747D01*
X89145777Y-121028223D01*
X89162253Y-121046401D01*
X89176868Y-121066107D01*
X89189480Y-121087150D01*
X89199970Y-121109329D01*
X89208235Y-121132428D01*
X89214196Y-121156227D01*
X89217796Y-121180495D01*
X89219000Y-121204999D01*
X89219000Y-121855001D01*
X89217796Y-121879505D01*
X89214196Y-121903773D01*
X89208235Y-121927572D01*
X89199970Y-121950671D01*
X89189480Y-121972850D01*
X89176868Y-121993893D01*
X89162253Y-122013599D01*
X89145777Y-122031777D01*
X89127599Y-122048253D01*
X89107893Y-122062868D01*
X89086850Y-122075480D01*
X89064671Y-122085970D01*
X89041572Y-122094235D01*
X89017773Y-122100196D01*
X88993505Y-122103796D01*
X88969001Y-122105000D01*
X88068999Y-122105000D01*
X88044495Y-122103796D01*
X88020227Y-122100196D01*
X87996428Y-122094235D01*
X87973329Y-122085970D01*
X87951150Y-122075480D01*
X87930107Y-122062868D01*
X87910401Y-122048253D01*
X87892223Y-122031777D01*
X87875747Y-122013599D01*
X87861132Y-121993893D01*
X87848520Y-121972850D01*
X87838030Y-121950671D01*
X87829765Y-121927572D01*
X87823804Y-121903773D01*
X87820204Y-121879505D01*
X87819000Y-121855001D01*
X87819000Y-121204999D01*
X87820204Y-121180495D01*
X87823804Y-121156227D01*
X87829765Y-121132428D01*
X87838030Y-121109329D01*
X87848520Y-121087150D01*
X87861132Y-121066107D01*
X87875747Y-121046401D01*
X87892223Y-121028223D01*
X87910401Y-121011747D01*
X87930107Y-120997132D01*
X87951150Y-120984520D01*
X87973329Y-120974030D01*
X87996428Y-120965765D01*
X88020227Y-120959804D01*
X88044495Y-120956204D01*
X88068999Y-120955000D01*
X88969001Y-120955000D01*
X88993505Y-120956204D01*
X88993505Y-120956204D01*
G37*
D11*
X88519000Y-121530000D03*
D10*
G36*
X94581505Y-123006204D02*
G01*
X94605773Y-123009804D01*
X94629572Y-123015765D01*
X94652671Y-123024030D01*
X94674850Y-123034520D01*
X94695893Y-123047132D01*
X94715599Y-123061747D01*
X94733777Y-123078223D01*
X94750253Y-123096401D01*
X94764868Y-123116107D01*
X94777480Y-123137150D01*
X94787970Y-123159329D01*
X94796235Y-123182428D01*
X94802196Y-123206227D01*
X94805796Y-123230495D01*
X94807000Y-123254999D01*
X94807000Y-123905001D01*
X94805796Y-123929505D01*
X94802196Y-123953773D01*
X94796235Y-123977572D01*
X94787970Y-124000671D01*
X94777480Y-124022850D01*
X94764868Y-124043893D01*
X94750253Y-124063599D01*
X94733777Y-124081777D01*
X94715599Y-124098253D01*
X94695893Y-124112868D01*
X94674850Y-124125480D01*
X94652671Y-124135970D01*
X94629572Y-124144235D01*
X94605773Y-124150196D01*
X94581505Y-124153796D01*
X94557001Y-124155000D01*
X93656999Y-124155000D01*
X93632495Y-124153796D01*
X93608227Y-124150196D01*
X93584428Y-124144235D01*
X93561329Y-124135970D01*
X93539150Y-124125480D01*
X93518107Y-124112868D01*
X93498401Y-124098253D01*
X93480223Y-124081777D01*
X93463747Y-124063599D01*
X93449132Y-124043893D01*
X93436520Y-124022850D01*
X93426030Y-124000671D01*
X93417765Y-123977572D01*
X93411804Y-123953773D01*
X93408204Y-123929505D01*
X93407000Y-123905001D01*
X93407000Y-123254999D01*
X93408204Y-123230495D01*
X93411804Y-123206227D01*
X93417765Y-123182428D01*
X93426030Y-123159329D01*
X93436520Y-123137150D01*
X93449132Y-123116107D01*
X93463747Y-123096401D01*
X93480223Y-123078223D01*
X93498401Y-123061747D01*
X93518107Y-123047132D01*
X93539150Y-123034520D01*
X93561329Y-123024030D01*
X93584428Y-123015765D01*
X93608227Y-123009804D01*
X93632495Y-123006204D01*
X93656999Y-123005000D01*
X94557001Y-123005000D01*
X94581505Y-123006204D01*
X94581505Y-123006204D01*
G37*
D11*
X94107000Y-123580000D03*
D10*
G36*
X94581505Y-120956204D02*
G01*
X94605773Y-120959804D01*
X94629572Y-120965765D01*
X94652671Y-120974030D01*
X94674850Y-120984520D01*
X94695893Y-120997132D01*
X94715599Y-121011747D01*
X94733777Y-121028223D01*
X94750253Y-121046401D01*
X94764868Y-121066107D01*
X94777480Y-121087150D01*
X94787970Y-121109329D01*
X94796235Y-121132428D01*
X94802196Y-121156227D01*
X94805796Y-121180495D01*
X94807000Y-121204999D01*
X94807000Y-121855001D01*
X94805796Y-121879505D01*
X94802196Y-121903773D01*
X94796235Y-121927572D01*
X94787970Y-121950671D01*
X94777480Y-121972850D01*
X94764868Y-121993893D01*
X94750253Y-122013599D01*
X94733777Y-122031777D01*
X94715599Y-122048253D01*
X94695893Y-122062868D01*
X94674850Y-122075480D01*
X94652671Y-122085970D01*
X94629572Y-122094235D01*
X94605773Y-122100196D01*
X94581505Y-122103796D01*
X94557001Y-122105000D01*
X93656999Y-122105000D01*
X93632495Y-122103796D01*
X93608227Y-122100196D01*
X93584428Y-122094235D01*
X93561329Y-122085970D01*
X93539150Y-122075480D01*
X93518107Y-122062868D01*
X93498401Y-122048253D01*
X93480223Y-122031777D01*
X93463747Y-122013599D01*
X93449132Y-121993893D01*
X93436520Y-121972850D01*
X93426030Y-121950671D01*
X93417765Y-121927572D01*
X93411804Y-121903773D01*
X93408204Y-121879505D01*
X93407000Y-121855001D01*
X93407000Y-121204999D01*
X93408204Y-121180495D01*
X93411804Y-121156227D01*
X93417765Y-121132428D01*
X93426030Y-121109329D01*
X93436520Y-121087150D01*
X93449132Y-121066107D01*
X93463747Y-121046401D01*
X93480223Y-121028223D01*
X93498401Y-121011747D01*
X93518107Y-120997132D01*
X93539150Y-120984520D01*
X93561329Y-120974030D01*
X93584428Y-120965765D01*
X93608227Y-120959804D01*
X93632495Y-120956204D01*
X93656999Y-120955000D01*
X94557001Y-120955000D01*
X94581505Y-120956204D01*
X94581505Y-120956204D01*
G37*
D11*
X94107000Y-121530000D03*
D10*
G36*
X107027505Y-123006204D02*
G01*
X107051773Y-123009804D01*
X107075572Y-123015765D01*
X107098671Y-123024030D01*
X107120850Y-123034520D01*
X107141893Y-123047132D01*
X107161599Y-123061747D01*
X107179777Y-123078223D01*
X107196253Y-123096401D01*
X107210868Y-123116107D01*
X107223480Y-123137150D01*
X107233970Y-123159329D01*
X107242235Y-123182428D01*
X107248196Y-123206227D01*
X107251796Y-123230495D01*
X107253000Y-123254999D01*
X107253000Y-123905001D01*
X107251796Y-123929505D01*
X107248196Y-123953773D01*
X107242235Y-123977572D01*
X107233970Y-124000671D01*
X107223480Y-124022850D01*
X107210868Y-124043893D01*
X107196253Y-124063599D01*
X107179777Y-124081777D01*
X107161599Y-124098253D01*
X107141893Y-124112868D01*
X107120850Y-124125480D01*
X107098671Y-124135970D01*
X107075572Y-124144235D01*
X107051773Y-124150196D01*
X107027505Y-124153796D01*
X107003001Y-124155000D01*
X106102999Y-124155000D01*
X106078495Y-124153796D01*
X106054227Y-124150196D01*
X106030428Y-124144235D01*
X106007329Y-124135970D01*
X105985150Y-124125480D01*
X105964107Y-124112868D01*
X105944401Y-124098253D01*
X105926223Y-124081777D01*
X105909747Y-124063599D01*
X105895132Y-124043893D01*
X105882520Y-124022850D01*
X105872030Y-124000671D01*
X105863765Y-123977572D01*
X105857804Y-123953773D01*
X105854204Y-123929505D01*
X105853000Y-123905001D01*
X105853000Y-123254999D01*
X105854204Y-123230495D01*
X105857804Y-123206227D01*
X105863765Y-123182428D01*
X105872030Y-123159329D01*
X105882520Y-123137150D01*
X105895132Y-123116107D01*
X105909747Y-123096401D01*
X105926223Y-123078223D01*
X105944401Y-123061747D01*
X105964107Y-123047132D01*
X105985150Y-123034520D01*
X106007329Y-123024030D01*
X106030428Y-123015765D01*
X106054227Y-123009804D01*
X106078495Y-123006204D01*
X106102999Y-123005000D01*
X107003001Y-123005000D01*
X107027505Y-123006204D01*
X107027505Y-123006204D01*
G37*
D11*
X106553000Y-123580000D03*
D10*
G36*
X107027505Y-120956204D02*
G01*
X107051773Y-120959804D01*
X107075572Y-120965765D01*
X107098671Y-120974030D01*
X107120850Y-120984520D01*
X107141893Y-120997132D01*
X107161599Y-121011747D01*
X107179777Y-121028223D01*
X107196253Y-121046401D01*
X107210868Y-121066107D01*
X107223480Y-121087150D01*
X107233970Y-121109329D01*
X107242235Y-121132428D01*
X107248196Y-121156227D01*
X107251796Y-121180495D01*
X107253000Y-121204999D01*
X107253000Y-121855001D01*
X107251796Y-121879505D01*
X107248196Y-121903773D01*
X107242235Y-121927572D01*
X107233970Y-121950671D01*
X107223480Y-121972850D01*
X107210868Y-121993893D01*
X107196253Y-122013599D01*
X107179777Y-122031777D01*
X107161599Y-122048253D01*
X107141893Y-122062868D01*
X107120850Y-122075480D01*
X107098671Y-122085970D01*
X107075572Y-122094235D01*
X107051773Y-122100196D01*
X107027505Y-122103796D01*
X107003001Y-122105000D01*
X106102999Y-122105000D01*
X106078495Y-122103796D01*
X106054227Y-122100196D01*
X106030428Y-122094235D01*
X106007329Y-122085970D01*
X105985150Y-122075480D01*
X105964107Y-122062868D01*
X105944401Y-122048253D01*
X105926223Y-122031777D01*
X105909747Y-122013599D01*
X105895132Y-121993893D01*
X105882520Y-121972850D01*
X105872030Y-121950671D01*
X105863765Y-121927572D01*
X105857804Y-121903773D01*
X105854204Y-121879505D01*
X105853000Y-121855001D01*
X105853000Y-121204999D01*
X105854204Y-121180495D01*
X105857804Y-121156227D01*
X105863765Y-121132428D01*
X105872030Y-121109329D01*
X105882520Y-121087150D01*
X105895132Y-121066107D01*
X105909747Y-121046401D01*
X105926223Y-121028223D01*
X105944401Y-121011747D01*
X105964107Y-120997132D01*
X105985150Y-120984520D01*
X106007329Y-120974030D01*
X106030428Y-120965765D01*
X106054227Y-120959804D01*
X106078495Y-120956204D01*
X106102999Y-120955000D01*
X107003001Y-120955000D01*
X107027505Y-120956204D01*
X107027505Y-120956204D01*
G37*
D11*
X106553000Y-121530000D03*
D10*
G36*
X110964505Y-69766204D02*
G01*
X110988773Y-69769804D01*
X111012572Y-69775765D01*
X111035671Y-69784030D01*
X111057850Y-69794520D01*
X111078893Y-69807132D01*
X111098599Y-69821747D01*
X111116777Y-69838223D01*
X111133253Y-69856401D01*
X111147868Y-69876107D01*
X111160480Y-69897150D01*
X111170970Y-69919329D01*
X111179235Y-69942428D01*
X111185196Y-69966227D01*
X111188796Y-69990495D01*
X111190000Y-70014999D01*
X111190000Y-70665001D01*
X111188796Y-70689505D01*
X111185196Y-70713773D01*
X111179235Y-70737572D01*
X111170970Y-70760671D01*
X111160480Y-70782850D01*
X111147868Y-70803893D01*
X111133253Y-70823599D01*
X111116777Y-70841777D01*
X111098599Y-70858253D01*
X111078893Y-70872868D01*
X111057850Y-70885480D01*
X111035671Y-70895970D01*
X111012572Y-70904235D01*
X110988773Y-70910196D01*
X110964505Y-70913796D01*
X110940001Y-70915000D01*
X110039999Y-70915000D01*
X110015495Y-70913796D01*
X109991227Y-70910196D01*
X109967428Y-70904235D01*
X109944329Y-70895970D01*
X109922150Y-70885480D01*
X109901107Y-70872868D01*
X109881401Y-70858253D01*
X109863223Y-70841777D01*
X109846747Y-70823599D01*
X109832132Y-70803893D01*
X109819520Y-70782850D01*
X109809030Y-70760671D01*
X109800765Y-70737572D01*
X109794804Y-70713773D01*
X109791204Y-70689505D01*
X109790000Y-70665001D01*
X109790000Y-70014999D01*
X109791204Y-69990495D01*
X109794804Y-69966227D01*
X109800765Y-69942428D01*
X109809030Y-69919329D01*
X109819520Y-69897150D01*
X109832132Y-69876107D01*
X109846747Y-69856401D01*
X109863223Y-69838223D01*
X109881401Y-69821747D01*
X109901107Y-69807132D01*
X109922150Y-69794520D01*
X109944329Y-69784030D01*
X109967428Y-69775765D01*
X109991227Y-69769804D01*
X110015495Y-69766204D01*
X110039999Y-69765000D01*
X110940001Y-69765000D01*
X110964505Y-69766204D01*
X110964505Y-69766204D01*
G37*
D11*
X110490000Y-70340000D03*
D10*
G36*
X110964505Y-71816204D02*
G01*
X110988773Y-71819804D01*
X111012572Y-71825765D01*
X111035671Y-71834030D01*
X111057850Y-71844520D01*
X111078893Y-71857132D01*
X111098599Y-71871747D01*
X111116777Y-71888223D01*
X111133253Y-71906401D01*
X111147868Y-71926107D01*
X111160480Y-71947150D01*
X111170970Y-71969329D01*
X111179235Y-71992428D01*
X111185196Y-72016227D01*
X111188796Y-72040495D01*
X111190000Y-72064999D01*
X111190000Y-72715001D01*
X111188796Y-72739505D01*
X111185196Y-72763773D01*
X111179235Y-72787572D01*
X111170970Y-72810671D01*
X111160480Y-72832850D01*
X111147868Y-72853893D01*
X111133253Y-72873599D01*
X111116777Y-72891777D01*
X111098599Y-72908253D01*
X111078893Y-72922868D01*
X111057850Y-72935480D01*
X111035671Y-72945970D01*
X111012572Y-72954235D01*
X110988773Y-72960196D01*
X110964505Y-72963796D01*
X110940001Y-72965000D01*
X110039999Y-72965000D01*
X110015495Y-72963796D01*
X109991227Y-72960196D01*
X109967428Y-72954235D01*
X109944329Y-72945970D01*
X109922150Y-72935480D01*
X109901107Y-72922868D01*
X109881401Y-72908253D01*
X109863223Y-72891777D01*
X109846747Y-72873599D01*
X109832132Y-72853893D01*
X109819520Y-72832850D01*
X109809030Y-72810671D01*
X109800765Y-72787572D01*
X109794804Y-72763773D01*
X109791204Y-72739505D01*
X109790000Y-72715001D01*
X109790000Y-72064999D01*
X109791204Y-72040495D01*
X109794804Y-72016227D01*
X109800765Y-71992428D01*
X109809030Y-71969329D01*
X109819520Y-71947150D01*
X109832132Y-71926107D01*
X109846747Y-71906401D01*
X109863223Y-71888223D01*
X109881401Y-71871747D01*
X109901107Y-71857132D01*
X109922150Y-71844520D01*
X109944329Y-71834030D01*
X109967428Y-71825765D01*
X109991227Y-71819804D01*
X110015495Y-71816204D01*
X110039999Y-71815000D01*
X110940001Y-71815000D01*
X110964505Y-71816204D01*
X110964505Y-71816204D01*
G37*
D11*
X110490000Y-72390000D03*
D10*
G36*
X105884505Y-71816204D02*
G01*
X105908773Y-71819804D01*
X105932572Y-71825765D01*
X105955671Y-71834030D01*
X105977850Y-71844520D01*
X105998893Y-71857132D01*
X106018599Y-71871747D01*
X106036777Y-71888223D01*
X106053253Y-71906401D01*
X106067868Y-71926107D01*
X106080480Y-71947150D01*
X106090970Y-71969329D01*
X106099235Y-71992428D01*
X106105196Y-72016227D01*
X106108796Y-72040495D01*
X106110000Y-72064999D01*
X106110000Y-72715001D01*
X106108796Y-72739505D01*
X106105196Y-72763773D01*
X106099235Y-72787572D01*
X106090970Y-72810671D01*
X106080480Y-72832850D01*
X106067868Y-72853893D01*
X106053253Y-72873599D01*
X106036777Y-72891777D01*
X106018599Y-72908253D01*
X105998893Y-72922868D01*
X105977850Y-72935480D01*
X105955671Y-72945970D01*
X105932572Y-72954235D01*
X105908773Y-72960196D01*
X105884505Y-72963796D01*
X105860001Y-72965000D01*
X104959999Y-72965000D01*
X104935495Y-72963796D01*
X104911227Y-72960196D01*
X104887428Y-72954235D01*
X104864329Y-72945970D01*
X104842150Y-72935480D01*
X104821107Y-72922868D01*
X104801401Y-72908253D01*
X104783223Y-72891777D01*
X104766747Y-72873599D01*
X104752132Y-72853893D01*
X104739520Y-72832850D01*
X104729030Y-72810671D01*
X104720765Y-72787572D01*
X104714804Y-72763773D01*
X104711204Y-72739505D01*
X104710000Y-72715001D01*
X104710000Y-72064999D01*
X104711204Y-72040495D01*
X104714804Y-72016227D01*
X104720765Y-71992428D01*
X104729030Y-71969329D01*
X104739520Y-71947150D01*
X104752132Y-71926107D01*
X104766747Y-71906401D01*
X104783223Y-71888223D01*
X104801401Y-71871747D01*
X104821107Y-71857132D01*
X104842150Y-71844520D01*
X104864329Y-71834030D01*
X104887428Y-71825765D01*
X104911227Y-71819804D01*
X104935495Y-71816204D01*
X104959999Y-71815000D01*
X105860001Y-71815000D01*
X105884505Y-71816204D01*
X105884505Y-71816204D01*
G37*
D11*
X105410000Y-72390000D03*
D10*
G36*
X105884505Y-69766204D02*
G01*
X105908773Y-69769804D01*
X105932572Y-69775765D01*
X105955671Y-69784030D01*
X105977850Y-69794520D01*
X105998893Y-69807132D01*
X106018599Y-69821747D01*
X106036777Y-69838223D01*
X106053253Y-69856401D01*
X106067868Y-69876107D01*
X106080480Y-69897150D01*
X106090970Y-69919329D01*
X106099235Y-69942428D01*
X106105196Y-69966227D01*
X106108796Y-69990495D01*
X106110000Y-70014999D01*
X106110000Y-70665001D01*
X106108796Y-70689505D01*
X106105196Y-70713773D01*
X106099235Y-70737572D01*
X106090970Y-70760671D01*
X106080480Y-70782850D01*
X106067868Y-70803893D01*
X106053253Y-70823599D01*
X106036777Y-70841777D01*
X106018599Y-70858253D01*
X105998893Y-70872868D01*
X105977850Y-70885480D01*
X105955671Y-70895970D01*
X105932572Y-70904235D01*
X105908773Y-70910196D01*
X105884505Y-70913796D01*
X105860001Y-70915000D01*
X104959999Y-70915000D01*
X104935495Y-70913796D01*
X104911227Y-70910196D01*
X104887428Y-70904235D01*
X104864329Y-70895970D01*
X104842150Y-70885480D01*
X104821107Y-70872868D01*
X104801401Y-70858253D01*
X104783223Y-70841777D01*
X104766747Y-70823599D01*
X104752132Y-70803893D01*
X104739520Y-70782850D01*
X104729030Y-70760671D01*
X104720765Y-70737572D01*
X104714804Y-70713773D01*
X104711204Y-70689505D01*
X104710000Y-70665001D01*
X104710000Y-70014999D01*
X104711204Y-69990495D01*
X104714804Y-69966227D01*
X104720765Y-69942428D01*
X104729030Y-69919329D01*
X104739520Y-69897150D01*
X104752132Y-69876107D01*
X104766747Y-69856401D01*
X104783223Y-69838223D01*
X104801401Y-69821747D01*
X104821107Y-69807132D01*
X104842150Y-69794520D01*
X104864329Y-69784030D01*
X104887428Y-69775765D01*
X104911227Y-69769804D01*
X104935495Y-69766204D01*
X104959999Y-69765000D01*
X105860001Y-69765000D01*
X105884505Y-69766204D01*
X105884505Y-69766204D01*
G37*
D11*
X105410000Y-70340000D03*
D13*
X114538000Y-117795000D03*
X112538000Y-116845000D03*
X112538000Y-118745000D03*
X92980000Y-75565000D03*
X94980000Y-76515000D03*
X94980000Y-74615000D03*
X98060000Y-75565000D03*
X100060000Y-76515000D03*
X100060000Y-74615000D03*
X90789000Y-117856000D03*
X88789000Y-116906000D03*
X88789000Y-118806000D03*
X96377000Y-117795000D03*
X94377000Y-116845000D03*
X94377000Y-118745000D03*
D14*
X101600000Y-123825000D03*
X102550000Y-121825000D03*
X100650000Y-121825000D03*
D13*
X108950000Y-117795000D03*
X106950000Y-116845000D03*
X106950000Y-118745000D03*
X108220000Y-75565000D03*
X110220000Y-76515000D03*
X110220000Y-74615000D03*
X103140000Y-75565000D03*
X105140000Y-76515000D03*
X105140000Y-74615000D03*
D14*
X100965000Y-114665000D03*
X101915000Y-112665000D03*
X100015000Y-112665000D03*
D10*
G36*
X104414505Y-93406204D02*
G01*
X104438773Y-93409804D01*
X104462572Y-93415765D01*
X104485671Y-93424030D01*
X104507850Y-93434520D01*
X104528893Y-93447132D01*
X104548599Y-93461747D01*
X104566777Y-93478223D01*
X104583253Y-93496401D01*
X104597868Y-93516107D01*
X104610480Y-93537150D01*
X104620970Y-93559329D01*
X104629235Y-93582428D01*
X104635196Y-93606227D01*
X104638796Y-93630495D01*
X104640000Y-93654999D01*
X104640000Y-94305001D01*
X104638796Y-94329505D01*
X104635196Y-94353773D01*
X104629235Y-94377572D01*
X104620970Y-94400671D01*
X104610480Y-94422850D01*
X104597868Y-94443893D01*
X104583253Y-94463599D01*
X104566777Y-94481777D01*
X104548599Y-94498253D01*
X104528893Y-94512868D01*
X104507850Y-94525480D01*
X104485671Y-94535970D01*
X104462572Y-94544235D01*
X104438773Y-94550196D01*
X104414505Y-94553796D01*
X104390001Y-94555000D01*
X103489999Y-94555000D01*
X103465495Y-94553796D01*
X103441227Y-94550196D01*
X103417428Y-94544235D01*
X103394329Y-94535970D01*
X103372150Y-94525480D01*
X103351107Y-94512868D01*
X103331401Y-94498253D01*
X103313223Y-94481777D01*
X103296747Y-94463599D01*
X103282132Y-94443893D01*
X103269520Y-94422850D01*
X103259030Y-94400671D01*
X103250765Y-94377572D01*
X103244804Y-94353773D01*
X103241204Y-94329505D01*
X103240000Y-94305001D01*
X103240000Y-93654999D01*
X103241204Y-93630495D01*
X103244804Y-93606227D01*
X103250765Y-93582428D01*
X103259030Y-93559329D01*
X103269520Y-93537150D01*
X103282132Y-93516107D01*
X103296747Y-93496401D01*
X103313223Y-93478223D01*
X103331401Y-93461747D01*
X103351107Y-93447132D01*
X103372150Y-93434520D01*
X103394329Y-93424030D01*
X103417428Y-93415765D01*
X103441227Y-93409804D01*
X103465495Y-93406204D01*
X103489999Y-93405000D01*
X104390001Y-93405000D01*
X104414505Y-93406204D01*
X104414505Y-93406204D01*
G37*
D11*
X103940000Y-93980000D03*
D10*
G36*
X104414505Y-95456204D02*
G01*
X104438773Y-95459804D01*
X104462572Y-95465765D01*
X104485671Y-95474030D01*
X104507850Y-95484520D01*
X104528893Y-95497132D01*
X104548599Y-95511747D01*
X104566777Y-95528223D01*
X104583253Y-95546401D01*
X104597868Y-95566107D01*
X104610480Y-95587150D01*
X104620970Y-95609329D01*
X104629235Y-95632428D01*
X104635196Y-95656227D01*
X104638796Y-95680495D01*
X104640000Y-95704999D01*
X104640000Y-96355001D01*
X104638796Y-96379505D01*
X104635196Y-96403773D01*
X104629235Y-96427572D01*
X104620970Y-96450671D01*
X104610480Y-96472850D01*
X104597868Y-96493893D01*
X104583253Y-96513599D01*
X104566777Y-96531777D01*
X104548599Y-96548253D01*
X104528893Y-96562868D01*
X104507850Y-96575480D01*
X104485671Y-96585970D01*
X104462572Y-96594235D01*
X104438773Y-96600196D01*
X104414505Y-96603796D01*
X104390001Y-96605000D01*
X103489999Y-96605000D01*
X103465495Y-96603796D01*
X103441227Y-96600196D01*
X103417428Y-96594235D01*
X103394329Y-96585970D01*
X103372150Y-96575480D01*
X103351107Y-96562868D01*
X103331401Y-96548253D01*
X103313223Y-96531777D01*
X103296747Y-96513599D01*
X103282132Y-96493893D01*
X103269520Y-96472850D01*
X103259030Y-96450671D01*
X103250765Y-96427572D01*
X103244804Y-96403773D01*
X103241204Y-96379505D01*
X103240000Y-96355001D01*
X103240000Y-95704999D01*
X103241204Y-95680495D01*
X103244804Y-95656227D01*
X103250765Y-95632428D01*
X103259030Y-95609329D01*
X103269520Y-95587150D01*
X103282132Y-95566107D01*
X103296747Y-95546401D01*
X103313223Y-95528223D01*
X103331401Y-95511747D01*
X103351107Y-95497132D01*
X103372150Y-95484520D01*
X103394329Y-95474030D01*
X103417428Y-95465765D01*
X103441227Y-95459804D01*
X103465495Y-95456204D01*
X103489999Y-95455000D01*
X104390001Y-95455000D01*
X104414505Y-95456204D01*
X104414505Y-95456204D01*
G37*
D11*
X103940000Y-96030000D03*
M02*
