G04 #@! TF.GenerationSoftware,KiCad,Pcbnew,(5.1.0)-1*
G04 #@! TF.CreationDate,2020-01-26T20:33:10+01:00*
G04 #@! TF.ProjectId,Huge7SegDisplay,48756765-3753-4656-9744-6973706c6179,rev?*
G04 #@! TF.SameCoordinates,Original*
G04 #@! TF.FileFunction,Copper,L2,Bot*
G04 #@! TF.FilePolarity,Positive*
%FSLAX46Y46*%
G04 Gerber Fmt 4.6, Leading zero omitted, Abs format (unit mm)*
G04 Created by KiCad (PCBNEW (5.1.0)-1) date 2020-01-26 20:33:10*
%MOMM*%
%LPD*%
G04 APERTURE LIST*
%ADD10R,1.700000X1.700000*%
%ADD11C,1.700000*%
%ADD12O,1.700000X1.700000*%
%ADD13C,0.100000*%
%ADD14C,1.150000*%
%ADD15R,1.500000X0.600000*%
%ADD16R,0.900000X0.800000*%
%ADD17R,0.800000X0.900000*%
%ADD18C,0.800000*%
%ADD19C,0.500000*%
%ADD20C,0.250000*%
%ADD21C,0.254000*%
G04 APERTURE END LIST*
D10*
X96520000Y-127000000D03*
D11*
X106680000Y-127000000D03*
X104140000Y-127000000D03*
X101600000Y-127000000D03*
X99060000Y-127000000D03*
X106680000Y-66900000D03*
X104140000Y-66900000D03*
X101600000Y-66900000D03*
X99060000Y-66900000D03*
X96520000Y-66900000D03*
D12*
X87630000Y-104140000D03*
X87630000Y-101600000D03*
X87630000Y-99060000D03*
X87630000Y-96520000D03*
X87630000Y-93980000D03*
D10*
X87630000Y-91440000D03*
X115170000Y-91440000D03*
D12*
X115170000Y-93980000D03*
X115170000Y-96520000D03*
X115170000Y-99060000D03*
X115170000Y-101600000D03*
X115170000Y-104140000D03*
X115170000Y-106680000D03*
D13*
G36*
X98264505Y-69766204D02*
G01*
X98288773Y-69769804D01*
X98312572Y-69775765D01*
X98335671Y-69784030D01*
X98357850Y-69794520D01*
X98378893Y-69807132D01*
X98398599Y-69821747D01*
X98416777Y-69838223D01*
X98433253Y-69856401D01*
X98447868Y-69876107D01*
X98460480Y-69897150D01*
X98470970Y-69919329D01*
X98479235Y-69942428D01*
X98485196Y-69966227D01*
X98488796Y-69990495D01*
X98490000Y-70014999D01*
X98490000Y-70665001D01*
X98488796Y-70689505D01*
X98485196Y-70713773D01*
X98479235Y-70737572D01*
X98470970Y-70760671D01*
X98460480Y-70782850D01*
X98447868Y-70803893D01*
X98433253Y-70823599D01*
X98416777Y-70841777D01*
X98398599Y-70858253D01*
X98378893Y-70872868D01*
X98357850Y-70885480D01*
X98335671Y-70895970D01*
X98312572Y-70904235D01*
X98288773Y-70910196D01*
X98264505Y-70913796D01*
X98240001Y-70915000D01*
X97339999Y-70915000D01*
X97315495Y-70913796D01*
X97291227Y-70910196D01*
X97267428Y-70904235D01*
X97244329Y-70895970D01*
X97222150Y-70885480D01*
X97201107Y-70872868D01*
X97181401Y-70858253D01*
X97163223Y-70841777D01*
X97146747Y-70823599D01*
X97132132Y-70803893D01*
X97119520Y-70782850D01*
X97109030Y-70760671D01*
X97100765Y-70737572D01*
X97094804Y-70713773D01*
X97091204Y-70689505D01*
X97090000Y-70665001D01*
X97090000Y-70014999D01*
X97091204Y-69990495D01*
X97094804Y-69966227D01*
X97100765Y-69942428D01*
X97109030Y-69919329D01*
X97119520Y-69897150D01*
X97132132Y-69876107D01*
X97146747Y-69856401D01*
X97163223Y-69838223D01*
X97181401Y-69821747D01*
X97201107Y-69807132D01*
X97222150Y-69794520D01*
X97244329Y-69784030D01*
X97267428Y-69775765D01*
X97291227Y-69769804D01*
X97315495Y-69766204D01*
X97339999Y-69765000D01*
X98240001Y-69765000D01*
X98264505Y-69766204D01*
X98264505Y-69766204D01*
G37*
D14*
X97790000Y-70340000D03*
D13*
G36*
X98264505Y-71816204D02*
G01*
X98288773Y-71819804D01*
X98312572Y-71825765D01*
X98335671Y-71834030D01*
X98357850Y-71844520D01*
X98378893Y-71857132D01*
X98398599Y-71871747D01*
X98416777Y-71888223D01*
X98433253Y-71906401D01*
X98447868Y-71926107D01*
X98460480Y-71947150D01*
X98470970Y-71969329D01*
X98479235Y-71992428D01*
X98485196Y-72016227D01*
X98488796Y-72040495D01*
X98490000Y-72064999D01*
X98490000Y-72715001D01*
X98488796Y-72739505D01*
X98485196Y-72763773D01*
X98479235Y-72787572D01*
X98470970Y-72810671D01*
X98460480Y-72832850D01*
X98447868Y-72853893D01*
X98433253Y-72873599D01*
X98416777Y-72891777D01*
X98398599Y-72908253D01*
X98378893Y-72922868D01*
X98357850Y-72935480D01*
X98335671Y-72945970D01*
X98312572Y-72954235D01*
X98288773Y-72960196D01*
X98264505Y-72963796D01*
X98240001Y-72965000D01*
X97339999Y-72965000D01*
X97315495Y-72963796D01*
X97291227Y-72960196D01*
X97267428Y-72954235D01*
X97244329Y-72945970D01*
X97222150Y-72935480D01*
X97201107Y-72922868D01*
X97181401Y-72908253D01*
X97163223Y-72891777D01*
X97146747Y-72873599D01*
X97132132Y-72853893D01*
X97119520Y-72832850D01*
X97109030Y-72810671D01*
X97100765Y-72787572D01*
X97094804Y-72763773D01*
X97091204Y-72739505D01*
X97090000Y-72715001D01*
X97090000Y-72064999D01*
X97091204Y-72040495D01*
X97094804Y-72016227D01*
X97100765Y-71992428D01*
X97109030Y-71969329D01*
X97119520Y-71947150D01*
X97132132Y-71926107D01*
X97146747Y-71906401D01*
X97163223Y-71888223D01*
X97181401Y-71871747D01*
X97201107Y-71857132D01*
X97222150Y-71844520D01*
X97244329Y-71834030D01*
X97267428Y-71825765D01*
X97291227Y-71819804D01*
X97315495Y-71816204D01*
X97339999Y-71815000D01*
X98240001Y-71815000D01*
X98264505Y-71816204D01*
X98264505Y-71816204D01*
G37*
D14*
X97790000Y-72390000D03*
D15*
X103970000Y-92075000D03*
X103970000Y-90805000D03*
X103970000Y-89535000D03*
X103970000Y-88265000D03*
X103970000Y-86995000D03*
X103970000Y-85725000D03*
X103970000Y-84455000D03*
X103970000Y-83185000D03*
X98570000Y-83185000D03*
X98570000Y-84455000D03*
X98570000Y-85725000D03*
X98570000Y-86995000D03*
X98570000Y-88265000D03*
X98570000Y-89535000D03*
X98570000Y-90805000D03*
X98570000Y-92075000D03*
D13*
G36*
X115282505Y-123006204D02*
G01*
X115306773Y-123009804D01*
X115330572Y-123015765D01*
X115353671Y-123024030D01*
X115375850Y-123034520D01*
X115396893Y-123047132D01*
X115416599Y-123061747D01*
X115434777Y-123078223D01*
X115451253Y-123096401D01*
X115465868Y-123116107D01*
X115478480Y-123137150D01*
X115488970Y-123159329D01*
X115497235Y-123182428D01*
X115503196Y-123206227D01*
X115506796Y-123230495D01*
X115508000Y-123254999D01*
X115508000Y-123905001D01*
X115506796Y-123929505D01*
X115503196Y-123953773D01*
X115497235Y-123977572D01*
X115488970Y-124000671D01*
X115478480Y-124022850D01*
X115465868Y-124043893D01*
X115451253Y-124063599D01*
X115434777Y-124081777D01*
X115416599Y-124098253D01*
X115396893Y-124112868D01*
X115375850Y-124125480D01*
X115353671Y-124135970D01*
X115330572Y-124144235D01*
X115306773Y-124150196D01*
X115282505Y-124153796D01*
X115258001Y-124155000D01*
X114357999Y-124155000D01*
X114333495Y-124153796D01*
X114309227Y-124150196D01*
X114285428Y-124144235D01*
X114262329Y-124135970D01*
X114240150Y-124125480D01*
X114219107Y-124112868D01*
X114199401Y-124098253D01*
X114181223Y-124081777D01*
X114164747Y-124063599D01*
X114150132Y-124043893D01*
X114137520Y-124022850D01*
X114127030Y-124000671D01*
X114118765Y-123977572D01*
X114112804Y-123953773D01*
X114109204Y-123929505D01*
X114108000Y-123905001D01*
X114108000Y-123254999D01*
X114109204Y-123230495D01*
X114112804Y-123206227D01*
X114118765Y-123182428D01*
X114127030Y-123159329D01*
X114137520Y-123137150D01*
X114150132Y-123116107D01*
X114164747Y-123096401D01*
X114181223Y-123078223D01*
X114199401Y-123061747D01*
X114219107Y-123047132D01*
X114240150Y-123034520D01*
X114262329Y-123024030D01*
X114285428Y-123015765D01*
X114309227Y-123009804D01*
X114333495Y-123006204D01*
X114357999Y-123005000D01*
X115258001Y-123005000D01*
X115282505Y-123006204D01*
X115282505Y-123006204D01*
G37*
D14*
X114808000Y-123580000D03*
D13*
G36*
X115282505Y-120956204D02*
G01*
X115306773Y-120959804D01*
X115330572Y-120965765D01*
X115353671Y-120974030D01*
X115375850Y-120984520D01*
X115396893Y-120997132D01*
X115416599Y-121011747D01*
X115434777Y-121028223D01*
X115451253Y-121046401D01*
X115465868Y-121066107D01*
X115478480Y-121087150D01*
X115488970Y-121109329D01*
X115497235Y-121132428D01*
X115503196Y-121156227D01*
X115506796Y-121180495D01*
X115508000Y-121204999D01*
X115508000Y-121855001D01*
X115506796Y-121879505D01*
X115503196Y-121903773D01*
X115497235Y-121927572D01*
X115488970Y-121950671D01*
X115478480Y-121972850D01*
X115465868Y-121993893D01*
X115451253Y-122013599D01*
X115434777Y-122031777D01*
X115416599Y-122048253D01*
X115396893Y-122062868D01*
X115375850Y-122075480D01*
X115353671Y-122085970D01*
X115330572Y-122094235D01*
X115306773Y-122100196D01*
X115282505Y-122103796D01*
X115258001Y-122105000D01*
X114357999Y-122105000D01*
X114333495Y-122103796D01*
X114309227Y-122100196D01*
X114285428Y-122094235D01*
X114262329Y-122085970D01*
X114240150Y-122075480D01*
X114219107Y-122062868D01*
X114199401Y-122048253D01*
X114181223Y-122031777D01*
X114164747Y-122013599D01*
X114150132Y-121993893D01*
X114137520Y-121972850D01*
X114127030Y-121950671D01*
X114118765Y-121927572D01*
X114112804Y-121903773D01*
X114109204Y-121879505D01*
X114108000Y-121855001D01*
X114108000Y-121204999D01*
X114109204Y-121180495D01*
X114112804Y-121156227D01*
X114118765Y-121132428D01*
X114127030Y-121109329D01*
X114137520Y-121087150D01*
X114150132Y-121066107D01*
X114164747Y-121046401D01*
X114181223Y-121028223D01*
X114199401Y-121011747D01*
X114219107Y-120997132D01*
X114240150Y-120984520D01*
X114262329Y-120974030D01*
X114285428Y-120965765D01*
X114309227Y-120959804D01*
X114333495Y-120956204D01*
X114357999Y-120955000D01*
X115258001Y-120955000D01*
X115282505Y-120956204D01*
X115282505Y-120956204D01*
G37*
D14*
X114808000Y-121530000D03*
D13*
G36*
X93184505Y-69766204D02*
G01*
X93208773Y-69769804D01*
X93232572Y-69775765D01*
X93255671Y-69784030D01*
X93277850Y-69794520D01*
X93298893Y-69807132D01*
X93318599Y-69821747D01*
X93336777Y-69838223D01*
X93353253Y-69856401D01*
X93367868Y-69876107D01*
X93380480Y-69897150D01*
X93390970Y-69919329D01*
X93399235Y-69942428D01*
X93405196Y-69966227D01*
X93408796Y-69990495D01*
X93410000Y-70014999D01*
X93410000Y-70665001D01*
X93408796Y-70689505D01*
X93405196Y-70713773D01*
X93399235Y-70737572D01*
X93390970Y-70760671D01*
X93380480Y-70782850D01*
X93367868Y-70803893D01*
X93353253Y-70823599D01*
X93336777Y-70841777D01*
X93318599Y-70858253D01*
X93298893Y-70872868D01*
X93277850Y-70885480D01*
X93255671Y-70895970D01*
X93232572Y-70904235D01*
X93208773Y-70910196D01*
X93184505Y-70913796D01*
X93160001Y-70915000D01*
X92259999Y-70915000D01*
X92235495Y-70913796D01*
X92211227Y-70910196D01*
X92187428Y-70904235D01*
X92164329Y-70895970D01*
X92142150Y-70885480D01*
X92121107Y-70872868D01*
X92101401Y-70858253D01*
X92083223Y-70841777D01*
X92066747Y-70823599D01*
X92052132Y-70803893D01*
X92039520Y-70782850D01*
X92029030Y-70760671D01*
X92020765Y-70737572D01*
X92014804Y-70713773D01*
X92011204Y-70689505D01*
X92010000Y-70665001D01*
X92010000Y-70014999D01*
X92011204Y-69990495D01*
X92014804Y-69966227D01*
X92020765Y-69942428D01*
X92029030Y-69919329D01*
X92039520Y-69897150D01*
X92052132Y-69876107D01*
X92066747Y-69856401D01*
X92083223Y-69838223D01*
X92101401Y-69821747D01*
X92121107Y-69807132D01*
X92142150Y-69794520D01*
X92164329Y-69784030D01*
X92187428Y-69775765D01*
X92211227Y-69769804D01*
X92235495Y-69766204D01*
X92259999Y-69765000D01*
X93160001Y-69765000D01*
X93184505Y-69766204D01*
X93184505Y-69766204D01*
G37*
D14*
X92710000Y-70340000D03*
D13*
G36*
X93184505Y-71816204D02*
G01*
X93208773Y-71819804D01*
X93232572Y-71825765D01*
X93255671Y-71834030D01*
X93277850Y-71844520D01*
X93298893Y-71857132D01*
X93318599Y-71871747D01*
X93336777Y-71888223D01*
X93353253Y-71906401D01*
X93367868Y-71926107D01*
X93380480Y-71947150D01*
X93390970Y-71969329D01*
X93399235Y-71992428D01*
X93405196Y-72016227D01*
X93408796Y-72040495D01*
X93410000Y-72064999D01*
X93410000Y-72715001D01*
X93408796Y-72739505D01*
X93405196Y-72763773D01*
X93399235Y-72787572D01*
X93390970Y-72810671D01*
X93380480Y-72832850D01*
X93367868Y-72853893D01*
X93353253Y-72873599D01*
X93336777Y-72891777D01*
X93318599Y-72908253D01*
X93298893Y-72922868D01*
X93277850Y-72935480D01*
X93255671Y-72945970D01*
X93232572Y-72954235D01*
X93208773Y-72960196D01*
X93184505Y-72963796D01*
X93160001Y-72965000D01*
X92259999Y-72965000D01*
X92235495Y-72963796D01*
X92211227Y-72960196D01*
X92187428Y-72954235D01*
X92164329Y-72945970D01*
X92142150Y-72935480D01*
X92121107Y-72922868D01*
X92101401Y-72908253D01*
X92083223Y-72891777D01*
X92066747Y-72873599D01*
X92052132Y-72853893D01*
X92039520Y-72832850D01*
X92029030Y-72810671D01*
X92020765Y-72787572D01*
X92014804Y-72763773D01*
X92011204Y-72739505D01*
X92010000Y-72715001D01*
X92010000Y-72064999D01*
X92011204Y-72040495D01*
X92014804Y-72016227D01*
X92020765Y-71992428D01*
X92029030Y-71969329D01*
X92039520Y-71947150D01*
X92052132Y-71926107D01*
X92066747Y-71906401D01*
X92083223Y-71888223D01*
X92101401Y-71871747D01*
X92121107Y-71857132D01*
X92142150Y-71844520D01*
X92164329Y-71834030D01*
X92187428Y-71825765D01*
X92211227Y-71819804D01*
X92235495Y-71816204D01*
X92259999Y-71815000D01*
X93160001Y-71815000D01*
X93184505Y-71816204D01*
X93184505Y-71816204D01*
G37*
D14*
X92710000Y-72390000D03*
D13*
G36*
X91533505Y-123006204D02*
G01*
X91557773Y-123009804D01*
X91581572Y-123015765D01*
X91604671Y-123024030D01*
X91626850Y-123034520D01*
X91647893Y-123047132D01*
X91667599Y-123061747D01*
X91685777Y-123078223D01*
X91702253Y-123096401D01*
X91716868Y-123116107D01*
X91729480Y-123137150D01*
X91739970Y-123159329D01*
X91748235Y-123182428D01*
X91754196Y-123206227D01*
X91757796Y-123230495D01*
X91759000Y-123254999D01*
X91759000Y-123905001D01*
X91757796Y-123929505D01*
X91754196Y-123953773D01*
X91748235Y-123977572D01*
X91739970Y-124000671D01*
X91729480Y-124022850D01*
X91716868Y-124043893D01*
X91702253Y-124063599D01*
X91685777Y-124081777D01*
X91667599Y-124098253D01*
X91647893Y-124112868D01*
X91626850Y-124125480D01*
X91604671Y-124135970D01*
X91581572Y-124144235D01*
X91557773Y-124150196D01*
X91533505Y-124153796D01*
X91509001Y-124155000D01*
X90608999Y-124155000D01*
X90584495Y-124153796D01*
X90560227Y-124150196D01*
X90536428Y-124144235D01*
X90513329Y-124135970D01*
X90491150Y-124125480D01*
X90470107Y-124112868D01*
X90450401Y-124098253D01*
X90432223Y-124081777D01*
X90415747Y-124063599D01*
X90401132Y-124043893D01*
X90388520Y-124022850D01*
X90378030Y-124000671D01*
X90369765Y-123977572D01*
X90363804Y-123953773D01*
X90360204Y-123929505D01*
X90359000Y-123905001D01*
X90359000Y-123254999D01*
X90360204Y-123230495D01*
X90363804Y-123206227D01*
X90369765Y-123182428D01*
X90378030Y-123159329D01*
X90388520Y-123137150D01*
X90401132Y-123116107D01*
X90415747Y-123096401D01*
X90432223Y-123078223D01*
X90450401Y-123061747D01*
X90470107Y-123047132D01*
X90491150Y-123034520D01*
X90513329Y-123024030D01*
X90536428Y-123015765D01*
X90560227Y-123009804D01*
X90584495Y-123006204D01*
X90608999Y-123005000D01*
X91509001Y-123005000D01*
X91533505Y-123006204D01*
X91533505Y-123006204D01*
G37*
D14*
X91059000Y-123580000D03*
D13*
G36*
X91533505Y-120956204D02*
G01*
X91557773Y-120959804D01*
X91581572Y-120965765D01*
X91604671Y-120974030D01*
X91626850Y-120984520D01*
X91647893Y-120997132D01*
X91667599Y-121011747D01*
X91685777Y-121028223D01*
X91702253Y-121046401D01*
X91716868Y-121066107D01*
X91729480Y-121087150D01*
X91739970Y-121109329D01*
X91748235Y-121132428D01*
X91754196Y-121156227D01*
X91757796Y-121180495D01*
X91759000Y-121204999D01*
X91759000Y-121855001D01*
X91757796Y-121879505D01*
X91754196Y-121903773D01*
X91748235Y-121927572D01*
X91739970Y-121950671D01*
X91729480Y-121972850D01*
X91716868Y-121993893D01*
X91702253Y-122013599D01*
X91685777Y-122031777D01*
X91667599Y-122048253D01*
X91647893Y-122062868D01*
X91626850Y-122075480D01*
X91604671Y-122085970D01*
X91581572Y-122094235D01*
X91557773Y-122100196D01*
X91533505Y-122103796D01*
X91509001Y-122105000D01*
X90608999Y-122105000D01*
X90584495Y-122103796D01*
X90560227Y-122100196D01*
X90536428Y-122094235D01*
X90513329Y-122085970D01*
X90491150Y-122075480D01*
X90470107Y-122062868D01*
X90450401Y-122048253D01*
X90432223Y-122031777D01*
X90415747Y-122013599D01*
X90401132Y-121993893D01*
X90388520Y-121972850D01*
X90378030Y-121950671D01*
X90369765Y-121927572D01*
X90363804Y-121903773D01*
X90360204Y-121879505D01*
X90359000Y-121855001D01*
X90359000Y-121204999D01*
X90360204Y-121180495D01*
X90363804Y-121156227D01*
X90369765Y-121132428D01*
X90378030Y-121109329D01*
X90388520Y-121087150D01*
X90401132Y-121066107D01*
X90415747Y-121046401D01*
X90432223Y-121028223D01*
X90450401Y-121011747D01*
X90470107Y-120997132D01*
X90491150Y-120984520D01*
X90513329Y-120974030D01*
X90536428Y-120965765D01*
X90560227Y-120959804D01*
X90584495Y-120956204D01*
X90608999Y-120955000D01*
X91509001Y-120955000D01*
X91533505Y-120956204D01*
X91533505Y-120956204D01*
G37*
D14*
X91059000Y-121530000D03*
D13*
G36*
X97121505Y-123006204D02*
G01*
X97145773Y-123009804D01*
X97169572Y-123015765D01*
X97192671Y-123024030D01*
X97214850Y-123034520D01*
X97235893Y-123047132D01*
X97255599Y-123061747D01*
X97273777Y-123078223D01*
X97290253Y-123096401D01*
X97304868Y-123116107D01*
X97317480Y-123137150D01*
X97327970Y-123159329D01*
X97336235Y-123182428D01*
X97342196Y-123206227D01*
X97345796Y-123230495D01*
X97347000Y-123254999D01*
X97347000Y-123905001D01*
X97345796Y-123929505D01*
X97342196Y-123953773D01*
X97336235Y-123977572D01*
X97327970Y-124000671D01*
X97317480Y-124022850D01*
X97304868Y-124043893D01*
X97290253Y-124063599D01*
X97273777Y-124081777D01*
X97255599Y-124098253D01*
X97235893Y-124112868D01*
X97214850Y-124125480D01*
X97192671Y-124135970D01*
X97169572Y-124144235D01*
X97145773Y-124150196D01*
X97121505Y-124153796D01*
X97097001Y-124155000D01*
X96196999Y-124155000D01*
X96172495Y-124153796D01*
X96148227Y-124150196D01*
X96124428Y-124144235D01*
X96101329Y-124135970D01*
X96079150Y-124125480D01*
X96058107Y-124112868D01*
X96038401Y-124098253D01*
X96020223Y-124081777D01*
X96003747Y-124063599D01*
X95989132Y-124043893D01*
X95976520Y-124022850D01*
X95966030Y-124000671D01*
X95957765Y-123977572D01*
X95951804Y-123953773D01*
X95948204Y-123929505D01*
X95947000Y-123905001D01*
X95947000Y-123254999D01*
X95948204Y-123230495D01*
X95951804Y-123206227D01*
X95957765Y-123182428D01*
X95966030Y-123159329D01*
X95976520Y-123137150D01*
X95989132Y-123116107D01*
X96003747Y-123096401D01*
X96020223Y-123078223D01*
X96038401Y-123061747D01*
X96058107Y-123047132D01*
X96079150Y-123034520D01*
X96101329Y-123024030D01*
X96124428Y-123015765D01*
X96148227Y-123009804D01*
X96172495Y-123006204D01*
X96196999Y-123005000D01*
X97097001Y-123005000D01*
X97121505Y-123006204D01*
X97121505Y-123006204D01*
G37*
D14*
X96647000Y-123580000D03*
D13*
G36*
X97121505Y-120956204D02*
G01*
X97145773Y-120959804D01*
X97169572Y-120965765D01*
X97192671Y-120974030D01*
X97214850Y-120984520D01*
X97235893Y-120997132D01*
X97255599Y-121011747D01*
X97273777Y-121028223D01*
X97290253Y-121046401D01*
X97304868Y-121066107D01*
X97317480Y-121087150D01*
X97327970Y-121109329D01*
X97336235Y-121132428D01*
X97342196Y-121156227D01*
X97345796Y-121180495D01*
X97347000Y-121204999D01*
X97347000Y-121855001D01*
X97345796Y-121879505D01*
X97342196Y-121903773D01*
X97336235Y-121927572D01*
X97327970Y-121950671D01*
X97317480Y-121972850D01*
X97304868Y-121993893D01*
X97290253Y-122013599D01*
X97273777Y-122031777D01*
X97255599Y-122048253D01*
X97235893Y-122062868D01*
X97214850Y-122075480D01*
X97192671Y-122085970D01*
X97169572Y-122094235D01*
X97145773Y-122100196D01*
X97121505Y-122103796D01*
X97097001Y-122105000D01*
X96196999Y-122105000D01*
X96172495Y-122103796D01*
X96148227Y-122100196D01*
X96124428Y-122094235D01*
X96101329Y-122085970D01*
X96079150Y-122075480D01*
X96058107Y-122062868D01*
X96038401Y-122048253D01*
X96020223Y-122031777D01*
X96003747Y-122013599D01*
X95989132Y-121993893D01*
X95976520Y-121972850D01*
X95966030Y-121950671D01*
X95957765Y-121927572D01*
X95951804Y-121903773D01*
X95948204Y-121879505D01*
X95947000Y-121855001D01*
X95947000Y-121204999D01*
X95948204Y-121180495D01*
X95951804Y-121156227D01*
X95957765Y-121132428D01*
X95966030Y-121109329D01*
X95976520Y-121087150D01*
X95989132Y-121066107D01*
X96003747Y-121046401D01*
X96020223Y-121028223D01*
X96038401Y-121011747D01*
X96058107Y-120997132D01*
X96079150Y-120984520D01*
X96101329Y-120974030D01*
X96124428Y-120965765D01*
X96148227Y-120959804D01*
X96172495Y-120956204D01*
X96196999Y-120955000D01*
X97097001Y-120955000D01*
X97121505Y-120956204D01*
X97121505Y-120956204D01*
G37*
D14*
X96647000Y-121530000D03*
D13*
G36*
X109567505Y-123006204D02*
G01*
X109591773Y-123009804D01*
X109615572Y-123015765D01*
X109638671Y-123024030D01*
X109660850Y-123034520D01*
X109681893Y-123047132D01*
X109701599Y-123061747D01*
X109719777Y-123078223D01*
X109736253Y-123096401D01*
X109750868Y-123116107D01*
X109763480Y-123137150D01*
X109773970Y-123159329D01*
X109782235Y-123182428D01*
X109788196Y-123206227D01*
X109791796Y-123230495D01*
X109793000Y-123254999D01*
X109793000Y-123905001D01*
X109791796Y-123929505D01*
X109788196Y-123953773D01*
X109782235Y-123977572D01*
X109773970Y-124000671D01*
X109763480Y-124022850D01*
X109750868Y-124043893D01*
X109736253Y-124063599D01*
X109719777Y-124081777D01*
X109701599Y-124098253D01*
X109681893Y-124112868D01*
X109660850Y-124125480D01*
X109638671Y-124135970D01*
X109615572Y-124144235D01*
X109591773Y-124150196D01*
X109567505Y-124153796D01*
X109543001Y-124155000D01*
X108642999Y-124155000D01*
X108618495Y-124153796D01*
X108594227Y-124150196D01*
X108570428Y-124144235D01*
X108547329Y-124135970D01*
X108525150Y-124125480D01*
X108504107Y-124112868D01*
X108484401Y-124098253D01*
X108466223Y-124081777D01*
X108449747Y-124063599D01*
X108435132Y-124043893D01*
X108422520Y-124022850D01*
X108412030Y-124000671D01*
X108403765Y-123977572D01*
X108397804Y-123953773D01*
X108394204Y-123929505D01*
X108393000Y-123905001D01*
X108393000Y-123254999D01*
X108394204Y-123230495D01*
X108397804Y-123206227D01*
X108403765Y-123182428D01*
X108412030Y-123159329D01*
X108422520Y-123137150D01*
X108435132Y-123116107D01*
X108449747Y-123096401D01*
X108466223Y-123078223D01*
X108484401Y-123061747D01*
X108504107Y-123047132D01*
X108525150Y-123034520D01*
X108547329Y-123024030D01*
X108570428Y-123015765D01*
X108594227Y-123009804D01*
X108618495Y-123006204D01*
X108642999Y-123005000D01*
X109543001Y-123005000D01*
X109567505Y-123006204D01*
X109567505Y-123006204D01*
G37*
D14*
X109093000Y-123580000D03*
D13*
G36*
X109567505Y-120956204D02*
G01*
X109591773Y-120959804D01*
X109615572Y-120965765D01*
X109638671Y-120974030D01*
X109660850Y-120984520D01*
X109681893Y-120997132D01*
X109701599Y-121011747D01*
X109719777Y-121028223D01*
X109736253Y-121046401D01*
X109750868Y-121066107D01*
X109763480Y-121087150D01*
X109773970Y-121109329D01*
X109782235Y-121132428D01*
X109788196Y-121156227D01*
X109791796Y-121180495D01*
X109793000Y-121204999D01*
X109793000Y-121855001D01*
X109791796Y-121879505D01*
X109788196Y-121903773D01*
X109782235Y-121927572D01*
X109773970Y-121950671D01*
X109763480Y-121972850D01*
X109750868Y-121993893D01*
X109736253Y-122013599D01*
X109719777Y-122031777D01*
X109701599Y-122048253D01*
X109681893Y-122062868D01*
X109660850Y-122075480D01*
X109638671Y-122085970D01*
X109615572Y-122094235D01*
X109591773Y-122100196D01*
X109567505Y-122103796D01*
X109543001Y-122105000D01*
X108642999Y-122105000D01*
X108618495Y-122103796D01*
X108594227Y-122100196D01*
X108570428Y-122094235D01*
X108547329Y-122085970D01*
X108525150Y-122075480D01*
X108504107Y-122062868D01*
X108484401Y-122048253D01*
X108466223Y-122031777D01*
X108449747Y-122013599D01*
X108435132Y-121993893D01*
X108422520Y-121972850D01*
X108412030Y-121950671D01*
X108403765Y-121927572D01*
X108397804Y-121903773D01*
X108394204Y-121879505D01*
X108393000Y-121855001D01*
X108393000Y-121204999D01*
X108394204Y-121180495D01*
X108397804Y-121156227D01*
X108403765Y-121132428D01*
X108412030Y-121109329D01*
X108422520Y-121087150D01*
X108435132Y-121066107D01*
X108449747Y-121046401D01*
X108466223Y-121028223D01*
X108484401Y-121011747D01*
X108504107Y-120997132D01*
X108525150Y-120984520D01*
X108547329Y-120974030D01*
X108570428Y-120965765D01*
X108594227Y-120959804D01*
X108618495Y-120956204D01*
X108642999Y-120955000D01*
X109543001Y-120955000D01*
X109567505Y-120956204D01*
X109567505Y-120956204D01*
G37*
D14*
X109093000Y-121530000D03*
D13*
G36*
X108424505Y-69766204D02*
G01*
X108448773Y-69769804D01*
X108472572Y-69775765D01*
X108495671Y-69784030D01*
X108517850Y-69794520D01*
X108538893Y-69807132D01*
X108558599Y-69821747D01*
X108576777Y-69838223D01*
X108593253Y-69856401D01*
X108607868Y-69876107D01*
X108620480Y-69897150D01*
X108630970Y-69919329D01*
X108639235Y-69942428D01*
X108645196Y-69966227D01*
X108648796Y-69990495D01*
X108650000Y-70014999D01*
X108650000Y-70665001D01*
X108648796Y-70689505D01*
X108645196Y-70713773D01*
X108639235Y-70737572D01*
X108630970Y-70760671D01*
X108620480Y-70782850D01*
X108607868Y-70803893D01*
X108593253Y-70823599D01*
X108576777Y-70841777D01*
X108558599Y-70858253D01*
X108538893Y-70872868D01*
X108517850Y-70885480D01*
X108495671Y-70895970D01*
X108472572Y-70904235D01*
X108448773Y-70910196D01*
X108424505Y-70913796D01*
X108400001Y-70915000D01*
X107499999Y-70915000D01*
X107475495Y-70913796D01*
X107451227Y-70910196D01*
X107427428Y-70904235D01*
X107404329Y-70895970D01*
X107382150Y-70885480D01*
X107361107Y-70872868D01*
X107341401Y-70858253D01*
X107323223Y-70841777D01*
X107306747Y-70823599D01*
X107292132Y-70803893D01*
X107279520Y-70782850D01*
X107269030Y-70760671D01*
X107260765Y-70737572D01*
X107254804Y-70713773D01*
X107251204Y-70689505D01*
X107250000Y-70665001D01*
X107250000Y-70014999D01*
X107251204Y-69990495D01*
X107254804Y-69966227D01*
X107260765Y-69942428D01*
X107269030Y-69919329D01*
X107279520Y-69897150D01*
X107292132Y-69876107D01*
X107306747Y-69856401D01*
X107323223Y-69838223D01*
X107341401Y-69821747D01*
X107361107Y-69807132D01*
X107382150Y-69794520D01*
X107404329Y-69784030D01*
X107427428Y-69775765D01*
X107451227Y-69769804D01*
X107475495Y-69766204D01*
X107499999Y-69765000D01*
X108400001Y-69765000D01*
X108424505Y-69766204D01*
X108424505Y-69766204D01*
G37*
D14*
X107950000Y-70340000D03*
D13*
G36*
X108424505Y-71816204D02*
G01*
X108448773Y-71819804D01*
X108472572Y-71825765D01*
X108495671Y-71834030D01*
X108517850Y-71844520D01*
X108538893Y-71857132D01*
X108558599Y-71871747D01*
X108576777Y-71888223D01*
X108593253Y-71906401D01*
X108607868Y-71926107D01*
X108620480Y-71947150D01*
X108630970Y-71969329D01*
X108639235Y-71992428D01*
X108645196Y-72016227D01*
X108648796Y-72040495D01*
X108650000Y-72064999D01*
X108650000Y-72715001D01*
X108648796Y-72739505D01*
X108645196Y-72763773D01*
X108639235Y-72787572D01*
X108630970Y-72810671D01*
X108620480Y-72832850D01*
X108607868Y-72853893D01*
X108593253Y-72873599D01*
X108576777Y-72891777D01*
X108558599Y-72908253D01*
X108538893Y-72922868D01*
X108517850Y-72935480D01*
X108495671Y-72945970D01*
X108472572Y-72954235D01*
X108448773Y-72960196D01*
X108424505Y-72963796D01*
X108400001Y-72965000D01*
X107499999Y-72965000D01*
X107475495Y-72963796D01*
X107451227Y-72960196D01*
X107427428Y-72954235D01*
X107404329Y-72945970D01*
X107382150Y-72935480D01*
X107361107Y-72922868D01*
X107341401Y-72908253D01*
X107323223Y-72891777D01*
X107306747Y-72873599D01*
X107292132Y-72853893D01*
X107279520Y-72832850D01*
X107269030Y-72810671D01*
X107260765Y-72787572D01*
X107254804Y-72763773D01*
X107251204Y-72739505D01*
X107250000Y-72715001D01*
X107250000Y-72064999D01*
X107251204Y-72040495D01*
X107254804Y-72016227D01*
X107260765Y-71992428D01*
X107269030Y-71969329D01*
X107279520Y-71947150D01*
X107292132Y-71926107D01*
X107306747Y-71906401D01*
X107323223Y-71888223D01*
X107341401Y-71871747D01*
X107361107Y-71857132D01*
X107382150Y-71844520D01*
X107404329Y-71834030D01*
X107427428Y-71825765D01*
X107451227Y-71819804D01*
X107475495Y-71816204D01*
X107499999Y-71815000D01*
X108400001Y-71815000D01*
X108424505Y-71816204D01*
X108424505Y-71816204D01*
G37*
D14*
X107950000Y-72390000D03*
D13*
G36*
X103344505Y-69766204D02*
G01*
X103368773Y-69769804D01*
X103392572Y-69775765D01*
X103415671Y-69784030D01*
X103437850Y-69794520D01*
X103458893Y-69807132D01*
X103478599Y-69821747D01*
X103496777Y-69838223D01*
X103513253Y-69856401D01*
X103527868Y-69876107D01*
X103540480Y-69897150D01*
X103550970Y-69919329D01*
X103559235Y-69942428D01*
X103565196Y-69966227D01*
X103568796Y-69990495D01*
X103570000Y-70014999D01*
X103570000Y-70665001D01*
X103568796Y-70689505D01*
X103565196Y-70713773D01*
X103559235Y-70737572D01*
X103550970Y-70760671D01*
X103540480Y-70782850D01*
X103527868Y-70803893D01*
X103513253Y-70823599D01*
X103496777Y-70841777D01*
X103478599Y-70858253D01*
X103458893Y-70872868D01*
X103437850Y-70885480D01*
X103415671Y-70895970D01*
X103392572Y-70904235D01*
X103368773Y-70910196D01*
X103344505Y-70913796D01*
X103320001Y-70915000D01*
X102419999Y-70915000D01*
X102395495Y-70913796D01*
X102371227Y-70910196D01*
X102347428Y-70904235D01*
X102324329Y-70895970D01*
X102302150Y-70885480D01*
X102281107Y-70872868D01*
X102261401Y-70858253D01*
X102243223Y-70841777D01*
X102226747Y-70823599D01*
X102212132Y-70803893D01*
X102199520Y-70782850D01*
X102189030Y-70760671D01*
X102180765Y-70737572D01*
X102174804Y-70713773D01*
X102171204Y-70689505D01*
X102170000Y-70665001D01*
X102170000Y-70014999D01*
X102171204Y-69990495D01*
X102174804Y-69966227D01*
X102180765Y-69942428D01*
X102189030Y-69919329D01*
X102199520Y-69897150D01*
X102212132Y-69876107D01*
X102226747Y-69856401D01*
X102243223Y-69838223D01*
X102261401Y-69821747D01*
X102281107Y-69807132D01*
X102302150Y-69794520D01*
X102324329Y-69784030D01*
X102347428Y-69775765D01*
X102371227Y-69769804D01*
X102395495Y-69766204D01*
X102419999Y-69765000D01*
X103320001Y-69765000D01*
X103344505Y-69766204D01*
X103344505Y-69766204D01*
G37*
D14*
X102870000Y-70340000D03*
D13*
G36*
X103344505Y-71816204D02*
G01*
X103368773Y-71819804D01*
X103392572Y-71825765D01*
X103415671Y-71834030D01*
X103437850Y-71844520D01*
X103458893Y-71857132D01*
X103478599Y-71871747D01*
X103496777Y-71888223D01*
X103513253Y-71906401D01*
X103527868Y-71926107D01*
X103540480Y-71947150D01*
X103550970Y-71969329D01*
X103559235Y-71992428D01*
X103565196Y-72016227D01*
X103568796Y-72040495D01*
X103570000Y-72064999D01*
X103570000Y-72715001D01*
X103568796Y-72739505D01*
X103565196Y-72763773D01*
X103559235Y-72787572D01*
X103550970Y-72810671D01*
X103540480Y-72832850D01*
X103527868Y-72853893D01*
X103513253Y-72873599D01*
X103496777Y-72891777D01*
X103478599Y-72908253D01*
X103458893Y-72922868D01*
X103437850Y-72935480D01*
X103415671Y-72945970D01*
X103392572Y-72954235D01*
X103368773Y-72960196D01*
X103344505Y-72963796D01*
X103320001Y-72965000D01*
X102419999Y-72965000D01*
X102395495Y-72963796D01*
X102371227Y-72960196D01*
X102347428Y-72954235D01*
X102324329Y-72945970D01*
X102302150Y-72935480D01*
X102281107Y-72922868D01*
X102261401Y-72908253D01*
X102243223Y-72891777D01*
X102226747Y-72873599D01*
X102212132Y-72853893D01*
X102199520Y-72832850D01*
X102189030Y-72810671D01*
X102180765Y-72787572D01*
X102174804Y-72763773D01*
X102171204Y-72739505D01*
X102170000Y-72715001D01*
X102170000Y-72064999D01*
X102171204Y-72040495D01*
X102174804Y-72016227D01*
X102180765Y-71992428D01*
X102189030Y-71969329D01*
X102199520Y-71947150D01*
X102212132Y-71926107D01*
X102226747Y-71906401D01*
X102243223Y-71888223D01*
X102261401Y-71871747D01*
X102281107Y-71857132D01*
X102302150Y-71844520D01*
X102324329Y-71834030D01*
X102347428Y-71825765D01*
X102371227Y-71819804D01*
X102395495Y-71816204D01*
X102419999Y-71815000D01*
X103320001Y-71815000D01*
X103344505Y-71816204D01*
X103344505Y-71816204D01*
G37*
D14*
X102870000Y-72390000D03*
D13*
G36*
X102074505Y-116121204D02*
G01*
X102098773Y-116124804D01*
X102122572Y-116130765D01*
X102145671Y-116139030D01*
X102167850Y-116149520D01*
X102188893Y-116162132D01*
X102208599Y-116176747D01*
X102226777Y-116193223D01*
X102243253Y-116211401D01*
X102257868Y-116231107D01*
X102270480Y-116252150D01*
X102280970Y-116274329D01*
X102289235Y-116297428D01*
X102295196Y-116321227D01*
X102298796Y-116345495D01*
X102300000Y-116369999D01*
X102300000Y-117020001D01*
X102298796Y-117044505D01*
X102295196Y-117068773D01*
X102289235Y-117092572D01*
X102280970Y-117115671D01*
X102270480Y-117137850D01*
X102257868Y-117158893D01*
X102243253Y-117178599D01*
X102226777Y-117196777D01*
X102208599Y-117213253D01*
X102188893Y-117227868D01*
X102167850Y-117240480D01*
X102145671Y-117250970D01*
X102122572Y-117259235D01*
X102098773Y-117265196D01*
X102074505Y-117268796D01*
X102050001Y-117270000D01*
X101149999Y-117270000D01*
X101125495Y-117268796D01*
X101101227Y-117265196D01*
X101077428Y-117259235D01*
X101054329Y-117250970D01*
X101032150Y-117240480D01*
X101011107Y-117227868D01*
X100991401Y-117213253D01*
X100973223Y-117196777D01*
X100956747Y-117178599D01*
X100942132Y-117158893D01*
X100929520Y-117137850D01*
X100919030Y-117115671D01*
X100910765Y-117092572D01*
X100904804Y-117068773D01*
X100901204Y-117044505D01*
X100900000Y-117020001D01*
X100900000Y-116369999D01*
X100901204Y-116345495D01*
X100904804Y-116321227D01*
X100910765Y-116297428D01*
X100919030Y-116274329D01*
X100929520Y-116252150D01*
X100942132Y-116231107D01*
X100956747Y-116211401D01*
X100973223Y-116193223D01*
X100991401Y-116176747D01*
X101011107Y-116162132D01*
X101032150Y-116149520D01*
X101054329Y-116139030D01*
X101077428Y-116130765D01*
X101101227Y-116124804D01*
X101125495Y-116121204D01*
X101149999Y-116120000D01*
X102050001Y-116120000D01*
X102074505Y-116121204D01*
X102074505Y-116121204D01*
G37*
D14*
X101600000Y-116695000D03*
D13*
G36*
X102074505Y-118171204D02*
G01*
X102098773Y-118174804D01*
X102122572Y-118180765D01*
X102145671Y-118189030D01*
X102167850Y-118199520D01*
X102188893Y-118212132D01*
X102208599Y-118226747D01*
X102226777Y-118243223D01*
X102243253Y-118261401D01*
X102257868Y-118281107D01*
X102270480Y-118302150D01*
X102280970Y-118324329D01*
X102289235Y-118347428D01*
X102295196Y-118371227D01*
X102298796Y-118395495D01*
X102300000Y-118419999D01*
X102300000Y-119070001D01*
X102298796Y-119094505D01*
X102295196Y-119118773D01*
X102289235Y-119142572D01*
X102280970Y-119165671D01*
X102270480Y-119187850D01*
X102257868Y-119208893D01*
X102243253Y-119228599D01*
X102226777Y-119246777D01*
X102208599Y-119263253D01*
X102188893Y-119277868D01*
X102167850Y-119290480D01*
X102145671Y-119300970D01*
X102122572Y-119309235D01*
X102098773Y-119315196D01*
X102074505Y-119318796D01*
X102050001Y-119320000D01*
X101149999Y-119320000D01*
X101125495Y-119318796D01*
X101101227Y-119315196D01*
X101077428Y-119309235D01*
X101054329Y-119300970D01*
X101032150Y-119290480D01*
X101011107Y-119277868D01*
X100991401Y-119263253D01*
X100973223Y-119246777D01*
X100956747Y-119228599D01*
X100942132Y-119208893D01*
X100929520Y-119187850D01*
X100919030Y-119165671D01*
X100910765Y-119142572D01*
X100904804Y-119118773D01*
X100901204Y-119094505D01*
X100900000Y-119070001D01*
X100900000Y-118419999D01*
X100901204Y-118395495D01*
X100904804Y-118371227D01*
X100910765Y-118347428D01*
X100919030Y-118324329D01*
X100929520Y-118302150D01*
X100942132Y-118281107D01*
X100956747Y-118261401D01*
X100973223Y-118243223D01*
X100991401Y-118226747D01*
X101011107Y-118212132D01*
X101032150Y-118199520D01*
X101054329Y-118189030D01*
X101077428Y-118180765D01*
X101101227Y-118174804D01*
X101125495Y-118171204D01*
X101149999Y-118170000D01*
X102050001Y-118170000D01*
X102074505Y-118171204D01*
X102074505Y-118171204D01*
G37*
D14*
X101600000Y-118745000D03*
D13*
G36*
X104614505Y-116121204D02*
G01*
X104638773Y-116124804D01*
X104662572Y-116130765D01*
X104685671Y-116139030D01*
X104707850Y-116149520D01*
X104728893Y-116162132D01*
X104748599Y-116176747D01*
X104766777Y-116193223D01*
X104783253Y-116211401D01*
X104797868Y-116231107D01*
X104810480Y-116252150D01*
X104820970Y-116274329D01*
X104829235Y-116297428D01*
X104835196Y-116321227D01*
X104838796Y-116345495D01*
X104840000Y-116369999D01*
X104840000Y-117020001D01*
X104838796Y-117044505D01*
X104835196Y-117068773D01*
X104829235Y-117092572D01*
X104820970Y-117115671D01*
X104810480Y-117137850D01*
X104797868Y-117158893D01*
X104783253Y-117178599D01*
X104766777Y-117196777D01*
X104748599Y-117213253D01*
X104728893Y-117227868D01*
X104707850Y-117240480D01*
X104685671Y-117250970D01*
X104662572Y-117259235D01*
X104638773Y-117265196D01*
X104614505Y-117268796D01*
X104590001Y-117270000D01*
X103689999Y-117270000D01*
X103665495Y-117268796D01*
X103641227Y-117265196D01*
X103617428Y-117259235D01*
X103594329Y-117250970D01*
X103572150Y-117240480D01*
X103551107Y-117227868D01*
X103531401Y-117213253D01*
X103513223Y-117196777D01*
X103496747Y-117178599D01*
X103482132Y-117158893D01*
X103469520Y-117137850D01*
X103459030Y-117115671D01*
X103450765Y-117092572D01*
X103444804Y-117068773D01*
X103441204Y-117044505D01*
X103440000Y-117020001D01*
X103440000Y-116369999D01*
X103441204Y-116345495D01*
X103444804Y-116321227D01*
X103450765Y-116297428D01*
X103459030Y-116274329D01*
X103469520Y-116252150D01*
X103482132Y-116231107D01*
X103496747Y-116211401D01*
X103513223Y-116193223D01*
X103531401Y-116176747D01*
X103551107Y-116162132D01*
X103572150Y-116149520D01*
X103594329Y-116139030D01*
X103617428Y-116130765D01*
X103641227Y-116124804D01*
X103665495Y-116121204D01*
X103689999Y-116120000D01*
X104590001Y-116120000D01*
X104614505Y-116121204D01*
X104614505Y-116121204D01*
G37*
D14*
X104140000Y-116695000D03*
D13*
G36*
X104614505Y-118171204D02*
G01*
X104638773Y-118174804D01*
X104662572Y-118180765D01*
X104685671Y-118189030D01*
X104707850Y-118199520D01*
X104728893Y-118212132D01*
X104748599Y-118226747D01*
X104766777Y-118243223D01*
X104783253Y-118261401D01*
X104797868Y-118281107D01*
X104810480Y-118302150D01*
X104820970Y-118324329D01*
X104829235Y-118347428D01*
X104835196Y-118371227D01*
X104838796Y-118395495D01*
X104840000Y-118419999D01*
X104840000Y-119070001D01*
X104838796Y-119094505D01*
X104835196Y-119118773D01*
X104829235Y-119142572D01*
X104820970Y-119165671D01*
X104810480Y-119187850D01*
X104797868Y-119208893D01*
X104783253Y-119228599D01*
X104766777Y-119246777D01*
X104748599Y-119263253D01*
X104728893Y-119277868D01*
X104707850Y-119290480D01*
X104685671Y-119300970D01*
X104662572Y-119309235D01*
X104638773Y-119315196D01*
X104614505Y-119318796D01*
X104590001Y-119320000D01*
X103689999Y-119320000D01*
X103665495Y-119318796D01*
X103641227Y-119315196D01*
X103617428Y-119309235D01*
X103594329Y-119300970D01*
X103572150Y-119290480D01*
X103551107Y-119277868D01*
X103531401Y-119263253D01*
X103513223Y-119246777D01*
X103496747Y-119228599D01*
X103482132Y-119208893D01*
X103469520Y-119187850D01*
X103459030Y-119165671D01*
X103450765Y-119142572D01*
X103444804Y-119118773D01*
X103441204Y-119094505D01*
X103440000Y-119070001D01*
X103440000Y-118419999D01*
X103441204Y-118395495D01*
X103444804Y-118371227D01*
X103450765Y-118347428D01*
X103459030Y-118324329D01*
X103469520Y-118302150D01*
X103482132Y-118281107D01*
X103496747Y-118261401D01*
X103513223Y-118243223D01*
X103531401Y-118226747D01*
X103551107Y-118212132D01*
X103572150Y-118199520D01*
X103594329Y-118189030D01*
X103617428Y-118180765D01*
X103641227Y-118174804D01*
X103665495Y-118171204D01*
X103689999Y-118170000D01*
X104590001Y-118170000D01*
X104614505Y-118171204D01*
X104614505Y-118171204D01*
G37*
D14*
X104140000Y-118745000D03*
D13*
G36*
X99534505Y-118171204D02*
G01*
X99558773Y-118174804D01*
X99582572Y-118180765D01*
X99605671Y-118189030D01*
X99627850Y-118199520D01*
X99648893Y-118212132D01*
X99668599Y-118226747D01*
X99686777Y-118243223D01*
X99703253Y-118261401D01*
X99717868Y-118281107D01*
X99730480Y-118302150D01*
X99740970Y-118324329D01*
X99749235Y-118347428D01*
X99755196Y-118371227D01*
X99758796Y-118395495D01*
X99760000Y-118419999D01*
X99760000Y-119070001D01*
X99758796Y-119094505D01*
X99755196Y-119118773D01*
X99749235Y-119142572D01*
X99740970Y-119165671D01*
X99730480Y-119187850D01*
X99717868Y-119208893D01*
X99703253Y-119228599D01*
X99686777Y-119246777D01*
X99668599Y-119263253D01*
X99648893Y-119277868D01*
X99627850Y-119290480D01*
X99605671Y-119300970D01*
X99582572Y-119309235D01*
X99558773Y-119315196D01*
X99534505Y-119318796D01*
X99510001Y-119320000D01*
X98609999Y-119320000D01*
X98585495Y-119318796D01*
X98561227Y-119315196D01*
X98537428Y-119309235D01*
X98514329Y-119300970D01*
X98492150Y-119290480D01*
X98471107Y-119277868D01*
X98451401Y-119263253D01*
X98433223Y-119246777D01*
X98416747Y-119228599D01*
X98402132Y-119208893D01*
X98389520Y-119187850D01*
X98379030Y-119165671D01*
X98370765Y-119142572D01*
X98364804Y-119118773D01*
X98361204Y-119094505D01*
X98360000Y-119070001D01*
X98360000Y-118419999D01*
X98361204Y-118395495D01*
X98364804Y-118371227D01*
X98370765Y-118347428D01*
X98379030Y-118324329D01*
X98389520Y-118302150D01*
X98402132Y-118281107D01*
X98416747Y-118261401D01*
X98433223Y-118243223D01*
X98451401Y-118226747D01*
X98471107Y-118212132D01*
X98492150Y-118199520D01*
X98514329Y-118189030D01*
X98537428Y-118180765D01*
X98561227Y-118174804D01*
X98585495Y-118171204D01*
X98609999Y-118170000D01*
X99510001Y-118170000D01*
X99534505Y-118171204D01*
X99534505Y-118171204D01*
G37*
D14*
X99060000Y-118745000D03*
D13*
G36*
X99534505Y-116121204D02*
G01*
X99558773Y-116124804D01*
X99582572Y-116130765D01*
X99605671Y-116139030D01*
X99627850Y-116149520D01*
X99648893Y-116162132D01*
X99668599Y-116176747D01*
X99686777Y-116193223D01*
X99703253Y-116211401D01*
X99717868Y-116231107D01*
X99730480Y-116252150D01*
X99740970Y-116274329D01*
X99749235Y-116297428D01*
X99755196Y-116321227D01*
X99758796Y-116345495D01*
X99760000Y-116369999D01*
X99760000Y-117020001D01*
X99758796Y-117044505D01*
X99755196Y-117068773D01*
X99749235Y-117092572D01*
X99740970Y-117115671D01*
X99730480Y-117137850D01*
X99717868Y-117158893D01*
X99703253Y-117178599D01*
X99686777Y-117196777D01*
X99668599Y-117213253D01*
X99648893Y-117227868D01*
X99627850Y-117240480D01*
X99605671Y-117250970D01*
X99582572Y-117259235D01*
X99558773Y-117265196D01*
X99534505Y-117268796D01*
X99510001Y-117270000D01*
X98609999Y-117270000D01*
X98585495Y-117268796D01*
X98561227Y-117265196D01*
X98537428Y-117259235D01*
X98514329Y-117250970D01*
X98492150Y-117240480D01*
X98471107Y-117227868D01*
X98451401Y-117213253D01*
X98433223Y-117196777D01*
X98416747Y-117178599D01*
X98402132Y-117158893D01*
X98389520Y-117137850D01*
X98379030Y-117115671D01*
X98370765Y-117092572D01*
X98364804Y-117068773D01*
X98361204Y-117044505D01*
X98360000Y-117020001D01*
X98360000Y-116369999D01*
X98361204Y-116345495D01*
X98364804Y-116321227D01*
X98370765Y-116297428D01*
X98379030Y-116274329D01*
X98389520Y-116252150D01*
X98402132Y-116231107D01*
X98416747Y-116211401D01*
X98433223Y-116193223D01*
X98451401Y-116176747D01*
X98471107Y-116162132D01*
X98492150Y-116149520D01*
X98514329Y-116139030D01*
X98537428Y-116130765D01*
X98561227Y-116124804D01*
X98585495Y-116121204D01*
X98609999Y-116120000D01*
X99510001Y-116120000D01*
X99534505Y-116121204D01*
X99534505Y-116121204D01*
G37*
D14*
X99060000Y-116695000D03*
D13*
G36*
X112742505Y-123006204D02*
G01*
X112766773Y-123009804D01*
X112790572Y-123015765D01*
X112813671Y-123024030D01*
X112835850Y-123034520D01*
X112856893Y-123047132D01*
X112876599Y-123061747D01*
X112894777Y-123078223D01*
X112911253Y-123096401D01*
X112925868Y-123116107D01*
X112938480Y-123137150D01*
X112948970Y-123159329D01*
X112957235Y-123182428D01*
X112963196Y-123206227D01*
X112966796Y-123230495D01*
X112968000Y-123254999D01*
X112968000Y-123905001D01*
X112966796Y-123929505D01*
X112963196Y-123953773D01*
X112957235Y-123977572D01*
X112948970Y-124000671D01*
X112938480Y-124022850D01*
X112925868Y-124043893D01*
X112911253Y-124063599D01*
X112894777Y-124081777D01*
X112876599Y-124098253D01*
X112856893Y-124112868D01*
X112835850Y-124125480D01*
X112813671Y-124135970D01*
X112790572Y-124144235D01*
X112766773Y-124150196D01*
X112742505Y-124153796D01*
X112718001Y-124155000D01*
X111817999Y-124155000D01*
X111793495Y-124153796D01*
X111769227Y-124150196D01*
X111745428Y-124144235D01*
X111722329Y-124135970D01*
X111700150Y-124125480D01*
X111679107Y-124112868D01*
X111659401Y-124098253D01*
X111641223Y-124081777D01*
X111624747Y-124063599D01*
X111610132Y-124043893D01*
X111597520Y-124022850D01*
X111587030Y-124000671D01*
X111578765Y-123977572D01*
X111572804Y-123953773D01*
X111569204Y-123929505D01*
X111568000Y-123905001D01*
X111568000Y-123254999D01*
X111569204Y-123230495D01*
X111572804Y-123206227D01*
X111578765Y-123182428D01*
X111587030Y-123159329D01*
X111597520Y-123137150D01*
X111610132Y-123116107D01*
X111624747Y-123096401D01*
X111641223Y-123078223D01*
X111659401Y-123061747D01*
X111679107Y-123047132D01*
X111700150Y-123034520D01*
X111722329Y-123024030D01*
X111745428Y-123015765D01*
X111769227Y-123009804D01*
X111793495Y-123006204D01*
X111817999Y-123005000D01*
X112718001Y-123005000D01*
X112742505Y-123006204D01*
X112742505Y-123006204D01*
G37*
D14*
X112268000Y-123580000D03*
D13*
G36*
X112742505Y-120956204D02*
G01*
X112766773Y-120959804D01*
X112790572Y-120965765D01*
X112813671Y-120974030D01*
X112835850Y-120984520D01*
X112856893Y-120997132D01*
X112876599Y-121011747D01*
X112894777Y-121028223D01*
X112911253Y-121046401D01*
X112925868Y-121066107D01*
X112938480Y-121087150D01*
X112948970Y-121109329D01*
X112957235Y-121132428D01*
X112963196Y-121156227D01*
X112966796Y-121180495D01*
X112968000Y-121204999D01*
X112968000Y-121855001D01*
X112966796Y-121879505D01*
X112963196Y-121903773D01*
X112957235Y-121927572D01*
X112948970Y-121950671D01*
X112938480Y-121972850D01*
X112925868Y-121993893D01*
X112911253Y-122013599D01*
X112894777Y-122031777D01*
X112876599Y-122048253D01*
X112856893Y-122062868D01*
X112835850Y-122075480D01*
X112813671Y-122085970D01*
X112790572Y-122094235D01*
X112766773Y-122100196D01*
X112742505Y-122103796D01*
X112718001Y-122105000D01*
X111817999Y-122105000D01*
X111793495Y-122103796D01*
X111769227Y-122100196D01*
X111745428Y-122094235D01*
X111722329Y-122085970D01*
X111700150Y-122075480D01*
X111679107Y-122062868D01*
X111659401Y-122048253D01*
X111641223Y-122031777D01*
X111624747Y-122013599D01*
X111610132Y-121993893D01*
X111597520Y-121972850D01*
X111587030Y-121950671D01*
X111578765Y-121927572D01*
X111572804Y-121903773D01*
X111569204Y-121879505D01*
X111568000Y-121855001D01*
X111568000Y-121204999D01*
X111569204Y-121180495D01*
X111572804Y-121156227D01*
X111578765Y-121132428D01*
X111587030Y-121109329D01*
X111597520Y-121087150D01*
X111610132Y-121066107D01*
X111624747Y-121046401D01*
X111641223Y-121028223D01*
X111659401Y-121011747D01*
X111679107Y-120997132D01*
X111700150Y-120984520D01*
X111722329Y-120974030D01*
X111745428Y-120965765D01*
X111769227Y-120959804D01*
X111793495Y-120956204D01*
X111817999Y-120955000D01*
X112718001Y-120955000D01*
X112742505Y-120956204D01*
X112742505Y-120956204D01*
G37*
D14*
X112268000Y-121530000D03*
D13*
G36*
X95724505Y-69766204D02*
G01*
X95748773Y-69769804D01*
X95772572Y-69775765D01*
X95795671Y-69784030D01*
X95817850Y-69794520D01*
X95838893Y-69807132D01*
X95858599Y-69821747D01*
X95876777Y-69838223D01*
X95893253Y-69856401D01*
X95907868Y-69876107D01*
X95920480Y-69897150D01*
X95930970Y-69919329D01*
X95939235Y-69942428D01*
X95945196Y-69966227D01*
X95948796Y-69990495D01*
X95950000Y-70014999D01*
X95950000Y-70665001D01*
X95948796Y-70689505D01*
X95945196Y-70713773D01*
X95939235Y-70737572D01*
X95930970Y-70760671D01*
X95920480Y-70782850D01*
X95907868Y-70803893D01*
X95893253Y-70823599D01*
X95876777Y-70841777D01*
X95858599Y-70858253D01*
X95838893Y-70872868D01*
X95817850Y-70885480D01*
X95795671Y-70895970D01*
X95772572Y-70904235D01*
X95748773Y-70910196D01*
X95724505Y-70913796D01*
X95700001Y-70915000D01*
X94799999Y-70915000D01*
X94775495Y-70913796D01*
X94751227Y-70910196D01*
X94727428Y-70904235D01*
X94704329Y-70895970D01*
X94682150Y-70885480D01*
X94661107Y-70872868D01*
X94641401Y-70858253D01*
X94623223Y-70841777D01*
X94606747Y-70823599D01*
X94592132Y-70803893D01*
X94579520Y-70782850D01*
X94569030Y-70760671D01*
X94560765Y-70737572D01*
X94554804Y-70713773D01*
X94551204Y-70689505D01*
X94550000Y-70665001D01*
X94550000Y-70014999D01*
X94551204Y-69990495D01*
X94554804Y-69966227D01*
X94560765Y-69942428D01*
X94569030Y-69919329D01*
X94579520Y-69897150D01*
X94592132Y-69876107D01*
X94606747Y-69856401D01*
X94623223Y-69838223D01*
X94641401Y-69821747D01*
X94661107Y-69807132D01*
X94682150Y-69794520D01*
X94704329Y-69784030D01*
X94727428Y-69775765D01*
X94751227Y-69769804D01*
X94775495Y-69766204D01*
X94799999Y-69765000D01*
X95700001Y-69765000D01*
X95724505Y-69766204D01*
X95724505Y-69766204D01*
G37*
D14*
X95250000Y-70340000D03*
D13*
G36*
X95724505Y-71816204D02*
G01*
X95748773Y-71819804D01*
X95772572Y-71825765D01*
X95795671Y-71834030D01*
X95817850Y-71844520D01*
X95838893Y-71857132D01*
X95858599Y-71871747D01*
X95876777Y-71888223D01*
X95893253Y-71906401D01*
X95907868Y-71926107D01*
X95920480Y-71947150D01*
X95930970Y-71969329D01*
X95939235Y-71992428D01*
X95945196Y-72016227D01*
X95948796Y-72040495D01*
X95950000Y-72064999D01*
X95950000Y-72715001D01*
X95948796Y-72739505D01*
X95945196Y-72763773D01*
X95939235Y-72787572D01*
X95930970Y-72810671D01*
X95920480Y-72832850D01*
X95907868Y-72853893D01*
X95893253Y-72873599D01*
X95876777Y-72891777D01*
X95858599Y-72908253D01*
X95838893Y-72922868D01*
X95817850Y-72935480D01*
X95795671Y-72945970D01*
X95772572Y-72954235D01*
X95748773Y-72960196D01*
X95724505Y-72963796D01*
X95700001Y-72965000D01*
X94799999Y-72965000D01*
X94775495Y-72963796D01*
X94751227Y-72960196D01*
X94727428Y-72954235D01*
X94704329Y-72945970D01*
X94682150Y-72935480D01*
X94661107Y-72922868D01*
X94641401Y-72908253D01*
X94623223Y-72891777D01*
X94606747Y-72873599D01*
X94592132Y-72853893D01*
X94579520Y-72832850D01*
X94569030Y-72810671D01*
X94560765Y-72787572D01*
X94554804Y-72763773D01*
X94551204Y-72739505D01*
X94550000Y-72715001D01*
X94550000Y-72064999D01*
X94551204Y-72040495D01*
X94554804Y-72016227D01*
X94560765Y-71992428D01*
X94569030Y-71969329D01*
X94579520Y-71947150D01*
X94592132Y-71926107D01*
X94606747Y-71906401D01*
X94623223Y-71888223D01*
X94641401Y-71871747D01*
X94661107Y-71857132D01*
X94682150Y-71844520D01*
X94704329Y-71834030D01*
X94727428Y-71825765D01*
X94751227Y-71819804D01*
X94775495Y-71816204D01*
X94799999Y-71815000D01*
X95700001Y-71815000D01*
X95724505Y-71816204D01*
X95724505Y-71816204D01*
G37*
D14*
X95250000Y-72390000D03*
D13*
G36*
X100804505Y-69766204D02*
G01*
X100828773Y-69769804D01*
X100852572Y-69775765D01*
X100875671Y-69784030D01*
X100897850Y-69794520D01*
X100918893Y-69807132D01*
X100938599Y-69821747D01*
X100956777Y-69838223D01*
X100973253Y-69856401D01*
X100987868Y-69876107D01*
X101000480Y-69897150D01*
X101010970Y-69919329D01*
X101019235Y-69942428D01*
X101025196Y-69966227D01*
X101028796Y-69990495D01*
X101030000Y-70014999D01*
X101030000Y-70665001D01*
X101028796Y-70689505D01*
X101025196Y-70713773D01*
X101019235Y-70737572D01*
X101010970Y-70760671D01*
X101000480Y-70782850D01*
X100987868Y-70803893D01*
X100973253Y-70823599D01*
X100956777Y-70841777D01*
X100938599Y-70858253D01*
X100918893Y-70872868D01*
X100897850Y-70885480D01*
X100875671Y-70895970D01*
X100852572Y-70904235D01*
X100828773Y-70910196D01*
X100804505Y-70913796D01*
X100780001Y-70915000D01*
X99879999Y-70915000D01*
X99855495Y-70913796D01*
X99831227Y-70910196D01*
X99807428Y-70904235D01*
X99784329Y-70895970D01*
X99762150Y-70885480D01*
X99741107Y-70872868D01*
X99721401Y-70858253D01*
X99703223Y-70841777D01*
X99686747Y-70823599D01*
X99672132Y-70803893D01*
X99659520Y-70782850D01*
X99649030Y-70760671D01*
X99640765Y-70737572D01*
X99634804Y-70713773D01*
X99631204Y-70689505D01*
X99630000Y-70665001D01*
X99630000Y-70014999D01*
X99631204Y-69990495D01*
X99634804Y-69966227D01*
X99640765Y-69942428D01*
X99649030Y-69919329D01*
X99659520Y-69897150D01*
X99672132Y-69876107D01*
X99686747Y-69856401D01*
X99703223Y-69838223D01*
X99721401Y-69821747D01*
X99741107Y-69807132D01*
X99762150Y-69794520D01*
X99784329Y-69784030D01*
X99807428Y-69775765D01*
X99831227Y-69769804D01*
X99855495Y-69766204D01*
X99879999Y-69765000D01*
X100780001Y-69765000D01*
X100804505Y-69766204D01*
X100804505Y-69766204D01*
G37*
D14*
X100330000Y-70340000D03*
D13*
G36*
X100804505Y-71816204D02*
G01*
X100828773Y-71819804D01*
X100852572Y-71825765D01*
X100875671Y-71834030D01*
X100897850Y-71844520D01*
X100918893Y-71857132D01*
X100938599Y-71871747D01*
X100956777Y-71888223D01*
X100973253Y-71906401D01*
X100987868Y-71926107D01*
X101000480Y-71947150D01*
X101010970Y-71969329D01*
X101019235Y-71992428D01*
X101025196Y-72016227D01*
X101028796Y-72040495D01*
X101030000Y-72064999D01*
X101030000Y-72715001D01*
X101028796Y-72739505D01*
X101025196Y-72763773D01*
X101019235Y-72787572D01*
X101010970Y-72810671D01*
X101000480Y-72832850D01*
X100987868Y-72853893D01*
X100973253Y-72873599D01*
X100956777Y-72891777D01*
X100938599Y-72908253D01*
X100918893Y-72922868D01*
X100897850Y-72935480D01*
X100875671Y-72945970D01*
X100852572Y-72954235D01*
X100828773Y-72960196D01*
X100804505Y-72963796D01*
X100780001Y-72965000D01*
X99879999Y-72965000D01*
X99855495Y-72963796D01*
X99831227Y-72960196D01*
X99807428Y-72954235D01*
X99784329Y-72945970D01*
X99762150Y-72935480D01*
X99741107Y-72922868D01*
X99721401Y-72908253D01*
X99703223Y-72891777D01*
X99686747Y-72873599D01*
X99672132Y-72853893D01*
X99659520Y-72832850D01*
X99649030Y-72810671D01*
X99640765Y-72787572D01*
X99634804Y-72763773D01*
X99631204Y-72739505D01*
X99630000Y-72715001D01*
X99630000Y-72064999D01*
X99631204Y-72040495D01*
X99634804Y-72016227D01*
X99640765Y-71992428D01*
X99649030Y-71969329D01*
X99659520Y-71947150D01*
X99672132Y-71926107D01*
X99686747Y-71906401D01*
X99703223Y-71888223D01*
X99721401Y-71871747D01*
X99741107Y-71857132D01*
X99762150Y-71844520D01*
X99784329Y-71834030D01*
X99807428Y-71825765D01*
X99831227Y-71819804D01*
X99855495Y-71816204D01*
X99879999Y-71815000D01*
X100780001Y-71815000D01*
X100804505Y-71816204D01*
X100804505Y-71816204D01*
G37*
D14*
X100330000Y-72390000D03*
D13*
G36*
X88993505Y-123006204D02*
G01*
X89017773Y-123009804D01*
X89041572Y-123015765D01*
X89064671Y-123024030D01*
X89086850Y-123034520D01*
X89107893Y-123047132D01*
X89127599Y-123061747D01*
X89145777Y-123078223D01*
X89162253Y-123096401D01*
X89176868Y-123116107D01*
X89189480Y-123137150D01*
X89199970Y-123159329D01*
X89208235Y-123182428D01*
X89214196Y-123206227D01*
X89217796Y-123230495D01*
X89219000Y-123254999D01*
X89219000Y-123905001D01*
X89217796Y-123929505D01*
X89214196Y-123953773D01*
X89208235Y-123977572D01*
X89199970Y-124000671D01*
X89189480Y-124022850D01*
X89176868Y-124043893D01*
X89162253Y-124063599D01*
X89145777Y-124081777D01*
X89127599Y-124098253D01*
X89107893Y-124112868D01*
X89086850Y-124125480D01*
X89064671Y-124135970D01*
X89041572Y-124144235D01*
X89017773Y-124150196D01*
X88993505Y-124153796D01*
X88969001Y-124155000D01*
X88068999Y-124155000D01*
X88044495Y-124153796D01*
X88020227Y-124150196D01*
X87996428Y-124144235D01*
X87973329Y-124135970D01*
X87951150Y-124125480D01*
X87930107Y-124112868D01*
X87910401Y-124098253D01*
X87892223Y-124081777D01*
X87875747Y-124063599D01*
X87861132Y-124043893D01*
X87848520Y-124022850D01*
X87838030Y-124000671D01*
X87829765Y-123977572D01*
X87823804Y-123953773D01*
X87820204Y-123929505D01*
X87819000Y-123905001D01*
X87819000Y-123254999D01*
X87820204Y-123230495D01*
X87823804Y-123206227D01*
X87829765Y-123182428D01*
X87838030Y-123159329D01*
X87848520Y-123137150D01*
X87861132Y-123116107D01*
X87875747Y-123096401D01*
X87892223Y-123078223D01*
X87910401Y-123061747D01*
X87930107Y-123047132D01*
X87951150Y-123034520D01*
X87973329Y-123024030D01*
X87996428Y-123015765D01*
X88020227Y-123009804D01*
X88044495Y-123006204D01*
X88068999Y-123005000D01*
X88969001Y-123005000D01*
X88993505Y-123006204D01*
X88993505Y-123006204D01*
G37*
D14*
X88519000Y-123580000D03*
D13*
G36*
X88993505Y-120956204D02*
G01*
X89017773Y-120959804D01*
X89041572Y-120965765D01*
X89064671Y-120974030D01*
X89086850Y-120984520D01*
X89107893Y-120997132D01*
X89127599Y-121011747D01*
X89145777Y-121028223D01*
X89162253Y-121046401D01*
X89176868Y-121066107D01*
X89189480Y-121087150D01*
X89199970Y-121109329D01*
X89208235Y-121132428D01*
X89214196Y-121156227D01*
X89217796Y-121180495D01*
X89219000Y-121204999D01*
X89219000Y-121855001D01*
X89217796Y-121879505D01*
X89214196Y-121903773D01*
X89208235Y-121927572D01*
X89199970Y-121950671D01*
X89189480Y-121972850D01*
X89176868Y-121993893D01*
X89162253Y-122013599D01*
X89145777Y-122031777D01*
X89127599Y-122048253D01*
X89107893Y-122062868D01*
X89086850Y-122075480D01*
X89064671Y-122085970D01*
X89041572Y-122094235D01*
X89017773Y-122100196D01*
X88993505Y-122103796D01*
X88969001Y-122105000D01*
X88068999Y-122105000D01*
X88044495Y-122103796D01*
X88020227Y-122100196D01*
X87996428Y-122094235D01*
X87973329Y-122085970D01*
X87951150Y-122075480D01*
X87930107Y-122062868D01*
X87910401Y-122048253D01*
X87892223Y-122031777D01*
X87875747Y-122013599D01*
X87861132Y-121993893D01*
X87848520Y-121972850D01*
X87838030Y-121950671D01*
X87829765Y-121927572D01*
X87823804Y-121903773D01*
X87820204Y-121879505D01*
X87819000Y-121855001D01*
X87819000Y-121204999D01*
X87820204Y-121180495D01*
X87823804Y-121156227D01*
X87829765Y-121132428D01*
X87838030Y-121109329D01*
X87848520Y-121087150D01*
X87861132Y-121066107D01*
X87875747Y-121046401D01*
X87892223Y-121028223D01*
X87910401Y-121011747D01*
X87930107Y-120997132D01*
X87951150Y-120984520D01*
X87973329Y-120974030D01*
X87996428Y-120965765D01*
X88020227Y-120959804D01*
X88044495Y-120956204D01*
X88068999Y-120955000D01*
X88969001Y-120955000D01*
X88993505Y-120956204D01*
X88993505Y-120956204D01*
G37*
D14*
X88519000Y-121530000D03*
D13*
G36*
X94581505Y-123006204D02*
G01*
X94605773Y-123009804D01*
X94629572Y-123015765D01*
X94652671Y-123024030D01*
X94674850Y-123034520D01*
X94695893Y-123047132D01*
X94715599Y-123061747D01*
X94733777Y-123078223D01*
X94750253Y-123096401D01*
X94764868Y-123116107D01*
X94777480Y-123137150D01*
X94787970Y-123159329D01*
X94796235Y-123182428D01*
X94802196Y-123206227D01*
X94805796Y-123230495D01*
X94807000Y-123254999D01*
X94807000Y-123905001D01*
X94805796Y-123929505D01*
X94802196Y-123953773D01*
X94796235Y-123977572D01*
X94787970Y-124000671D01*
X94777480Y-124022850D01*
X94764868Y-124043893D01*
X94750253Y-124063599D01*
X94733777Y-124081777D01*
X94715599Y-124098253D01*
X94695893Y-124112868D01*
X94674850Y-124125480D01*
X94652671Y-124135970D01*
X94629572Y-124144235D01*
X94605773Y-124150196D01*
X94581505Y-124153796D01*
X94557001Y-124155000D01*
X93656999Y-124155000D01*
X93632495Y-124153796D01*
X93608227Y-124150196D01*
X93584428Y-124144235D01*
X93561329Y-124135970D01*
X93539150Y-124125480D01*
X93518107Y-124112868D01*
X93498401Y-124098253D01*
X93480223Y-124081777D01*
X93463747Y-124063599D01*
X93449132Y-124043893D01*
X93436520Y-124022850D01*
X93426030Y-124000671D01*
X93417765Y-123977572D01*
X93411804Y-123953773D01*
X93408204Y-123929505D01*
X93407000Y-123905001D01*
X93407000Y-123254999D01*
X93408204Y-123230495D01*
X93411804Y-123206227D01*
X93417765Y-123182428D01*
X93426030Y-123159329D01*
X93436520Y-123137150D01*
X93449132Y-123116107D01*
X93463747Y-123096401D01*
X93480223Y-123078223D01*
X93498401Y-123061747D01*
X93518107Y-123047132D01*
X93539150Y-123034520D01*
X93561329Y-123024030D01*
X93584428Y-123015765D01*
X93608227Y-123009804D01*
X93632495Y-123006204D01*
X93656999Y-123005000D01*
X94557001Y-123005000D01*
X94581505Y-123006204D01*
X94581505Y-123006204D01*
G37*
D14*
X94107000Y-123580000D03*
D13*
G36*
X94581505Y-120956204D02*
G01*
X94605773Y-120959804D01*
X94629572Y-120965765D01*
X94652671Y-120974030D01*
X94674850Y-120984520D01*
X94695893Y-120997132D01*
X94715599Y-121011747D01*
X94733777Y-121028223D01*
X94750253Y-121046401D01*
X94764868Y-121066107D01*
X94777480Y-121087150D01*
X94787970Y-121109329D01*
X94796235Y-121132428D01*
X94802196Y-121156227D01*
X94805796Y-121180495D01*
X94807000Y-121204999D01*
X94807000Y-121855001D01*
X94805796Y-121879505D01*
X94802196Y-121903773D01*
X94796235Y-121927572D01*
X94787970Y-121950671D01*
X94777480Y-121972850D01*
X94764868Y-121993893D01*
X94750253Y-122013599D01*
X94733777Y-122031777D01*
X94715599Y-122048253D01*
X94695893Y-122062868D01*
X94674850Y-122075480D01*
X94652671Y-122085970D01*
X94629572Y-122094235D01*
X94605773Y-122100196D01*
X94581505Y-122103796D01*
X94557001Y-122105000D01*
X93656999Y-122105000D01*
X93632495Y-122103796D01*
X93608227Y-122100196D01*
X93584428Y-122094235D01*
X93561329Y-122085970D01*
X93539150Y-122075480D01*
X93518107Y-122062868D01*
X93498401Y-122048253D01*
X93480223Y-122031777D01*
X93463747Y-122013599D01*
X93449132Y-121993893D01*
X93436520Y-121972850D01*
X93426030Y-121950671D01*
X93417765Y-121927572D01*
X93411804Y-121903773D01*
X93408204Y-121879505D01*
X93407000Y-121855001D01*
X93407000Y-121204999D01*
X93408204Y-121180495D01*
X93411804Y-121156227D01*
X93417765Y-121132428D01*
X93426030Y-121109329D01*
X93436520Y-121087150D01*
X93449132Y-121066107D01*
X93463747Y-121046401D01*
X93480223Y-121028223D01*
X93498401Y-121011747D01*
X93518107Y-120997132D01*
X93539150Y-120984520D01*
X93561329Y-120974030D01*
X93584428Y-120965765D01*
X93608227Y-120959804D01*
X93632495Y-120956204D01*
X93656999Y-120955000D01*
X94557001Y-120955000D01*
X94581505Y-120956204D01*
X94581505Y-120956204D01*
G37*
D14*
X94107000Y-121530000D03*
D13*
G36*
X107027505Y-123006204D02*
G01*
X107051773Y-123009804D01*
X107075572Y-123015765D01*
X107098671Y-123024030D01*
X107120850Y-123034520D01*
X107141893Y-123047132D01*
X107161599Y-123061747D01*
X107179777Y-123078223D01*
X107196253Y-123096401D01*
X107210868Y-123116107D01*
X107223480Y-123137150D01*
X107233970Y-123159329D01*
X107242235Y-123182428D01*
X107248196Y-123206227D01*
X107251796Y-123230495D01*
X107253000Y-123254999D01*
X107253000Y-123905001D01*
X107251796Y-123929505D01*
X107248196Y-123953773D01*
X107242235Y-123977572D01*
X107233970Y-124000671D01*
X107223480Y-124022850D01*
X107210868Y-124043893D01*
X107196253Y-124063599D01*
X107179777Y-124081777D01*
X107161599Y-124098253D01*
X107141893Y-124112868D01*
X107120850Y-124125480D01*
X107098671Y-124135970D01*
X107075572Y-124144235D01*
X107051773Y-124150196D01*
X107027505Y-124153796D01*
X107003001Y-124155000D01*
X106102999Y-124155000D01*
X106078495Y-124153796D01*
X106054227Y-124150196D01*
X106030428Y-124144235D01*
X106007329Y-124135970D01*
X105985150Y-124125480D01*
X105964107Y-124112868D01*
X105944401Y-124098253D01*
X105926223Y-124081777D01*
X105909747Y-124063599D01*
X105895132Y-124043893D01*
X105882520Y-124022850D01*
X105872030Y-124000671D01*
X105863765Y-123977572D01*
X105857804Y-123953773D01*
X105854204Y-123929505D01*
X105853000Y-123905001D01*
X105853000Y-123254999D01*
X105854204Y-123230495D01*
X105857804Y-123206227D01*
X105863765Y-123182428D01*
X105872030Y-123159329D01*
X105882520Y-123137150D01*
X105895132Y-123116107D01*
X105909747Y-123096401D01*
X105926223Y-123078223D01*
X105944401Y-123061747D01*
X105964107Y-123047132D01*
X105985150Y-123034520D01*
X106007329Y-123024030D01*
X106030428Y-123015765D01*
X106054227Y-123009804D01*
X106078495Y-123006204D01*
X106102999Y-123005000D01*
X107003001Y-123005000D01*
X107027505Y-123006204D01*
X107027505Y-123006204D01*
G37*
D14*
X106553000Y-123580000D03*
D13*
G36*
X107027505Y-120956204D02*
G01*
X107051773Y-120959804D01*
X107075572Y-120965765D01*
X107098671Y-120974030D01*
X107120850Y-120984520D01*
X107141893Y-120997132D01*
X107161599Y-121011747D01*
X107179777Y-121028223D01*
X107196253Y-121046401D01*
X107210868Y-121066107D01*
X107223480Y-121087150D01*
X107233970Y-121109329D01*
X107242235Y-121132428D01*
X107248196Y-121156227D01*
X107251796Y-121180495D01*
X107253000Y-121204999D01*
X107253000Y-121855001D01*
X107251796Y-121879505D01*
X107248196Y-121903773D01*
X107242235Y-121927572D01*
X107233970Y-121950671D01*
X107223480Y-121972850D01*
X107210868Y-121993893D01*
X107196253Y-122013599D01*
X107179777Y-122031777D01*
X107161599Y-122048253D01*
X107141893Y-122062868D01*
X107120850Y-122075480D01*
X107098671Y-122085970D01*
X107075572Y-122094235D01*
X107051773Y-122100196D01*
X107027505Y-122103796D01*
X107003001Y-122105000D01*
X106102999Y-122105000D01*
X106078495Y-122103796D01*
X106054227Y-122100196D01*
X106030428Y-122094235D01*
X106007329Y-122085970D01*
X105985150Y-122075480D01*
X105964107Y-122062868D01*
X105944401Y-122048253D01*
X105926223Y-122031777D01*
X105909747Y-122013599D01*
X105895132Y-121993893D01*
X105882520Y-121972850D01*
X105872030Y-121950671D01*
X105863765Y-121927572D01*
X105857804Y-121903773D01*
X105854204Y-121879505D01*
X105853000Y-121855001D01*
X105853000Y-121204999D01*
X105854204Y-121180495D01*
X105857804Y-121156227D01*
X105863765Y-121132428D01*
X105872030Y-121109329D01*
X105882520Y-121087150D01*
X105895132Y-121066107D01*
X105909747Y-121046401D01*
X105926223Y-121028223D01*
X105944401Y-121011747D01*
X105964107Y-120997132D01*
X105985150Y-120984520D01*
X106007329Y-120974030D01*
X106030428Y-120965765D01*
X106054227Y-120959804D01*
X106078495Y-120956204D01*
X106102999Y-120955000D01*
X107003001Y-120955000D01*
X107027505Y-120956204D01*
X107027505Y-120956204D01*
G37*
D14*
X106553000Y-121530000D03*
D13*
G36*
X110964505Y-69766204D02*
G01*
X110988773Y-69769804D01*
X111012572Y-69775765D01*
X111035671Y-69784030D01*
X111057850Y-69794520D01*
X111078893Y-69807132D01*
X111098599Y-69821747D01*
X111116777Y-69838223D01*
X111133253Y-69856401D01*
X111147868Y-69876107D01*
X111160480Y-69897150D01*
X111170970Y-69919329D01*
X111179235Y-69942428D01*
X111185196Y-69966227D01*
X111188796Y-69990495D01*
X111190000Y-70014999D01*
X111190000Y-70665001D01*
X111188796Y-70689505D01*
X111185196Y-70713773D01*
X111179235Y-70737572D01*
X111170970Y-70760671D01*
X111160480Y-70782850D01*
X111147868Y-70803893D01*
X111133253Y-70823599D01*
X111116777Y-70841777D01*
X111098599Y-70858253D01*
X111078893Y-70872868D01*
X111057850Y-70885480D01*
X111035671Y-70895970D01*
X111012572Y-70904235D01*
X110988773Y-70910196D01*
X110964505Y-70913796D01*
X110940001Y-70915000D01*
X110039999Y-70915000D01*
X110015495Y-70913796D01*
X109991227Y-70910196D01*
X109967428Y-70904235D01*
X109944329Y-70895970D01*
X109922150Y-70885480D01*
X109901107Y-70872868D01*
X109881401Y-70858253D01*
X109863223Y-70841777D01*
X109846747Y-70823599D01*
X109832132Y-70803893D01*
X109819520Y-70782850D01*
X109809030Y-70760671D01*
X109800765Y-70737572D01*
X109794804Y-70713773D01*
X109791204Y-70689505D01*
X109790000Y-70665001D01*
X109790000Y-70014999D01*
X109791204Y-69990495D01*
X109794804Y-69966227D01*
X109800765Y-69942428D01*
X109809030Y-69919329D01*
X109819520Y-69897150D01*
X109832132Y-69876107D01*
X109846747Y-69856401D01*
X109863223Y-69838223D01*
X109881401Y-69821747D01*
X109901107Y-69807132D01*
X109922150Y-69794520D01*
X109944329Y-69784030D01*
X109967428Y-69775765D01*
X109991227Y-69769804D01*
X110015495Y-69766204D01*
X110039999Y-69765000D01*
X110940001Y-69765000D01*
X110964505Y-69766204D01*
X110964505Y-69766204D01*
G37*
D14*
X110490000Y-70340000D03*
D13*
G36*
X110964505Y-71816204D02*
G01*
X110988773Y-71819804D01*
X111012572Y-71825765D01*
X111035671Y-71834030D01*
X111057850Y-71844520D01*
X111078893Y-71857132D01*
X111098599Y-71871747D01*
X111116777Y-71888223D01*
X111133253Y-71906401D01*
X111147868Y-71926107D01*
X111160480Y-71947150D01*
X111170970Y-71969329D01*
X111179235Y-71992428D01*
X111185196Y-72016227D01*
X111188796Y-72040495D01*
X111190000Y-72064999D01*
X111190000Y-72715001D01*
X111188796Y-72739505D01*
X111185196Y-72763773D01*
X111179235Y-72787572D01*
X111170970Y-72810671D01*
X111160480Y-72832850D01*
X111147868Y-72853893D01*
X111133253Y-72873599D01*
X111116777Y-72891777D01*
X111098599Y-72908253D01*
X111078893Y-72922868D01*
X111057850Y-72935480D01*
X111035671Y-72945970D01*
X111012572Y-72954235D01*
X110988773Y-72960196D01*
X110964505Y-72963796D01*
X110940001Y-72965000D01*
X110039999Y-72965000D01*
X110015495Y-72963796D01*
X109991227Y-72960196D01*
X109967428Y-72954235D01*
X109944329Y-72945970D01*
X109922150Y-72935480D01*
X109901107Y-72922868D01*
X109881401Y-72908253D01*
X109863223Y-72891777D01*
X109846747Y-72873599D01*
X109832132Y-72853893D01*
X109819520Y-72832850D01*
X109809030Y-72810671D01*
X109800765Y-72787572D01*
X109794804Y-72763773D01*
X109791204Y-72739505D01*
X109790000Y-72715001D01*
X109790000Y-72064999D01*
X109791204Y-72040495D01*
X109794804Y-72016227D01*
X109800765Y-71992428D01*
X109809030Y-71969329D01*
X109819520Y-71947150D01*
X109832132Y-71926107D01*
X109846747Y-71906401D01*
X109863223Y-71888223D01*
X109881401Y-71871747D01*
X109901107Y-71857132D01*
X109922150Y-71844520D01*
X109944329Y-71834030D01*
X109967428Y-71825765D01*
X109991227Y-71819804D01*
X110015495Y-71816204D01*
X110039999Y-71815000D01*
X110940001Y-71815000D01*
X110964505Y-71816204D01*
X110964505Y-71816204D01*
G37*
D14*
X110490000Y-72390000D03*
D13*
G36*
X105884505Y-71816204D02*
G01*
X105908773Y-71819804D01*
X105932572Y-71825765D01*
X105955671Y-71834030D01*
X105977850Y-71844520D01*
X105998893Y-71857132D01*
X106018599Y-71871747D01*
X106036777Y-71888223D01*
X106053253Y-71906401D01*
X106067868Y-71926107D01*
X106080480Y-71947150D01*
X106090970Y-71969329D01*
X106099235Y-71992428D01*
X106105196Y-72016227D01*
X106108796Y-72040495D01*
X106110000Y-72064999D01*
X106110000Y-72715001D01*
X106108796Y-72739505D01*
X106105196Y-72763773D01*
X106099235Y-72787572D01*
X106090970Y-72810671D01*
X106080480Y-72832850D01*
X106067868Y-72853893D01*
X106053253Y-72873599D01*
X106036777Y-72891777D01*
X106018599Y-72908253D01*
X105998893Y-72922868D01*
X105977850Y-72935480D01*
X105955671Y-72945970D01*
X105932572Y-72954235D01*
X105908773Y-72960196D01*
X105884505Y-72963796D01*
X105860001Y-72965000D01*
X104959999Y-72965000D01*
X104935495Y-72963796D01*
X104911227Y-72960196D01*
X104887428Y-72954235D01*
X104864329Y-72945970D01*
X104842150Y-72935480D01*
X104821107Y-72922868D01*
X104801401Y-72908253D01*
X104783223Y-72891777D01*
X104766747Y-72873599D01*
X104752132Y-72853893D01*
X104739520Y-72832850D01*
X104729030Y-72810671D01*
X104720765Y-72787572D01*
X104714804Y-72763773D01*
X104711204Y-72739505D01*
X104710000Y-72715001D01*
X104710000Y-72064999D01*
X104711204Y-72040495D01*
X104714804Y-72016227D01*
X104720765Y-71992428D01*
X104729030Y-71969329D01*
X104739520Y-71947150D01*
X104752132Y-71926107D01*
X104766747Y-71906401D01*
X104783223Y-71888223D01*
X104801401Y-71871747D01*
X104821107Y-71857132D01*
X104842150Y-71844520D01*
X104864329Y-71834030D01*
X104887428Y-71825765D01*
X104911227Y-71819804D01*
X104935495Y-71816204D01*
X104959999Y-71815000D01*
X105860001Y-71815000D01*
X105884505Y-71816204D01*
X105884505Y-71816204D01*
G37*
D14*
X105410000Y-72390000D03*
D13*
G36*
X105884505Y-69766204D02*
G01*
X105908773Y-69769804D01*
X105932572Y-69775765D01*
X105955671Y-69784030D01*
X105977850Y-69794520D01*
X105998893Y-69807132D01*
X106018599Y-69821747D01*
X106036777Y-69838223D01*
X106053253Y-69856401D01*
X106067868Y-69876107D01*
X106080480Y-69897150D01*
X106090970Y-69919329D01*
X106099235Y-69942428D01*
X106105196Y-69966227D01*
X106108796Y-69990495D01*
X106110000Y-70014999D01*
X106110000Y-70665001D01*
X106108796Y-70689505D01*
X106105196Y-70713773D01*
X106099235Y-70737572D01*
X106090970Y-70760671D01*
X106080480Y-70782850D01*
X106067868Y-70803893D01*
X106053253Y-70823599D01*
X106036777Y-70841777D01*
X106018599Y-70858253D01*
X105998893Y-70872868D01*
X105977850Y-70885480D01*
X105955671Y-70895970D01*
X105932572Y-70904235D01*
X105908773Y-70910196D01*
X105884505Y-70913796D01*
X105860001Y-70915000D01*
X104959999Y-70915000D01*
X104935495Y-70913796D01*
X104911227Y-70910196D01*
X104887428Y-70904235D01*
X104864329Y-70895970D01*
X104842150Y-70885480D01*
X104821107Y-70872868D01*
X104801401Y-70858253D01*
X104783223Y-70841777D01*
X104766747Y-70823599D01*
X104752132Y-70803893D01*
X104739520Y-70782850D01*
X104729030Y-70760671D01*
X104720765Y-70737572D01*
X104714804Y-70713773D01*
X104711204Y-70689505D01*
X104710000Y-70665001D01*
X104710000Y-70014999D01*
X104711204Y-69990495D01*
X104714804Y-69966227D01*
X104720765Y-69942428D01*
X104729030Y-69919329D01*
X104739520Y-69897150D01*
X104752132Y-69876107D01*
X104766747Y-69856401D01*
X104783223Y-69838223D01*
X104801401Y-69821747D01*
X104821107Y-69807132D01*
X104842150Y-69794520D01*
X104864329Y-69784030D01*
X104887428Y-69775765D01*
X104911227Y-69769804D01*
X104935495Y-69766204D01*
X104959999Y-69765000D01*
X105860001Y-69765000D01*
X105884505Y-69766204D01*
X105884505Y-69766204D01*
G37*
D14*
X105410000Y-70340000D03*
D16*
X114538000Y-117795000D03*
X112538000Y-116845000D03*
X112538000Y-118745000D03*
X92980000Y-75565000D03*
X94980000Y-76515000D03*
X94980000Y-74615000D03*
X98060000Y-75565000D03*
X100060000Y-76515000D03*
X100060000Y-74615000D03*
X90789000Y-117856000D03*
X88789000Y-116906000D03*
X88789000Y-118806000D03*
X96377000Y-117795000D03*
X94377000Y-116845000D03*
X94377000Y-118745000D03*
D17*
X101600000Y-123825000D03*
X102550000Y-121825000D03*
X100650000Y-121825000D03*
D16*
X108950000Y-117795000D03*
X106950000Y-116845000D03*
X106950000Y-118745000D03*
X108220000Y-75565000D03*
X110220000Y-76515000D03*
X110220000Y-74615000D03*
X103140000Y-75565000D03*
X105140000Y-76515000D03*
X105140000Y-74615000D03*
D17*
X100965000Y-114665000D03*
X101915000Y-112665000D03*
X100015000Y-112665000D03*
D13*
G36*
X104414505Y-93406204D02*
G01*
X104438773Y-93409804D01*
X104462572Y-93415765D01*
X104485671Y-93424030D01*
X104507850Y-93434520D01*
X104528893Y-93447132D01*
X104548599Y-93461747D01*
X104566777Y-93478223D01*
X104583253Y-93496401D01*
X104597868Y-93516107D01*
X104610480Y-93537150D01*
X104620970Y-93559329D01*
X104629235Y-93582428D01*
X104635196Y-93606227D01*
X104638796Y-93630495D01*
X104640000Y-93654999D01*
X104640000Y-94305001D01*
X104638796Y-94329505D01*
X104635196Y-94353773D01*
X104629235Y-94377572D01*
X104620970Y-94400671D01*
X104610480Y-94422850D01*
X104597868Y-94443893D01*
X104583253Y-94463599D01*
X104566777Y-94481777D01*
X104548599Y-94498253D01*
X104528893Y-94512868D01*
X104507850Y-94525480D01*
X104485671Y-94535970D01*
X104462572Y-94544235D01*
X104438773Y-94550196D01*
X104414505Y-94553796D01*
X104390001Y-94555000D01*
X103489999Y-94555000D01*
X103465495Y-94553796D01*
X103441227Y-94550196D01*
X103417428Y-94544235D01*
X103394329Y-94535970D01*
X103372150Y-94525480D01*
X103351107Y-94512868D01*
X103331401Y-94498253D01*
X103313223Y-94481777D01*
X103296747Y-94463599D01*
X103282132Y-94443893D01*
X103269520Y-94422850D01*
X103259030Y-94400671D01*
X103250765Y-94377572D01*
X103244804Y-94353773D01*
X103241204Y-94329505D01*
X103240000Y-94305001D01*
X103240000Y-93654999D01*
X103241204Y-93630495D01*
X103244804Y-93606227D01*
X103250765Y-93582428D01*
X103259030Y-93559329D01*
X103269520Y-93537150D01*
X103282132Y-93516107D01*
X103296747Y-93496401D01*
X103313223Y-93478223D01*
X103331401Y-93461747D01*
X103351107Y-93447132D01*
X103372150Y-93434520D01*
X103394329Y-93424030D01*
X103417428Y-93415765D01*
X103441227Y-93409804D01*
X103465495Y-93406204D01*
X103489999Y-93405000D01*
X104390001Y-93405000D01*
X104414505Y-93406204D01*
X104414505Y-93406204D01*
G37*
D14*
X103940000Y-93980000D03*
D13*
G36*
X104414505Y-95456204D02*
G01*
X104438773Y-95459804D01*
X104462572Y-95465765D01*
X104485671Y-95474030D01*
X104507850Y-95484520D01*
X104528893Y-95497132D01*
X104548599Y-95511747D01*
X104566777Y-95528223D01*
X104583253Y-95546401D01*
X104597868Y-95566107D01*
X104610480Y-95587150D01*
X104620970Y-95609329D01*
X104629235Y-95632428D01*
X104635196Y-95656227D01*
X104638796Y-95680495D01*
X104640000Y-95704999D01*
X104640000Y-96355001D01*
X104638796Y-96379505D01*
X104635196Y-96403773D01*
X104629235Y-96427572D01*
X104620970Y-96450671D01*
X104610480Y-96472850D01*
X104597868Y-96493893D01*
X104583253Y-96513599D01*
X104566777Y-96531777D01*
X104548599Y-96548253D01*
X104528893Y-96562868D01*
X104507850Y-96575480D01*
X104485671Y-96585970D01*
X104462572Y-96594235D01*
X104438773Y-96600196D01*
X104414505Y-96603796D01*
X104390001Y-96605000D01*
X103489999Y-96605000D01*
X103465495Y-96603796D01*
X103441227Y-96600196D01*
X103417428Y-96594235D01*
X103394329Y-96585970D01*
X103372150Y-96575480D01*
X103351107Y-96562868D01*
X103331401Y-96548253D01*
X103313223Y-96531777D01*
X103296747Y-96513599D01*
X103282132Y-96493893D01*
X103269520Y-96472850D01*
X103259030Y-96450671D01*
X103250765Y-96427572D01*
X103244804Y-96403773D01*
X103241204Y-96379505D01*
X103240000Y-96355001D01*
X103240000Y-95704999D01*
X103241204Y-95680495D01*
X103244804Y-95656227D01*
X103250765Y-95632428D01*
X103259030Y-95609329D01*
X103269520Y-95587150D01*
X103282132Y-95566107D01*
X103296747Y-95546401D01*
X103313223Y-95528223D01*
X103331401Y-95511747D01*
X103351107Y-95497132D01*
X103372150Y-95484520D01*
X103394329Y-95474030D01*
X103417428Y-95465765D01*
X103441227Y-95459804D01*
X103465495Y-95456204D01*
X103489999Y-95455000D01*
X104390001Y-95455000D01*
X104414505Y-95456204D01*
X104414505Y-95456204D01*
G37*
D14*
X103940000Y-96030000D03*
D18*
X100965000Y-94615000D03*
X106045000Y-84455000D03*
X99060000Y-121920000D03*
X106045000Y-89535000D03*
X106045000Y-86995000D03*
X106045000Y-85725000D03*
X104140000Y-121920000D03*
X105410000Y-68580000D03*
X101727000Y-89662000D03*
X110490000Y-68580000D03*
X98425000Y-93345000D03*
X104140000Y-125095000D03*
X96520000Y-90715000D03*
X95250000Y-125095000D03*
X96520000Y-89535000D03*
X96520000Y-88265000D03*
X88455500Y-130492498D03*
X100330000Y-68580000D03*
X96520000Y-86995000D03*
X95372653Y-68702653D03*
X96520000Y-85725000D03*
X110490000Y-125095000D03*
X96520000Y-84455000D03*
D19*
X103305000Y-94615000D02*
X103940000Y-93980000D01*
X100965000Y-94615000D02*
X103305000Y-94615000D01*
X106045000Y-84455000D02*
X103970000Y-84455000D01*
X103940000Y-92105000D02*
X103970000Y-92075000D01*
X103940000Y-93980000D02*
X103940000Y-92105000D01*
D20*
X99060000Y-118745000D02*
X99060000Y-121920000D01*
X106045000Y-89535000D02*
X103970000Y-89535000D01*
X103970000Y-86995000D02*
X100982820Y-86995000D01*
X88832081Y-96520000D02*
X87630000Y-96520000D01*
X97595822Y-96520000D02*
X88832081Y-96520000D01*
X100595018Y-93520804D02*
X97595822Y-96520000D01*
X100595019Y-87382801D02*
X100595018Y-93520804D01*
X100982820Y-86995000D02*
X100595019Y-87382801D01*
X106045000Y-86995000D02*
X103970000Y-86995000D01*
X103970000Y-85725000D02*
X101616410Y-85725000D01*
X98959401Y-94520011D02*
X97060011Y-94520011D01*
X100145009Y-93334403D02*
X98959401Y-94520011D01*
X101616410Y-85725000D02*
X100145010Y-87196400D01*
X100145010Y-87196400D02*
X100145009Y-93334403D01*
X96520000Y-93980000D02*
X87630000Y-93980000D01*
X97060011Y-94520011D02*
X96520000Y-93980000D01*
X106045000Y-85725000D02*
X103970000Y-85725000D01*
D19*
X102550000Y-121825000D02*
X104045000Y-121825000D01*
X104045000Y-121825000D02*
X104140000Y-121920000D01*
X104140000Y-118745000D02*
X104140000Y-121920000D01*
D20*
X103520000Y-83185000D02*
X99695000Y-87010000D01*
X103970000Y-83185000D02*
X103520000Y-83185000D01*
X98076999Y-94070001D02*
X97155000Y-93148002D01*
X98773001Y-94070001D02*
X98076999Y-94070001D01*
X99695000Y-87010000D02*
X99695000Y-93148002D01*
X99695000Y-93148002D02*
X98773001Y-94070001D01*
X97155000Y-93148002D02*
X97155000Y-92075000D01*
X96520000Y-91440000D02*
X87630000Y-91440000D01*
X97155000Y-92075000D02*
X96520000Y-91440000D01*
X100965000Y-116060000D02*
X101600000Y-116695000D01*
X100965000Y-114665000D02*
X100965000Y-116060000D01*
X101600000Y-116695000D02*
X104140000Y-116695000D01*
X99365000Y-112665000D02*
X100015000Y-112665000D01*
X99060000Y-112970000D02*
X99365000Y-112665000D01*
X99060000Y-116695000D02*
X99060000Y-112970000D01*
X103140000Y-72660000D02*
X102870000Y-72390000D01*
X103140000Y-75565000D02*
X103140000Y-72660000D01*
X105140000Y-72660000D02*
X105410000Y-72390000D01*
X105140000Y-74615000D02*
X105140000Y-72660000D01*
X107950000Y-75295000D02*
X108220000Y-75565000D01*
X107950000Y-72390000D02*
X107950000Y-75295000D01*
X110490000Y-74345000D02*
X110220000Y-74615000D01*
X110490000Y-72390000D02*
X110490000Y-74345000D01*
X109093000Y-121530000D02*
X109093000Y-117795000D01*
X106553000Y-119142000D02*
X106950000Y-118745000D01*
X106553000Y-121530000D02*
X106553000Y-119142000D01*
D19*
X101600000Y-127000000D02*
X101600000Y-123825000D01*
D20*
X100650000Y-119695000D02*
X101600000Y-118745000D01*
X100650000Y-121825000D02*
X100650000Y-119695000D01*
X96647000Y-118065000D02*
X96377000Y-117795000D01*
X96647000Y-121530000D02*
X96647000Y-118065000D01*
X94107000Y-119015000D02*
X94377000Y-118745000D01*
X94107000Y-121530000D02*
X94107000Y-119015000D01*
X91059000Y-118126000D02*
X90789000Y-117856000D01*
X91059000Y-121530000D02*
X91059000Y-118126000D01*
X88519000Y-119076000D02*
X88789000Y-118806000D01*
X88519000Y-121530000D02*
X88519000Y-119076000D01*
X98060000Y-72660000D02*
X97790000Y-72390000D01*
X98060000Y-75565000D02*
X98060000Y-72660000D01*
X100060000Y-72660000D02*
X100330000Y-72390000D01*
X100060000Y-74615000D02*
X100060000Y-72660000D01*
X92980000Y-72660000D02*
X92710000Y-72390000D01*
X92980000Y-75565000D02*
X92980000Y-72660000D01*
X94980000Y-72660000D02*
X95250000Y-72390000D01*
X94980000Y-74615000D02*
X94980000Y-72660000D01*
X114808000Y-118065000D02*
X114538000Y-117795000D01*
X114808000Y-121530000D02*
X114808000Y-118065000D01*
X112268000Y-119015000D02*
X112538000Y-118745000D01*
X112268000Y-121530000D02*
X112268000Y-119015000D01*
X105410000Y-70340000D02*
X105410000Y-68580000D01*
X102126999Y-90061999D02*
X101727000Y-89662000D01*
X102870000Y-90805000D02*
X102126999Y-90061999D01*
X103970000Y-90805000D02*
X102870000Y-90805000D01*
X110490000Y-70340000D02*
X110490000Y-68580000D01*
X98425000Y-92220000D02*
X98570000Y-92075000D01*
X98425000Y-93345000D02*
X98425000Y-92220000D01*
X106553000Y-123580000D02*
X105655000Y-123580000D01*
X105655000Y-123580000D02*
X104140000Y-125095000D01*
X98570000Y-90805000D02*
X96520000Y-90805000D01*
X96520000Y-90805000D02*
X96520000Y-90715000D01*
X94107000Y-124255000D02*
X94947000Y-125095000D01*
X94107000Y-123580000D02*
X94107000Y-124255000D01*
X94947000Y-125095000D02*
X95250000Y-125095000D01*
X98570000Y-89535000D02*
X98120000Y-89535000D01*
X98570000Y-89535000D02*
X96520000Y-89535000D01*
X88519000Y-123580000D02*
X88519000Y-124079000D01*
X98570000Y-88265000D02*
X96520000Y-88265000D01*
X88519000Y-130428998D02*
X88455500Y-130492498D01*
X88519000Y-123580000D02*
X88519000Y-130428998D01*
X100330000Y-70340000D02*
X100330000Y-68580000D01*
X96520000Y-86995000D02*
X98570000Y-86995000D01*
X95250000Y-70340000D02*
X95250000Y-68580000D01*
X95250000Y-68580000D02*
X95372653Y-68702653D01*
X96520000Y-85725000D02*
X98570000Y-85725000D01*
X98570000Y-84455000D02*
X96520000Y-84455000D01*
X110753000Y-125095000D02*
X112268000Y-123580000D01*
X110490000Y-125095000D02*
X110753000Y-125095000D01*
X102870000Y-68170000D02*
X104140000Y-66900000D01*
X102870000Y-70340000D02*
X102870000Y-68170000D01*
X107950000Y-68170000D02*
X106680000Y-66900000D01*
X107950000Y-70340000D02*
X107950000Y-68170000D01*
X106973009Y-125699991D02*
X109093000Y-123580000D01*
X105440009Y-125699991D02*
X106973009Y-125699991D01*
X104140000Y-127000000D02*
X105440009Y-125699991D01*
X96647000Y-124587000D02*
X96647000Y-123580000D01*
X99060000Y-127000000D02*
X96647000Y-124587000D01*
X94479000Y-127000000D02*
X91059000Y-123580000D01*
X96520000Y-127000000D02*
X94479000Y-127000000D01*
X97790000Y-68170000D02*
X99060000Y-66900000D01*
X97790000Y-70340000D02*
X97790000Y-68170000D01*
X96150000Y-66900000D02*
X96520000Y-66900000D01*
X92710000Y-70340000D02*
X96150000Y-66900000D01*
X114538000Y-123065000D02*
X114588000Y-123015000D01*
X111388000Y-127000000D02*
X114808000Y-123580000D01*
X106680000Y-127000000D02*
X111388000Y-127000000D01*
D21*
G36*
X125324592Y-131674000D02*
G01*
X77876000Y-131674000D01*
X77876000Y-121204999D01*
X87180928Y-121204999D01*
X87180928Y-121855001D01*
X87197992Y-122028255D01*
X87248528Y-122194851D01*
X87330595Y-122348387D01*
X87441038Y-122482962D01*
X87528816Y-122555000D01*
X87441038Y-122627038D01*
X87330595Y-122761613D01*
X87248528Y-122915149D01*
X87197992Y-123081745D01*
X87180928Y-123254999D01*
X87180928Y-123905001D01*
X87197992Y-124078255D01*
X87248528Y-124244851D01*
X87330595Y-124398387D01*
X87441038Y-124532962D01*
X87575613Y-124643405D01*
X87729149Y-124725472D01*
X87759000Y-124734527D01*
X87759001Y-129725286D01*
X87651563Y-129832724D01*
X87538295Y-130002242D01*
X87460274Y-130190600D01*
X87420500Y-130390559D01*
X87420500Y-130594437D01*
X87460274Y-130794396D01*
X87538295Y-130982754D01*
X87651563Y-131152272D01*
X87795726Y-131296435D01*
X87965244Y-131409703D01*
X88153602Y-131487724D01*
X88353561Y-131527498D01*
X88557439Y-131527498D01*
X88757398Y-131487724D01*
X88945756Y-131409703D01*
X89115274Y-131296435D01*
X89259437Y-131152272D01*
X89372705Y-130982754D01*
X89450726Y-130794396D01*
X89490500Y-130594437D01*
X89490500Y-130390559D01*
X89450726Y-130190600D01*
X89372705Y-130002242D01*
X89279000Y-129862002D01*
X89279000Y-124734527D01*
X89308851Y-124725472D01*
X89462387Y-124643405D01*
X89596962Y-124532962D01*
X89707405Y-124398387D01*
X89789000Y-124245734D01*
X89870595Y-124398387D01*
X89981038Y-124532962D01*
X90115613Y-124643405D01*
X90269149Y-124725472D01*
X90435745Y-124776008D01*
X90608999Y-124793072D01*
X91197271Y-124793072D01*
X93915205Y-127511008D01*
X93938999Y-127540001D01*
X93967992Y-127563795D01*
X93967996Y-127563799D01*
X94038685Y-127621811D01*
X94054724Y-127634974D01*
X94186753Y-127705546D01*
X94330014Y-127749003D01*
X94441667Y-127760000D01*
X94441676Y-127760000D01*
X94478999Y-127763676D01*
X94516322Y-127760000D01*
X95031928Y-127760000D01*
X95031928Y-127850000D01*
X95044188Y-127974482D01*
X95080498Y-128094180D01*
X95139463Y-128204494D01*
X95218815Y-128301185D01*
X95315506Y-128380537D01*
X95425820Y-128439502D01*
X95545518Y-128475812D01*
X95670000Y-128488072D01*
X97370000Y-128488072D01*
X97494482Y-128475812D01*
X97614180Y-128439502D01*
X97724494Y-128380537D01*
X97821185Y-128301185D01*
X97900537Y-128204494D01*
X97959502Y-128094180D01*
X97981513Y-128021620D01*
X98113368Y-128153475D01*
X98356589Y-128315990D01*
X98626842Y-128427932D01*
X98913740Y-128485000D01*
X99206260Y-128485000D01*
X99493158Y-128427932D01*
X99763411Y-128315990D01*
X100006632Y-128153475D01*
X100213475Y-127946632D01*
X100330000Y-127772240D01*
X100446525Y-127946632D01*
X100653368Y-128153475D01*
X100896589Y-128315990D01*
X101166842Y-128427932D01*
X101453740Y-128485000D01*
X101746260Y-128485000D01*
X102033158Y-128427932D01*
X102303411Y-128315990D01*
X102546632Y-128153475D01*
X102753475Y-127946632D01*
X102870000Y-127772240D01*
X102986525Y-127946632D01*
X103193368Y-128153475D01*
X103436589Y-128315990D01*
X103706842Y-128427932D01*
X103993740Y-128485000D01*
X104286260Y-128485000D01*
X104573158Y-128427932D01*
X104843411Y-128315990D01*
X105086632Y-128153475D01*
X105293475Y-127946632D01*
X105410000Y-127772240D01*
X105526525Y-127946632D01*
X105733368Y-128153475D01*
X105976589Y-128315990D01*
X106246842Y-128427932D01*
X106533740Y-128485000D01*
X106826260Y-128485000D01*
X107113158Y-128427932D01*
X107383411Y-128315990D01*
X107626632Y-128153475D01*
X107833475Y-127946632D01*
X107958178Y-127760000D01*
X111350678Y-127760000D01*
X111388000Y-127763676D01*
X111425322Y-127760000D01*
X111425333Y-127760000D01*
X111536986Y-127749003D01*
X111680247Y-127705546D01*
X111812276Y-127634974D01*
X111928001Y-127540001D01*
X111951804Y-127510997D01*
X114669731Y-124793072D01*
X115258001Y-124793072D01*
X115431255Y-124776008D01*
X115597851Y-124725472D01*
X115751387Y-124643405D01*
X115885962Y-124532962D01*
X115996405Y-124398387D01*
X116078472Y-124244851D01*
X116129008Y-124078255D01*
X116146072Y-123905001D01*
X116146072Y-123254999D01*
X116129008Y-123081745D01*
X116078472Y-122915149D01*
X115996405Y-122761613D01*
X115885962Y-122627038D01*
X115798184Y-122555000D01*
X115885962Y-122482962D01*
X115996405Y-122348387D01*
X116078472Y-122194851D01*
X116129008Y-122028255D01*
X116146072Y-121855001D01*
X116146072Y-121204999D01*
X116129008Y-121031745D01*
X116078472Y-120865149D01*
X115996405Y-120711613D01*
X115885962Y-120577038D01*
X115751387Y-120466595D01*
X115597851Y-120384528D01*
X115568000Y-120375473D01*
X115568000Y-118456957D01*
X115577502Y-118439180D01*
X115613812Y-118319482D01*
X115626072Y-118195000D01*
X115626072Y-117395000D01*
X115613812Y-117270518D01*
X115577502Y-117150820D01*
X115518537Y-117040506D01*
X115439185Y-116943815D01*
X115342494Y-116864463D01*
X115232180Y-116805498D01*
X115112482Y-116769188D01*
X114988000Y-116756928D01*
X114088000Y-116756928D01*
X113963518Y-116769188D01*
X113843820Y-116805498D01*
X113733506Y-116864463D01*
X113636815Y-116943815D01*
X113557463Y-117040506D01*
X113548857Y-117056607D01*
X113464250Y-116972000D01*
X112665000Y-116972000D01*
X112665000Y-116992000D01*
X112411000Y-116992000D01*
X112411000Y-116972000D01*
X111611750Y-116972000D01*
X111453000Y-117130750D01*
X111449928Y-117245000D01*
X111462188Y-117369482D01*
X111498498Y-117489180D01*
X111557463Y-117599494D01*
X111636815Y-117696185D01*
X111733506Y-117775537D01*
X111769918Y-117795000D01*
X111733506Y-117814463D01*
X111636815Y-117893815D01*
X111557463Y-117990506D01*
X111498498Y-118100820D01*
X111462188Y-118220518D01*
X111449928Y-118345000D01*
X111449928Y-119145000D01*
X111462188Y-119269482D01*
X111498498Y-119389180D01*
X111508001Y-119406958D01*
X111508000Y-120375473D01*
X111478149Y-120384528D01*
X111324613Y-120466595D01*
X111190038Y-120577038D01*
X111079595Y-120711613D01*
X110997528Y-120865149D01*
X110946992Y-121031745D01*
X110929928Y-121204999D01*
X110929928Y-121855001D01*
X110946992Y-122028255D01*
X110997528Y-122194851D01*
X111079595Y-122348387D01*
X111190038Y-122482962D01*
X111277816Y-122555000D01*
X111190038Y-122627038D01*
X111079595Y-122761613D01*
X110997528Y-122915149D01*
X110946992Y-123081745D01*
X110929928Y-123254999D01*
X110929928Y-123843271D01*
X110693081Y-124080118D01*
X110591939Y-124060000D01*
X110415806Y-124060000D01*
X110431072Y-123905001D01*
X110431072Y-123254999D01*
X110414008Y-123081745D01*
X110363472Y-122915149D01*
X110281405Y-122761613D01*
X110170962Y-122627038D01*
X110083184Y-122555000D01*
X110170962Y-122482962D01*
X110281405Y-122348387D01*
X110363472Y-122194851D01*
X110414008Y-122028255D01*
X110431072Y-121855001D01*
X110431072Y-121204999D01*
X110414008Y-121031745D01*
X110363472Y-120865149D01*
X110281405Y-120711613D01*
X110170962Y-120577038D01*
X110036387Y-120466595D01*
X109882851Y-120384528D01*
X109853000Y-120375473D01*
X109853000Y-118643973D01*
X109930537Y-118549494D01*
X109989502Y-118439180D01*
X110025812Y-118319482D01*
X110038072Y-118195000D01*
X110038072Y-117395000D01*
X110025812Y-117270518D01*
X109989502Y-117150820D01*
X109930537Y-117040506D01*
X109851185Y-116943815D01*
X109754494Y-116864463D01*
X109644180Y-116805498D01*
X109524482Y-116769188D01*
X109400000Y-116756928D01*
X108500000Y-116756928D01*
X108375518Y-116769188D01*
X108255820Y-116805498D01*
X108145506Y-116864463D01*
X108048815Y-116943815D01*
X107969463Y-117040506D01*
X107960857Y-117056607D01*
X107876250Y-116972000D01*
X107077000Y-116972000D01*
X107077000Y-116992000D01*
X106823000Y-116992000D01*
X106823000Y-116972000D01*
X106023750Y-116972000D01*
X105865000Y-117130750D01*
X105861928Y-117245000D01*
X105874188Y-117369482D01*
X105910498Y-117489180D01*
X105969463Y-117599494D01*
X106048815Y-117696185D01*
X106145506Y-117775537D01*
X106181918Y-117795000D01*
X106145506Y-117814463D01*
X106048815Y-117893815D01*
X105969463Y-117990506D01*
X105910498Y-118100820D01*
X105874188Y-118220518D01*
X105861928Y-118345000D01*
X105861928Y-118822675D01*
X105847454Y-118849754D01*
X105824018Y-118927015D01*
X105803998Y-118993014D01*
X105793633Y-119098246D01*
X105789324Y-119142000D01*
X105793001Y-119179332D01*
X105793000Y-120375473D01*
X105763149Y-120384528D01*
X105609613Y-120466595D01*
X105475038Y-120577038D01*
X105364595Y-120711613D01*
X105282528Y-120865149D01*
X105231992Y-121031745D01*
X105214928Y-121204999D01*
X105214928Y-121855001D01*
X105231992Y-122028255D01*
X105282528Y-122194851D01*
X105364595Y-122348387D01*
X105475038Y-122482962D01*
X105562816Y-122555000D01*
X105475038Y-122627038D01*
X105364595Y-122761613D01*
X105282528Y-122915149D01*
X105281736Y-122917759D01*
X105230724Y-122945026D01*
X105114999Y-123039999D01*
X105091201Y-123068997D01*
X104100199Y-124060000D01*
X104038061Y-124060000D01*
X103838102Y-124099774D01*
X103649744Y-124177795D01*
X103480226Y-124291063D01*
X103336063Y-124435226D01*
X103222795Y-124604744D01*
X103144774Y-124793102D01*
X103105000Y-124993061D01*
X103105000Y-125196939D01*
X103144774Y-125396898D01*
X103222795Y-125585256D01*
X103334402Y-125752289D01*
X103193368Y-125846525D01*
X102986525Y-126053368D01*
X102870000Y-126227760D01*
X102753475Y-126053368D01*
X102546632Y-125846525D01*
X102485000Y-125805344D01*
X102485000Y-124684981D01*
X102530537Y-124629494D01*
X102589502Y-124519180D01*
X102625812Y-124399482D01*
X102638072Y-124275000D01*
X102638072Y-123375000D01*
X102625812Y-123250518D01*
X102589502Y-123130820D01*
X102530537Y-123020506D01*
X102451185Y-122923815D01*
X102438095Y-122913072D01*
X102950000Y-122913072D01*
X103074482Y-122900812D01*
X103194180Y-122864502D01*
X103304494Y-122805537D01*
X103401185Y-122726185D01*
X103414468Y-122710000D01*
X103466289Y-122710000D01*
X103480226Y-122723937D01*
X103649744Y-122837205D01*
X103838102Y-122915226D01*
X104038061Y-122955000D01*
X104241939Y-122955000D01*
X104441898Y-122915226D01*
X104630256Y-122837205D01*
X104799774Y-122723937D01*
X104943937Y-122579774D01*
X105057205Y-122410256D01*
X105135226Y-122221898D01*
X105175000Y-122021939D01*
X105175000Y-121818061D01*
X105135226Y-121618102D01*
X105057205Y-121429744D01*
X105025000Y-121381546D01*
X105025000Y-119839614D01*
X105083387Y-119808405D01*
X105217962Y-119697962D01*
X105328405Y-119563387D01*
X105410472Y-119409851D01*
X105461008Y-119243255D01*
X105478072Y-119070001D01*
X105478072Y-118419999D01*
X105461008Y-118246745D01*
X105410472Y-118080149D01*
X105328405Y-117926613D01*
X105217962Y-117792038D01*
X105130184Y-117720000D01*
X105217962Y-117647962D01*
X105328405Y-117513387D01*
X105410472Y-117359851D01*
X105461008Y-117193255D01*
X105478072Y-117020001D01*
X105478072Y-116445000D01*
X105861928Y-116445000D01*
X105865000Y-116559250D01*
X106023750Y-116718000D01*
X106823000Y-116718000D01*
X106823000Y-115968750D01*
X107077000Y-115968750D01*
X107077000Y-116718000D01*
X107876250Y-116718000D01*
X108035000Y-116559250D01*
X108038072Y-116445000D01*
X111449928Y-116445000D01*
X111453000Y-116559250D01*
X111611750Y-116718000D01*
X112411000Y-116718000D01*
X112411000Y-115968750D01*
X112665000Y-115968750D01*
X112665000Y-116718000D01*
X113464250Y-116718000D01*
X113623000Y-116559250D01*
X113626072Y-116445000D01*
X113613812Y-116320518D01*
X113577502Y-116200820D01*
X113518537Y-116090506D01*
X113439185Y-115993815D01*
X113342494Y-115914463D01*
X113232180Y-115855498D01*
X113112482Y-115819188D01*
X112988000Y-115806928D01*
X112823750Y-115810000D01*
X112665000Y-115968750D01*
X112411000Y-115968750D01*
X112252250Y-115810000D01*
X112088000Y-115806928D01*
X111963518Y-115819188D01*
X111843820Y-115855498D01*
X111733506Y-115914463D01*
X111636815Y-115993815D01*
X111557463Y-116090506D01*
X111498498Y-116200820D01*
X111462188Y-116320518D01*
X111449928Y-116445000D01*
X108038072Y-116445000D01*
X108025812Y-116320518D01*
X107989502Y-116200820D01*
X107930537Y-116090506D01*
X107851185Y-115993815D01*
X107754494Y-115914463D01*
X107644180Y-115855498D01*
X107524482Y-115819188D01*
X107400000Y-115806928D01*
X107235750Y-115810000D01*
X107077000Y-115968750D01*
X106823000Y-115968750D01*
X106664250Y-115810000D01*
X106500000Y-115806928D01*
X106375518Y-115819188D01*
X106255820Y-115855498D01*
X106145506Y-115914463D01*
X106048815Y-115993815D01*
X105969463Y-116090506D01*
X105910498Y-116200820D01*
X105874188Y-116320518D01*
X105861928Y-116445000D01*
X105478072Y-116445000D01*
X105478072Y-116369999D01*
X105461008Y-116196745D01*
X105410472Y-116030149D01*
X105328405Y-115876613D01*
X105217962Y-115742038D01*
X105083387Y-115631595D01*
X104929851Y-115549528D01*
X104763255Y-115498992D01*
X104590001Y-115481928D01*
X103689999Y-115481928D01*
X103516745Y-115498992D01*
X103350149Y-115549528D01*
X103196613Y-115631595D01*
X103062038Y-115742038D01*
X102951595Y-115876613D01*
X102920386Y-115935000D01*
X102819614Y-115935000D01*
X102788405Y-115876613D01*
X102677962Y-115742038D01*
X102543387Y-115631595D01*
X102389851Y-115549528D01*
X102223255Y-115498992D01*
X102050001Y-115481928D01*
X101885333Y-115481928D01*
X101895537Y-115469494D01*
X101954502Y-115359180D01*
X101990812Y-115239482D01*
X102003072Y-115115000D01*
X102003072Y-114215000D01*
X101990812Y-114090518D01*
X101954502Y-113970820D01*
X101895537Y-113860506D01*
X101816185Y-113763815D01*
X101719494Y-113684463D01*
X101703393Y-113675857D01*
X101788000Y-113591250D01*
X101788000Y-112792000D01*
X102042000Y-112792000D01*
X102042000Y-113591250D01*
X102200750Y-113750000D01*
X102315000Y-113753072D01*
X102439482Y-113740812D01*
X102559180Y-113704502D01*
X102669494Y-113645537D01*
X102766185Y-113566185D01*
X102845537Y-113469494D01*
X102904502Y-113359180D01*
X102940812Y-113239482D01*
X102953072Y-113115000D01*
X102950000Y-112950750D01*
X102791250Y-112792000D01*
X102042000Y-112792000D01*
X101788000Y-112792000D01*
X101768000Y-112792000D01*
X101768000Y-112538000D01*
X101788000Y-112538000D01*
X101788000Y-111738750D01*
X102042000Y-111738750D01*
X102042000Y-112538000D01*
X102791250Y-112538000D01*
X102950000Y-112379250D01*
X102953072Y-112215000D01*
X102940812Y-112090518D01*
X102904502Y-111970820D01*
X102845537Y-111860506D01*
X102766185Y-111763815D01*
X102669494Y-111684463D01*
X102559180Y-111625498D01*
X102439482Y-111589188D01*
X102315000Y-111576928D01*
X102200750Y-111580000D01*
X102042000Y-111738750D01*
X101788000Y-111738750D01*
X101629250Y-111580000D01*
X101515000Y-111576928D01*
X101390518Y-111589188D01*
X101270820Y-111625498D01*
X101160506Y-111684463D01*
X101063815Y-111763815D01*
X100984463Y-111860506D01*
X100965000Y-111896918D01*
X100945537Y-111860506D01*
X100866185Y-111763815D01*
X100769494Y-111684463D01*
X100659180Y-111625498D01*
X100539482Y-111589188D01*
X100415000Y-111576928D01*
X99615000Y-111576928D01*
X99490518Y-111589188D01*
X99370820Y-111625498D01*
X99260506Y-111684463D01*
X99163815Y-111763815D01*
X99084463Y-111860506D01*
X99025498Y-111970820D01*
X99020468Y-111987401D01*
X98940724Y-112030026D01*
X98824999Y-112124999D01*
X98801196Y-112154003D01*
X98548998Y-112406201D01*
X98520000Y-112429999D01*
X98496202Y-112458997D01*
X98496201Y-112458998D01*
X98425026Y-112545724D01*
X98354454Y-112677754D01*
X98310998Y-112821015D01*
X98296324Y-112970000D01*
X98300001Y-113007332D01*
X98300000Y-115540473D01*
X98270149Y-115549528D01*
X98116613Y-115631595D01*
X97982038Y-115742038D01*
X97871595Y-115876613D01*
X97789528Y-116030149D01*
X97738992Y-116196745D01*
X97721928Y-116369999D01*
X97721928Y-117020001D01*
X97738992Y-117193255D01*
X97789528Y-117359851D01*
X97871595Y-117513387D01*
X97982038Y-117647962D01*
X98069816Y-117720000D01*
X97982038Y-117792038D01*
X97871595Y-117926613D01*
X97789528Y-118080149D01*
X97738992Y-118246745D01*
X97721928Y-118419999D01*
X97721928Y-119070001D01*
X97738992Y-119243255D01*
X97789528Y-119409851D01*
X97871595Y-119563387D01*
X97982038Y-119697962D01*
X98116613Y-119808405D01*
X98270149Y-119890472D01*
X98300000Y-119899527D01*
X98300001Y-121216288D01*
X98256063Y-121260226D01*
X98142795Y-121429744D01*
X98064774Y-121618102D01*
X98025000Y-121818061D01*
X98025000Y-122021939D01*
X98064774Y-122221898D01*
X98142795Y-122410256D01*
X98256063Y-122579774D01*
X98400226Y-122723937D01*
X98569744Y-122837205D01*
X98758102Y-122915226D01*
X98958061Y-122955000D01*
X99161939Y-122955000D01*
X99361898Y-122915226D01*
X99550256Y-122837205D01*
X99719774Y-122723937D01*
X99762174Y-122681537D01*
X99798815Y-122726185D01*
X99895506Y-122805537D01*
X100005820Y-122864502D01*
X100125518Y-122900812D01*
X100250000Y-122913072D01*
X100761905Y-122913072D01*
X100748815Y-122923815D01*
X100669463Y-123020506D01*
X100610498Y-123130820D01*
X100574188Y-123250518D01*
X100561928Y-123375000D01*
X100561928Y-124275000D01*
X100574188Y-124399482D01*
X100610498Y-124519180D01*
X100669463Y-124629494D01*
X100715001Y-124684982D01*
X100715000Y-125805344D01*
X100653368Y-125846525D01*
X100446525Y-126053368D01*
X100330000Y-126227760D01*
X100213475Y-126053368D01*
X100006632Y-125846525D01*
X99763411Y-125684010D01*
X99493158Y-125572068D01*
X99206260Y-125515000D01*
X98913740Y-125515000D01*
X98693592Y-125558790D01*
X97693546Y-124558745D01*
X97724962Y-124532962D01*
X97835405Y-124398387D01*
X97917472Y-124244851D01*
X97968008Y-124078255D01*
X97985072Y-123905001D01*
X97985072Y-123254999D01*
X97968008Y-123081745D01*
X97917472Y-122915149D01*
X97835405Y-122761613D01*
X97724962Y-122627038D01*
X97637184Y-122555000D01*
X97724962Y-122482962D01*
X97835405Y-122348387D01*
X97917472Y-122194851D01*
X97968008Y-122028255D01*
X97985072Y-121855001D01*
X97985072Y-121204999D01*
X97968008Y-121031745D01*
X97917472Y-120865149D01*
X97835405Y-120711613D01*
X97724962Y-120577038D01*
X97590387Y-120466595D01*
X97436851Y-120384528D01*
X97407000Y-120375473D01*
X97407000Y-118456957D01*
X97416502Y-118439180D01*
X97452812Y-118319482D01*
X97465072Y-118195000D01*
X97465072Y-117395000D01*
X97452812Y-117270518D01*
X97416502Y-117150820D01*
X97357537Y-117040506D01*
X97278185Y-116943815D01*
X97181494Y-116864463D01*
X97071180Y-116805498D01*
X96951482Y-116769188D01*
X96827000Y-116756928D01*
X95927000Y-116756928D01*
X95802518Y-116769188D01*
X95682820Y-116805498D01*
X95572506Y-116864463D01*
X95475815Y-116943815D01*
X95396463Y-117040506D01*
X95387857Y-117056607D01*
X95303250Y-116972000D01*
X94504000Y-116972000D01*
X94504000Y-116992000D01*
X94250000Y-116992000D01*
X94250000Y-116972000D01*
X93450750Y-116972000D01*
X93292000Y-117130750D01*
X93288928Y-117245000D01*
X93301188Y-117369482D01*
X93337498Y-117489180D01*
X93396463Y-117599494D01*
X93475815Y-117696185D01*
X93572506Y-117775537D01*
X93608918Y-117795000D01*
X93572506Y-117814463D01*
X93475815Y-117893815D01*
X93396463Y-117990506D01*
X93337498Y-118100820D01*
X93301188Y-118220518D01*
X93288928Y-118345000D01*
X93288928Y-119145000D01*
X93301188Y-119269482D01*
X93337498Y-119389180D01*
X93347001Y-119406958D01*
X93347000Y-120375473D01*
X93317149Y-120384528D01*
X93163613Y-120466595D01*
X93029038Y-120577038D01*
X92918595Y-120711613D01*
X92836528Y-120865149D01*
X92785992Y-121031745D01*
X92768928Y-121204999D01*
X92768928Y-121855001D01*
X92785992Y-122028255D01*
X92836528Y-122194851D01*
X92918595Y-122348387D01*
X93029038Y-122482962D01*
X93116816Y-122555000D01*
X93029038Y-122627038D01*
X92918595Y-122761613D01*
X92836528Y-122915149D01*
X92785992Y-123081745D01*
X92768928Y-123254999D01*
X92768928Y-123905001D01*
X92785992Y-124078255D01*
X92836528Y-124244851D01*
X92880020Y-124326218D01*
X92397072Y-123843271D01*
X92397072Y-123254999D01*
X92380008Y-123081745D01*
X92329472Y-122915149D01*
X92247405Y-122761613D01*
X92136962Y-122627038D01*
X92049184Y-122555000D01*
X92136962Y-122482962D01*
X92247405Y-122348387D01*
X92329472Y-122194851D01*
X92380008Y-122028255D01*
X92397072Y-121855001D01*
X92397072Y-121204999D01*
X92380008Y-121031745D01*
X92329472Y-120865149D01*
X92247405Y-120711613D01*
X92136962Y-120577038D01*
X92002387Y-120466595D01*
X91848851Y-120384528D01*
X91819000Y-120375473D01*
X91819000Y-118517957D01*
X91828502Y-118500180D01*
X91864812Y-118380482D01*
X91877072Y-118256000D01*
X91877072Y-117456000D01*
X91864812Y-117331518D01*
X91828502Y-117211820D01*
X91769537Y-117101506D01*
X91690185Y-117004815D01*
X91593494Y-116925463D01*
X91483180Y-116866498D01*
X91363482Y-116830188D01*
X91239000Y-116817928D01*
X90339000Y-116817928D01*
X90214518Y-116830188D01*
X90094820Y-116866498D01*
X89984506Y-116925463D01*
X89887815Y-117004815D01*
X89808463Y-117101506D01*
X89799857Y-117117607D01*
X89715250Y-117033000D01*
X88916000Y-117033000D01*
X88916000Y-117053000D01*
X88662000Y-117053000D01*
X88662000Y-117033000D01*
X87862750Y-117033000D01*
X87704000Y-117191750D01*
X87700928Y-117306000D01*
X87713188Y-117430482D01*
X87749498Y-117550180D01*
X87808463Y-117660494D01*
X87887815Y-117757185D01*
X87984506Y-117836537D01*
X88020918Y-117856000D01*
X87984506Y-117875463D01*
X87887815Y-117954815D01*
X87808463Y-118051506D01*
X87749498Y-118161820D01*
X87713188Y-118281518D01*
X87700928Y-118406000D01*
X87700928Y-119206000D01*
X87713188Y-119330482D01*
X87749498Y-119450180D01*
X87759001Y-119467958D01*
X87759000Y-120375473D01*
X87729149Y-120384528D01*
X87575613Y-120466595D01*
X87441038Y-120577038D01*
X87330595Y-120711613D01*
X87248528Y-120865149D01*
X87197992Y-121031745D01*
X87180928Y-121204999D01*
X77876000Y-121204999D01*
X77876000Y-116506000D01*
X87700928Y-116506000D01*
X87704000Y-116620250D01*
X87862750Y-116779000D01*
X88662000Y-116779000D01*
X88662000Y-116029750D01*
X88916000Y-116029750D01*
X88916000Y-116779000D01*
X89715250Y-116779000D01*
X89874000Y-116620250D01*
X89877072Y-116506000D01*
X89871065Y-116445000D01*
X93288928Y-116445000D01*
X93292000Y-116559250D01*
X93450750Y-116718000D01*
X94250000Y-116718000D01*
X94250000Y-115968750D01*
X94504000Y-115968750D01*
X94504000Y-116718000D01*
X95303250Y-116718000D01*
X95462000Y-116559250D01*
X95465072Y-116445000D01*
X95452812Y-116320518D01*
X95416502Y-116200820D01*
X95357537Y-116090506D01*
X95278185Y-115993815D01*
X95181494Y-115914463D01*
X95071180Y-115855498D01*
X94951482Y-115819188D01*
X94827000Y-115806928D01*
X94662750Y-115810000D01*
X94504000Y-115968750D01*
X94250000Y-115968750D01*
X94091250Y-115810000D01*
X93927000Y-115806928D01*
X93802518Y-115819188D01*
X93682820Y-115855498D01*
X93572506Y-115914463D01*
X93475815Y-115993815D01*
X93396463Y-116090506D01*
X93337498Y-116200820D01*
X93301188Y-116320518D01*
X93288928Y-116445000D01*
X89871065Y-116445000D01*
X89864812Y-116381518D01*
X89828502Y-116261820D01*
X89769537Y-116151506D01*
X89690185Y-116054815D01*
X89593494Y-115975463D01*
X89483180Y-115916498D01*
X89363482Y-115880188D01*
X89239000Y-115867928D01*
X89074750Y-115871000D01*
X88916000Y-116029750D01*
X88662000Y-116029750D01*
X88503250Y-115871000D01*
X88339000Y-115867928D01*
X88214518Y-115880188D01*
X88094820Y-115916498D01*
X87984506Y-115975463D01*
X87887815Y-116054815D01*
X87808463Y-116151506D01*
X87749498Y-116261820D01*
X87713188Y-116381518D01*
X87700928Y-116506000D01*
X77876000Y-116506000D01*
X77876000Y-101600000D01*
X86137815Y-101600000D01*
X86166487Y-101891111D01*
X86251401Y-102171034D01*
X86389294Y-102429014D01*
X86574866Y-102655134D01*
X86800986Y-102840706D01*
X86855791Y-102870000D01*
X86800986Y-102899294D01*
X86574866Y-103084866D01*
X86389294Y-103310986D01*
X86251401Y-103568966D01*
X86166487Y-103848889D01*
X86137815Y-104140000D01*
X86166487Y-104431111D01*
X86251401Y-104711034D01*
X86389294Y-104969014D01*
X86574866Y-105195134D01*
X86800986Y-105380706D01*
X87058966Y-105518599D01*
X87338889Y-105603513D01*
X87557050Y-105625000D01*
X87702950Y-105625000D01*
X87921111Y-105603513D01*
X88201034Y-105518599D01*
X88459014Y-105380706D01*
X88685134Y-105195134D01*
X88870706Y-104969014D01*
X89008599Y-104711034D01*
X89093513Y-104431111D01*
X89122185Y-104140000D01*
X89093513Y-103848889D01*
X89008599Y-103568966D01*
X88870706Y-103310986D01*
X88685134Y-103084866D01*
X88459014Y-102899294D01*
X88404209Y-102870000D01*
X88459014Y-102840706D01*
X88685134Y-102655134D01*
X88870706Y-102429014D01*
X89008599Y-102171034D01*
X89093513Y-101891111D01*
X89122185Y-101600000D01*
X113677815Y-101600000D01*
X113706487Y-101891111D01*
X113791401Y-102171034D01*
X113929294Y-102429014D01*
X114114866Y-102655134D01*
X114340986Y-102840706D01*
X114395791Y-102870000D01*
X114340986Y-102899294D01*
X114114866Y-103084866D01*
X113929294Y-103310986D01*
X113791401Y-103568966D01*
X113706487Y-103848889D01*
X113677815Y-104140000D01*
X113706487Y-104431111D01*
X113791401Y-104711034D01*
X113929294Y-104969014D01*
X114114866Y-105195134D01*
X114340986Y-105380706D01*
X114395791Y-105410000D01*
X114340986Y-105439294D01*
X114114866Y-105624866D01*
X113929294Y-105850986D01*
X113791401Y-106108966D01*
X113706487Y-106388889D01*
X113677815Y-106680000D01*
X113706487Y-106971111D01*
X113791401Y-107251034D01*
X113929294Y-107509014D01*
X114114866Y-107735134D01*
X114340986Y-107920706D01*
X114598966Y-108058599D01*
X114878889Y-108143513D01*
X115097050Y-108165000D01*
X115242950Y-108165000D01*
X115461111Y-108143513D01*
X115741034Y-108058599D01*
X115999014Y-107920706D01*
X116225134Y-107735134D01*
X116410706Y-107509014D01*
X116548599Y-107251034D01*
X116633513Y-106971111D01*
X116662185Y-106680000D01*
X116633513Y-106388889D01*
X116548599Y-106108966D01*
X116410706Y-105850986D01*
X116225134Y-105624866D01*
X115999014Y-105439294D01*
X115944209Y-105410000D01*
X115999014Y-105380706D01*
X116225134Y-105195134D01*
X116410706Y-104969014D01*
X116548599Y-104711034D01*
X116633513Y-104431111D01*
X116662185Y-104140000D01*
X116633513Y-103848889D01*
X116548599Y-103568966D01*
X116410706Y-103310986D01*
X116225134Y-103084866D01*
X115999014Y-102899294D01*
X115944209Y-102870000D01*
X115999014Y-102840706D01*
X116225134Y-102655134D01*
X116410706Y-102429014D01*
X116548599Y-102171034D01*
X116633513Y-101891111D01*
X116662185Y-101600000D01*
X116633513Y-101308889D01*
X116548599Y-101028966D01*
X116410706Y-100770986D01*
X116225134Y-100544866D01*
X115999014Y-100359294D01*
X115934477Y-100324799D01*
X116051355Y-100255178D01*
X116267588Y-100060269D01*
X116441641Y-99826920D01*
X116566825Y-99564099D01*
X116611476Y-99416890D01*
X116490155Y-99187000D01*
X115297000Y-99187000D01*
X115297000Y-99207000D01*
X115043000Y-99207000D01*
X115043000Y-99187000D01*
X113849845Y-99187000D01*
X113728524Y-99416890D01*
X113773175Y-99564099D01*
X113898359Y-99826920D01*
X114072412Y-100060269D01*
X114288645Y-100255178D01*
X114405523Y-100324799D01*
X114340986Y-100359294D01*
X114114866Y-100544866D01*
X113929294Y-100770986D01*
X113791401Y-101028966D01*
X113706487Y-101308889D01*
X113677815Y-101600000D01*
X89122185Y-101600000D01*
X89093513Y-101308889D01*
X89008599Y-101028966D01*
X88870706Y-100770986D01*
X88685134Y-100544866D01*
X88459014Y-100359294D01*
X88394477Y-100324799D01*
X88511355Y-100255178D01*
X88727588Y-100060269D01*
X88901641Y-99826920D01*
X89026825Y-99564099D01*
X89071476Y-99416890D01*
X88950155Y-99187000D01*
X87757000Y-99187000D01*
X87757000Y-99207000D01*
X87503000Y-99207000D01*
X87503000Y-99187000D01*
X86309845Y-99187000D01*
X86188524Y-99416890D01*
X86233175Y-99564099D01*
X86358359Y-99826920D01*
X86532412Y-100060269D01*
X86748645Y-100255178D01*
X86865523Y-100324799D01*
X86800986Y-100359294D01*
X86574866Y-100544866D01*
X86389294Y-100770986D01*
X86251401Y-101028966D01*
X86166487Y-101308889D01*
X86137815Y-101600000D01*
X77876000Y-101600000D01*
X77876000Y-93980000D01*
X86137815Y-93980000D01*
X86166487Y-94271111D01*
X86251401Y-94551034D01*
X86389294Y-94809014D01*
X86574866Y-95035134D01*
X86800986Y-95220706D01*
X86855791Y-95250000D01*
X86800986Y-95279294D01*
X86574866Y-95464866D01*
X86389294Y-95690986D01*
X86251401Y-95948966D01*
X86166487Y-96228889D01*
X86137815Y-96520000D01*
X86166487Y-96811111D01*
X86251401Y-97091034D01*
X86389294Y-97349014D01*
X86574866Y-97575134D01*
X86800986Y-97760706D01*
X86865523Y-97795201D01*
X86748645Y-97864822D01*
X86532412Y-98059731D01*
X86358359Y-98293080D01*
X86233175Y-98555901D01*
X86188524Y-98703110D01*
X86309845Y-98933000D01*
X87503000Y-98933000D01*
X87503000Y-98913000D01*
X87757000Y-98913000D01*
X87757000Y-98933000D01*
X88950155Y-98933000D01*
X89071476Y-98703110D01*
X89026825Y-98555901D01*
X88901641Y-98293080D01*
X88727588Y-98059731D01*
X88511355Y-97864822D01*
X88394477Y-97795201D01*
X88459014Y-97760706D01*
X88685134Y-97575134D01*
X88870706Y-97349014D01*
X88907595Y-97280000D01*
X97558500Y-97280000D01*
X97595822Y-97283676D01*
X97633144Y-97280000D01*
X97633155Y-97280000D01*
X97744808Y-97269003D01*
X97888069Y-97225546D01*
X98020098Y-97154974D01*
X98135823Y-97060001D01*
X98159626Y-97030997D01*
X98585623Y-96605000D01*
X102601928Y-96605000D01*
X102614188Y-96729482D01*
X102650498Y-96849180D01*
X102709463Y-96959494D01*
X102788815Y-97056185D01*
X102885506Y-97135537D01*
X102995820Y-97194502D01*
X103115518Y-97230812D01*
X103240000Y-97243072D01*
X103654250Y-97240000D01*
X103813000Y-97081250D01*
X103813000Y-96157000D01*
X104067000Y-96157000D01*
X104067000Y-97081250D01*
X104225750Y-97240000D01*
X104640000Y-97243072D01*
X104764482Y-97230812D01*
X104884180Y-97194502D01*
X104994494Y-97135537D01*
X105091185Y-97056185D01*
X105170537Y-96959494D01*
X105229502Y-96849180D01*
X105265812Y-96729482D01*
X105278072Y-96605000D01*
X105275000Y-96315750D01*
X105116250Y-96157000D01*
X104067000Y-96157000D01*
X103813000Y-96157000D01*
X102763750Y-96157000D01*
X102605000Y-96315750D01*
X102601928Y-96605000D01*
X98585623Y-96605000D01*
X100062844Y-95127779D01*
X100161063Y-95274774D01*
X100305226Y-95418937D01*
X100474744Y-95532205D01*
X100663102Y-95610226D01*
X100863061Y-95650000D01*
X101066939Y-95650000D01*
X101266898Y-95610226D01*
X101455256Y-95532205D01*
X101503454Y-95500000D01*
X102602406Y-95500000D01*
X102605000Y-95744250D01*
X102763750Y-95903000D01*
X103813000Y-95903000D01*
X103813000Y-95883000D01*
X104067000Y-95883000D01*
X104067000Y-95903000D01*
X105116250Y-95903000D01*
X105275000Y-95744250D01*
X105278072Y-95455000D01*
X105265812Y-95330518D01*
X105229502Y-95210820D01*
X105170537Y-95100506D01*
X105091185Y-95003815D01*
X105011406Y-94938342D01*
X105017962Y-94932962D01*
X105128405Y-94798387D01*
X105210472Y-94644851D01*
X105261008Y-94478255D01*
X105278072Y-94305001D01*
X105278072Y-93980000D01*
X113677815Y-93980000D01*
X113706487Y-94271111D01*
X113791401Y-94551034D01*
X113929294Y-94809014D01*
X114114866Y-95035134D01*
X114340986Y-95220706D01*
X114395791Y-95250000D01*
X114340986Y-95279294D01*
X114114866Y-95464866D01*
X113929294Y-95690986D01*
X113791401Y-95948966D01*
X113706487Y-96228889D01*
X113677815Y-96520000D01*
X113706487Y-96811111D01*
X113791401Y-97091034D01*
X113929294Y-97349014D01*
X114114866Y-97575134D01*
X114340986Y-97760706D01*
X114405523Y-97795201D01*
X114288645Y-97864822D01*
X114072412Y-98059731D01*
X113898359Y-98293080D01*
X113773175Y-98555901D01*
X113728524Y-98703110D01*
X113849845Y-98933000D01*
X115043000Y-98933000D01*
X115043000Y-98913000D01*
X115297000Y-98913000D01*
X115297000Y-98933000D01*
X116490155Y-98933000D01*
X116611476Y-98703110D01*
X116566825Y-98555901D01*
X116441641Y-98293080D01*
X116267588Y-98059731D01*
X116051355Y-97864822D01*
X115934477Y-97795201D01*
X115999014Y-97760706D01*
X116225134Y-97575134D01*
X116410706Y-97349014D01*
X116548599Y-97091034D01*
X116633513Y-96811111D01*
X116662185Y-96520000D01*
X116633513Y-96228889D01*
X116548599Y-95948966D01*
X116410706Y-95690986D01*
X116225134Y-95464866D01*
X115999014Y-95279294D01*
X115944209Y-95250000D01*
X115999014Y-95220706D01*
X116225134Y-95035134D01*
X116410706Y-94809014D01*
X116548599Y-94551034D01*
X116633513Y-94271111D01*
X116662185Y-93980000D01*
X116633513Y-93688889D01*
X116548599Y-93408966D01*
X116410706Y-93150986D01*
X116225134Y-92924866D01*
X116195313Y-92900393D01*
X116264180Y-92879502D01*
X116374494Y-92820537D01*
X116471185Y-92741185D01*
X116550537Y-92644494D01*
X116609502Y-92534180D01*
X116645812Y-92414482D01*
X116658072Y-92290000D01*
X116658072Y-90590000D01*
X116645812Y-90465518D01*
X116609502Y-90345820D01*
X116550537Y-90235506D01*
X116471185Y-90138815D01*
X116374494Y-90059463D01*
X116264180Y-90000498D01*
X116144482Y-89964188D01*
X116020000Y-89951928D01*
X114320000Y-89951928D01*
X114195518Y-89964188D01*
X114075820Y-90000498D01*
X113965506Y-90059463D01*
X113868815Y-90138815D01*
X113789463Y-90235506D01*
X113730498Y-90345820D01*
X113694188Y-90465518D01*
X113681928Y-90590000D01*
X113681928Y-92290000D01*
X113694188Y-92414482D01*
X113730498Y-92534180D01*
X113789463Y-92644494D01*
X113868815Y-92741185D01*
X113965506Y-92820537D01*
X114075820Y-92879502D01*
X114144687Y-92900393D01*
X114114866Y-92924866D01*
X113929294Y-93150986D01*
X113791401Y-93408966D01*
X113706487Y-93688889D01*
X113677815Y-93980000D01*
X105278072Y-93980000D01*
X105278072Y-93654999D01*
X105261008Y-93481745D01*
X105210472Y-93315149D01*
X105128405Y-93161613D01*
X105017962Y-93027038D01*
X104947812Y-92969467D01*
X104964180Y-92964502D01*
X105074494Y-92905537D01*
X105171185Y-92826185D01*
X105250537Y-92729494D01*
X105309502Y-92619180D01*
X105345812Y-92499482D01*
X105358072Y-92375000D01*
X105358072Y-91775000D01*
X105345812Y-91650518D01*
X105309502Y-91530820D01*
X105260957Y-91440000D01*
X105309502Y-91349180D01*
X105345812Y-91229482D01*
X105358072Y-91105000D01*
X105358072Y-90505000D01*
X105345812Y-90380518D01*
X105319870Y-90295000D01*
X105341289Y-90295000D01*
X105385226Y-90338937D01*
X105554744Y-90452205D01*
X105743102Y-90530226D01*
X105943061Y-90570000D01*
X106146939Y-90570000D01*
X106346898Y-90530226D01*
X106535256Y-90452205D01*
X106704774Y-90338937D01*
X106848937Y-90194774D01*
X106962205Y-90025256D01*
X107040226Y-89836898D01*
X107080000Y-89636939D01*
X107080000Y-89433061D01*
X107040226Y-89233102D01*
X106962205Y-89044744D01*
X106848937Y-88875226D01*
X106704774Y-88731063D01*
X106535256Y-88617795D01*
X106346898Y-88539774D01*
X106146939Y-88500000D01*
X105943061Y-88500000D01*
X105743102Y-88539774D01*
X105554744Y-88617795D01*
X105385226Y-88731063D01*
X105341289Y-88775000D01*
X105319870Y-88775000D01*
X105345812Y-88689482D01*
X105358072Y-88565000D01*
X105355000Y-88550750D01*
X105196250Y-88392000D01*
X104097000Y-88392000D01*
X104097000Y-88412000D01*
X103843000Y-88412000D01*
X103843000Y-88392000D01*
X102743750Y-88392000D01*
X102585000Y-88550750D01*
X102581928Y-88565000D01*
X102594188Y-88689482D01*
X102630498Y-88809180D01*
X102679043Y-88900000D01*
X102630498Y-88990820D01*
X102597032Y-89101144D01*
X102530937Y-89002226D01*
X102386774Y-88858063D01*
X102217256Y-88744795D01*
X102028898Y-88666774D01*
X101828939Y-88627000D01*
X101625061Y-88627000D01*
X101425102Y-88666774D01*
X101355019Y-88695804D01*
X101355019Y-87755000D01*
X102620130Y-87755000D01*
X102594188Y-87840518D01*
X102581928Y-87965000D01*
X102585000Y-87979250D01*
X102743750Y-88138000D01*
X103843000Y-88138000D01*
X103843000Y-88118000D01*
X104097000Y-88118000D01*
X104097000Y-88138000D01*
X105196250Y-88138000D01*
X105355000Y-87979250D01*
X105358072Y-87965000D01*
X105345812Y-87840518D01*
X105319870Y-87755000D01*
X105341289Y-87755000D01*
X105385226Y-87798937D01*
X105554744Y-87912205D01*
X105743102Y-87990226D01*
X105943061Y-88030000D01*
X106146939Y-88030000D01*
X106346898Y-87990226D01*
X106535256Y-87912205D01*
X106704774Y-87798937D01*
X106848937Y-87654774D01*
X106962205Y-87485256D01*
X107040226Y-87296898D01*
X107080000Y-87096939D01*
X107080000Y-86893061D01*
X107040226Y-86693102D01*
X106962205Y-86504744D01*
X106865490Y-86360000D01*
X106962205Y-86215256D01*
X107040226Y-86026898D01*
X107080000Y-85826939D01*
X107080000Y-85623061D01*
X107040226Y-85423102D01*
X106962205Y-85234744D01*
X106865490Y-85090000D01*
X106962205Y-84945256D01*
X107040226Y-84756898D01*
X107080000Y-84556939D01*
X107080000Y-84353061D01*
X107040226Y-84153102D01*
X106962205Y-83964744D01*
X106848937Y-83795226D01*
X106704774Y-83651063D01*
X106535256Y-83537795D01*
X106346898Y-83459774D01*
X106146939Y-83420000D01*
X105943061Y-83420000D01*
X105743102Y-83459774D01*
X105554744Y-83537795D01*
X105506546Y-83570000D01*
X105349701Y-83570000D01*
X105358072Y-83485000D01*
X105358072Y-82885000D01*
X105345812Y-82760518D01*
X105309502Y-82640820D01*
X105250537Y-82530506D01*
X105171185Y-82433815D01*
X105074494Y-82354463D01*
X104964180Y-82295498D01*
X104844482Y-82259188D01*
X104720000Y-82246928D01*
X103220000Y-82246928D01*
X103095518Y-82259188D01*
X102975820Y-82295498D01*
X102865506Y-82354463D01*
X102768815Y-82433815D01*
X102689463Y-82530506D01*
X102630498Y-82640820D01*
X102594188Y-82760518D01*
X102581928Y-82885000D01*
X102581928Y-83048270D01*
X99958072Y-85672127D01*
X99958072Y-85425000D01*
X99945812Y-85300518D01*
X99909502Y-85180820D01*
X99860957Y-85090000D01*
X99909502Y-84999180D01*
X99945812Y-84879482D01*
X99958072Y-84755000D01*
X99958072Y-84155000D01*
X99945812Y-84030518D01*
X99909502Y-83910820D01*
X99860957Y-83820000D01*
X99909502Y-83729180D01*
X99945812Y-83609482D01*
X99958072Y-83485000D01*
X99955000Y-83470750D01*
X99796250Y-83312000D01*
X98697000Y-83312000D01*
X98697000Y-83332000D01*
X98443000Y-83332000D01*
X98443000Y-83312000D01*
X97343750Y-83312000D01*
X97185000Y-83470750D01*
X97181928Y-83485000D01*
X97194188Y-83609482D01*
X97218570Y-83689859D01*
X97179774Y-83651063D01*
X97010256Y-83537795D01*
X96821898Y-83459774D01*
X96621939Y-83420000D01*
X96418061Y-83420000D01*
X96218102Y-83459774D01*
X96029744Y-83537795D01*
X95860226Y-83651063D01*
X95716063Y-83795226D01*
X95602795Y-83964744D01*
X95524774Y-84153102D01*
X95485000Y-84353061D01*
X95485000Y-84556939D01*
X95524774Y-84756898D01*
X95602795Y-84945256D01*
X95699510Y-85090000D01*
X95602795Y-85234744D01*
X95524774Y-85423102D01*
X95485000Y-85623061D01*
X95485000Y-85826939D01*
X95524774Y-86026898D01*
X95602795Y-86215256D01*
X95699510Y-86360000D01*
X95602795Y-86504744D01*
X95524774Y-86693102D01*
X95485000Y-86893061D01*
X95485000Y-87096939D01*
X95524774Y-87296898D01*
X95602795Y-87485256D01*
X95699510Y-87630000D01*
X95602795Y-87774744D01*
X95524774Y-87963102D01*
X95485000Y-88163061D01*
X95485000Y-88366939D01*
X95524774Y-88566898D01*
X95602795Y-88755256D01*
X95699510Y-88900000D01*
X95602795Y-89044744D01*
X95524774Y-89233102D01*
X95485000Y-89433061D01*
X95485000Y-89636939D01*
X95524774Y-89836898D01*
X95602795Y-90025256D01*
X95669442Y-90125000D01*
X95602795Y-90224744D01*
X95524774Y-90413102D01*
X95485000Y-90613061D01*
X95485000Y-90680000D01*
X89118072Y-90680000D01*
X89118072Y-90590000D01*
X89105812Y-90465518D01*
X89069502Y-90345820D01*
X89010537Y-90235506D01*
X88931185Y-90138815D01*
X88834494Y-90059463D01*
X88724180Y-90000498D01*
X88604482Y-89964188D01*
X88480000Y-89951928D01*
X86780000Y-89951928D01*
X86655518Y-89964188D01*
X86535820Y-90000498D01*
X86425506Y-90059463D01*
X86328815Y-90138815D01*
X86249463Y-90235506D01*
X86190498Y-90345820D01*
X86154188Y-90465518D01*
X86141928Y-90590000D01*
X86141928Y-92290000D01*
X86154188Y-92414482D01*
X86190498Y-92534180D01*
X86249463Y-92644494D01*
X86328815Y-92741185D01*
X86425506Y-92820537D01*
X86535820Y-92879502D01*
X86604687Y-92900393D01*
X86574866Y-92924866D01*
X86389294Y-93150986D01*
X86251401Y-93408966D01*
X86166487Y-93688889D01*
X86137815Y-93980000D01*
X77876000Y-93980000D01*
X77876000Y-82885000D01*
X97181928Y-82885000D01*
X97185000Y-82899250D01*
X97343750Y-83058000D01*
X98443000Y-83058000D01*
X98443000Y-82408750D01*
X98697000Y-82408750D01*
X98697000Y-83058000D01*
X99796250Y-83058000D01*
X99955000Y-82899250D01*
X99958072Y-82885000D01*
X99945812Y-82760518D01*
X99909502Y-82640820D01*
X99850537Y-82530506D01*
X99771185Y-82433815D01*
X99674494Y-82354463D01*
X99564180Y-82295498D01*
X99444482Y-82259188D01*
X99320000Y-82246928D01*
X98855750Y-82250000D01*
X98697000Y-82408750D01*
X98443000Y-82408750D01*
X98284250Y-82250000D01*
X97820000Y-82246928D01*
X97695518Y-82259188D01*
X97575820Y-82295498D01*
X97465506Y-82354463D01*
X97368815Y-82433815D01*
X97289463Y-82530506D01*
X97230498Y-82640820D01*
X97194188Y-82760518D01*
X97181928Y-82885000D01*
X77876000Y-82885000D01*
X77876000Y-76915000D01*
X93891928Y-76915000D01*
X93904188Y-77039482D01*
X93940498Y-77159180D01*
X93999463Y-77269494D01*
X94078815Y-77366185D01*
X94175506Y-77445537D01*
X94285820Y-77504502D01*
X94405518Y-77540812D01*
X94530000Y-77553072D01*
X94694250Y-77550000D01*
X94853000Y-77391250D01*
X94853000Y-76642000D01*
X95107000Y-76642000D01*
X95107000Y-77391250D01*
X95265750Y-77550000D01*
X95430000Y-77553072D01*
X95554482Y-77540812D01*
X95674180Y-77504502D01*
X95784494Y-77445537D01*
X95881185Y-77366185D01*
X95960537Y-77269494D01*
X96019502Y-77159180D01*
X96055812Y-77039482D01*
X96068072Y-76915000D01*
X98971928Y-76915000D01*
X98984188Y-77039482D01*
X99020498Y-77159180D01*
X99079463Y-77269494D01*
X99158815Y-77366185D01*
X99255506Y-77445537D01*
X99365820Y-77504502D01*
X99485518Y-77540812D01*
X99610000Y-77553072D01*
X99774250Y-77550000D01*
X99933000Y-77391250D01*
X99933000Y-76642000D01*
X100187000Y-76642000D01*
X100187000Y-77391250D01*
X100345750Y-77550000D01*
X100510000Y-77553072D01*
X100634482Y-77540812D01*
X100754180Y-77504502D01*
X100864494Y-77445537D01*
X100961185Y-77366185D01*
X101040537Y-77269494D01*
X101099502Y-77159180D01*
X101135812Y-77039482D01*
X101148072Y-76915000D01*
X104051928Y-76915000D01*
X104064188Y-77039482D01*
X104100498Y-77159180D01*
X104159463Y-77269494D01*
X104238815Y-77366185D01*
X104335506Y-77445537D01*
X104445820Y-77504502D01*
X104565518Y-77540812D01*
X104690000Y-77553072D01*
X104854250Y-77550000D01*
X105013000Y-77391250D01*
X105013000Y-76642000D01*
X105267000Y-76642000D01*
X105267000Y-77391250D01*
X105425750Y-77550000D01*
X105590000Y-77553072D01*
X105714482Y-77540812D01*
X105834180Y-77504502D01*
X105944494Y-77445537D01*
X106041185Y-77366185D01*
X106120537Y-77269494D01*
X106179502Y-77159180D01*
X106215812Y-77039482D01*
X106228072Y-76915000D01*
X109131928Y-76915000D01*
X109144188Y-77039482D01*
X109180498Y-77159180D01*
X109239463Y-77269494D01*
X109318815Y-77366185D01*
X109415506Y-77445537D01*
X109525820Y-77504502D01*
X109645518Y-77540812D01*
X109770000Y-77553072D01*
X109934250Y-77550000D01*
X110093000Y-77391250D01*
X110093000Y-76642000D01*
X110347000Y-76642000D01*
X110347000Y-77391250D01*
X110505750Y-77550000D01*
X110670000Y-77553072D01*
X110794482Y-77540812D01*
X110914180Y-77504502D01*
X111024494Y-77445537D01*
X111121185Y-77366185D01*
X111200537Y-77269494D01*
X111259502Y-77159180D01*
X111295812Y-77039482D01*
X111308072Y-76915000D01*
X111305000Y-76800750D01*
X111146250Y-76642000D01*
X110347000Y-76642000D01*
X110093000Y-76642000D01*
X109293750Y-76642000D01*
X109135000Y-76800750D01*
X109131928Y-76915000D01*
X106228072Y-76915000D01*
X106225000Y-76800750D01*
X106066250Y-76642000D01*
X105267000Y-76642000D01*
X105013000Y-76642000D01*
X104213750Y-76642000D01*
X104055000Y-76800750D01*
X104051928Y-76915000D01*
X101148072Y-76915000D01*
X101145000Y-76800750D01*
X100986250Y-76642000D01*
X100187000Y-76642000D01*
X99933000Y-76642000D01*
X99133750Y-76642000D01*
X98975000Y-76800750D01*
X98971928Y-76915000D01*
X96068072Y-76915000D01*
X96065000Y-76800750D01*
X95906250Y-76642000D01*
X95107000Y-76642000D01*
X94853000Y-76642000D01*
X94053750Y-76642000D01*
X93895000Y-76800750D01*
X93891928Y-76915000D01*
X77876000Y-76915000D01*
X77876000Y-70014999D01*
X91371928Y-70014999D01*
X91371928Y-70665001D01*
X91388992Y-70838255D01*
X91439528Y-71004851D01*
X91521595Y-71158387D01*
X91632038Y-71292962D01*
X91719816Y-71365000D01*
X91632038Y-71437038D01*
X91521595Y-71571613D01*
X91439528Y-71725149D01*
X91388992Y-71891745D01*
X91371928Y-72064999D01*
X91371928Y-72715001D01*
X91388992Y-72888255D01*
X91439528Y-73054851D01*
X91521595Y-73208387D01*
X91632038Y-73342962D01*
X91766613Y-73453405D01*
X91920149Y-73535472D01*
X92086745Y-73586008D01*
X92220001Y-73599133D01*
X92220000Y-74610680D01*
X92175506Y-74634463D01*
X92078815Y-74713815D01*
X91999463Y-74810506D01*
X91940498Y-74920820D01*
X91904188Y-75040518D01*
X91891928Y-75165000D01*
X91891928Y-75965000D01*
X91904188Y-76089482D01*
X91940498Y-76209180D01*
X91999463Y-76319494D01*
X92078815Y-76416185D01*
X92175506Y-76495537D01*
X92285820Y-76554502D01*
X92405518Y-76590812D01*
X92530000Y-76603072D01*
X93430000Y-76603072D01*
X93554482Y-76590812D01*
X93674180Y-76554502D01*
X93784494Y-76495537D01*
X93881185Y-76416185D01*
X93960537Y-76319494D01*
X93969143Y-76303393D01*
X94053750Y-76388000D01*
X94853000Y-76388000D01*
X94853000Y-76368000D01*
X95107000Y-76368000D01*
X95107000Y-76388000D01*
X95906250Y-76388000D01*
X96065000Y-76229250D01*
X96068072Y-76115000D01*
X96055812Y-75990518D01*
X96019502Y-75870820D01*
X95960537Y-75760506D01*
X95881185Y-75663815D01*
X95784494Y-75584463D01*
X95748082Y-75565000D01*
X95784494Y-75545537D01*
X95881185Y-75466185D01*
X95960537Y-75369494D01*
X96019502Y-75259180D01*
X96055812Y-75139482D01*
X96068072Y-75015000D01*
X96068072Y-74215000D01*
X96055812Y-74090518D01*
X96019502Y-73970820D01*
X95960537Y-73860506D01*
X95881185Y-73763815D01*
X95784494Y-73684463D01*
X95740000Y-73660680D01*
X95740000Y-73599132D01*
X95873255Y-73586008D01*
X96039851Y-73535472D01*
X96193387Y-73453405D01*
X96327962Y-73342962D01*
X96438405Y-73208387D01*
X96520000Y-73055734D01*
X96601595Y-73208387D01*
X96712038Y-73342962D01*
X96846613Y-73453405D01*
X97000149Y-73535472D01*
X97166745Y-73586008D01*
X97300001Y-73599133D01*
X97300000Y-74610680D01*
X97255506Y-74634463D01*
X97158815Y-74713815D01*
X97079463Y-74810506D01*
X97020498Y-74920820D01*
X96984188Y-75040518D01*
X96971928Y-75165000D01*
X96971928Y-75965000D01*
X96984188Y-76089482D01*
X97020498Y-76209180D01*
X97079463Y-76319494D01*
X97158815Y-76416185D01*
X97255506Y-76495537D01*
X97365820Y-76554502D01*
X97485518Y-76590812D01*
X97610000Y-76603072D01*
X98510000Y-76603072D01*
X98634482Y-76590812D01*
X98754180Y-76554502D01*
X98864494Y-76495537D01*
X98961185Y-76416185D01*
X99040537Y-76319494D01*
X99049143Y-76303393D01*
X99133750Y-76388000D01*
X99933000Y-76388000D01*
X99933000Y-76368000D01*
X100187000Y-76368000D01*
X100187000Y-76388000D01*
X100986250Y-76388000D01*
X101145000Y-76229250D01*
X101148072Y-76115000D01*
X101135812Y-75990518D01*
X101099502Y-75870820D01*
X101040537Y-75760506D01*
X100961185Y-75663815D01*
X100864494Y-75584463D01*
X100828082Y-75565000D01*
X100864494Y-75545537D01*
X100961185Y-75466185D01*
X101040537Y-75369494D01*
X101099502Y-75259180D01*
X101135812Y-75139482D01*
X101148072Y-75015000D01*
X101148072Y-74215000D01*
X101135812Y-74090518D01*
X101099502Y-73970820D01*
X101040537Y-73860506D01*
X100961185Y-73763815D01*
X100864494Y-73684463D01*
X100820000Y-73660680D01*
X100820000Y-73599132D01*
X100953255Y-73586008D01*
X101119851Y-73535472D01*
X101273387Y-73453405D01*
X101407962Y-73342962D01*
X101518405Y-73208387D01*
X101600000Y-73055734D01*
X101681595Y-73208387D01*
X101792038Y-73342962D01*
X101926613Y-73453405D01*
X102080149Y-73535472D01*
X102246745Y-73586008D01*
X102380001Y-73599133D01*
X102380000Y-74610680D01*
X102335506Y-74634463D01*
X102238815Y-74713815D01*
X102159463Y-74810506D01*
X102100498Y-74920820D01*
X102064188Y-75040518D01*
X102051928Y-75165000D01*
X102051928Y-75965000D01*
X102064188Y-76089482D01*
X102100498Y-76209180D01*
X102159463Y-76319494D01*
X102238815Y-76416185D01*
X102335506Y-76495537D01*
X102445820Y-76554502D01*
X102565518Y-76590812D01*
X102690000Y-76603072D01*
X103590000Y-76603072D01*
X103714482Y-76590812D01*
X103834180Y-76554502D01*
X103944494Y-76495537D01*
X104041185Y-76416185D01*
X104120537Y-76319494D01*
X104129143Y-76303393D01*
X104213750Y-76388000D01*
X105013000Y-76388000D01*
X105013000Y-76368000D01*
X105267000Y-76368000D01*
X105267000Y-76388000D01*
X106066250Y-76388000D01*
X106225000Y-76229250D01*
X106228072Y-76115000D01*
X106215812Y-75990518D01*
X106179502Y-75870820D01*
X106120537Y-75760506D01*
X106041185Y-75663815D01*
X105944494Y-75584463D01*
X105908082Y-75565000D01*
X105944494Y-75545537D01*
X106041185Y-75466185D01*
X106120537Y-75369494D01*
X106179502Y-75259180D01*
X106215812Y-75139482D01*
X106228072Y-75015000D01*
X106228072Y-74215000D01*
X106215812Y-74090518D01*
X106179502Y-73970820D01*
X106120537Y-73860506D01*
X106041185Y-73763815D01*
X105944494Y-73684463D01*
X105900000Y-73660680D01*
X105900000Y-73599132D01*
X106033255Y-73586008D01*
X106199851Y-73535472D01*
X106353387Y-73453405D01*
X106487962Y-73342962D01*
X106598405Y-73208387D01*
X106680000Y-73055734D01*
X106761595Y-73208387D01*
X106872038Y-73342962D01*
X107006613Y-73453405D01*
X107160149Y-73535472D01*
X107190000Y-73544527D01*
X107190001Y-74903042D01*
X107180498Y-74920820D01*
X107144188Y-75040518D01*
X107131928Y-75165000D01*
X107131928Y-75965000D01*
X107144188Y-76089482D01*
X107180498Y-76209180D01*
X107239463Y-76319494D01*
X107318815Y-76416185D01*
X107415506Y-76495537D01*
X107525820Y-76554502D01*
X107645518Y-76590812D01*
X107770000Y-76603072D01*
X108670000Y-76603072D01*
X108794482Y-76590812D01*
X108914180Y-76554502D01*
X109024494Y-76495537D01*
X109121185Y-76416185D01*
X109200537Y-76319494D01*
X109209143Y-76303393D01*
X109293750Y-76388000D01*
X110093000Y-76388000D01*
X110093000Y-76368000D01*
X110347000Y-76368000D01*
X110347000Y-76388000D01*
X111146250Y-76388000D01*
X111305000Y-76229250D01*
X111308072Y-76115000D01*
X111295812Y-75990518D01*
X111259502Y-75870820D01*
X111200537Y-75760506D01*
X111121185Y-75663815D01*
X111024494Y-75584463D01*
X110988082Y-75565000D01*
X111024494Y-75545537D01*
X111121185Y-75466185D01*
X111200537Y-75369494D01*
X111259502Y-75259180D01*
X111295812Y-75139482D01*
X111308072Y-75015000D01*
X111308072Y-74215000D01*
X111295812Y-74090518D01*
X111259502Y-73970820D01*
X111250000Y-73953043D01*
X111250000Y-73544527D01*
X111279851Y-73535472D01*
X111433387Y-73453405D01*
X111567962Y-73342962D01*
X111678405Y-73208387D01*
X111760472Y-73054851D01*
X111811008Y-72888255D01*
X111828072Y-72715001D01*
X111828072Y-72064999D01*
X111811008Y-71891745D01*
X111760472Y-71725149D01*
X111678405Y-71571613D01*
X111567962Y-71437038D01*
X111480184Y-71365000D01*
X111567962Y-71292962D01*
X111678405Y-71158387D01*
X111760472Y-71004851D01*
X111811008Y-70838255D01*
X111828072Y-70665001D01*
X111828072Y-70014999D01*
X111811008Y-69841745D01*
X111760472Y-69675149D01*
X111678405Y-69521613D01*
X111567962Y-69387038D01*
X111433387Y-69276595D01*
X111312506Y-69211983D01*
X111407205Y-69070256D01*
X111485226Y-68881898D01*
X111525000Y-68681939D01*
X111525000Y-68478061D01*
X111485226Y-68278102D01*
X111407205Y-68089744D01*
X111293937Y-67920226D01*
X111149774Y-67776063D01*
X110980256Y-67662795D01*
X110791898Y-67584774D01*
X110591939Y-67545000D01*
X110388061Y-67545000D01*
X110188102Y-67584774D01*
X109999744Y-67662795D01*
X109830226Y-67776063D01*
X109686063Y-67920226D01*
X109572795Y-68089744D01*
X109494774Y-68278102D01*
X109455000Y-68478061D01*
X109455000Y-68681939D01*
X109494774Y-68881898D01*
X109572795Y-69070256D01*
X109667494Y-69211983D01*
X109546613Y-69276595D01*
X109412038Y-69387038D01*
X109301595Y-69521613D01*
X109220000Y-69674266D01*
X109138405Y-69521613D01*
X109027962Y-69387038D01*
X108893387Y-69276595D01*
X108739851Y-69194528D01*
X108710000Y-69185473D01*
X108710000Y-68207322D01*
X108713676Y-68169999D01*
X108710000Y-68132676D01*
X108710000Y-68132667D01*
X108699003Y-68021014D01*
X108655546Y-67877753D01*
X108584974Y-67745724D01*
X108490001Y-67629999D01*
X108461003Y-67606201D01*
X108121210Y-67266408D01*
X108165000Y-67046260D01*
X108165000Y-66753740D01*
X108107932Y-66466842D01*
X107995990Y-66196589D01*
X107833475Y-65953368D01*
X107626632Y-65746525D01*
X107383411Y-65584010D01*
X107113158Y-65472068D01*
X106826260Y-65415000D01*
X106533740Y-65415000D01*
X106246842Y-65472068D01*
X105976589Y-65584010D01*
X105733368Y-65746525D01*
X105526525Y-65953368D01*
X105410000Y-66127760D01*
X105293475Y-65953368D01*
X105086632Y-65746525D01*
X104843411Y-65584010D01*
X104573158Y-65472068D01*
X104286260Y-65415000D01*
X103993740Y-65415000D01*
X103706842Y-65472068D01*
X103436589Y-65584010D01*
X103193368Y-65746525D01*
X102986525Y-65953368D01*
X102870000Y-66127760D01*
X102753475Y-65953368D01*
X102546632Y-65746525D01*
X102303411Y-65584010D01*
X102033158Y-65472068D01*
X101746260Y-65415000D01*
X101453740Y-65415000D01*
X101166842Y-65472068D01*
X100896589Y-65584010D01*
X100653368Y-65746525D01*
X100446525Y-65953368D01*
X100330000Y-66127760D01*
X100213475Y-65953368D01*
X100006632Y-65746525D01*
X99763411Y-65584010D01*
X99493158Y-65472068D01*
X99206260Y-65415000D01*
X98913740Y-65415000D01*
X98626842Y-65472068D01*
X98356589Y-65584010D01*
X98113368Y-65746525D01*
X97906525Y-65953368D01*
X97790000Y-66127760D01*
X97673475Y-65953368D01*
X97466632Y-65746525D01*
X97223411Y-65584010D01*
X96953158Y-65472068D01*
X96666260Y-65415000D01*
X96373740Y-65415000D01*
X96086842Y-65472068D01*
X95816589Y-65584010D01*
X95573368Y-65746525D01*
X95366525Y-65953368D01*
X95204010Y-66196589D01*
X95092068Y-66466842D01*
X95035000Y-66753740D01*
X95035000Y-66940198D01*
X92848271Y-69126928D01*
X92259999Y-69126928D01*
X92086745Y-69143992D01*
X91920149Y-69194528D01*
X91766613Y-69276595D01*
X91632038Y-69387038D01*
X91521595Y-69521613D01*
X91439528Y-69675149D01*
X91388992Y-69841745D01*
X91371928Y-70014999D01*
X77876000Y-70014999D01*
X77876000Y-62191500D01*
X125386908Y-62191500D01*
X125324592Y-131674000D01*
X125324592Y-131674000D01*
G37*
X125324592Y-131674000D02*
X77876000Y-131674000D01*
X77876000Y-121204999D01*
X87180928Y-121204999D01*
X87180928Y-121855001D01*
X87197992Y-122028255D01*
X87248528Y-122194851D01*
X87330595Y-122348387D01*
X87441038Y-122482962D01*
X87528816Y-122555000D01*
X87441038Y-122627038D01*
X87330595Y-122761613D01*
X87248528Y-122915149D01*
X87197992Y-123081745D01*
X87180928Y-123254999D01*
X87180928Y-123905001D01*
X87197992Y-124078255D01*
X87248528Y-124244851D01*
X87330595Y-124398387D01*
X87441038Y-124532962D01*
X87575613Y-124643405D01*
X87729149Y-124725472D01*
X87759000Y-124734527D01*
X87759001Y-129725286D01*
X87651563Y-129832724D01*
X87538295Y-130002242D01*
X87460274Y-130190600D01*
X87420500Y-130390559D01*
X87420500Y-130594437D01*
X87460274Y-130794396D01*
X87538295Y-130982754D01*
X87651563Y-131152272D01*
X87795726Y-131296435D01*
X87965244Y-131409703D01*
X88153602Y-131487724D01*
X88353561Y-131527498D01*
X88557439Y-131527498D01*
X88757398Y-131487724D01*
X88945756Y-131409703D01*
X89115274Y-131296435D01*
X89259437Y-131152272D01*
X89372705Y-130982754D01*
X89450726Y-130794396D01*
X89490500Y-130594437D01*
X89490500Y-130390559D01*
X89450726Y-130190600D01*
X89372705Y-130002242D01*
X89279000Y-129862002D01*
X89279000Y-124734527D01*
X89308851Y-124725472D01*
X89462387Y-124643405D01*
X89596962Y-124532962D01*
X89707405Y-124398387D01*
X89789000Y-124245734D01*
X89870595Y-124398387D01*
X89981038Y-124532962D01*
X90115613Y-124643405D01*
X90269149Y-124725472D01*
X90435745Y-124776008D01*
X90608999Y-124793072D01*
X91197271Y-124793072D01*
X93915205Y-127511008D01*
X93938999Y-127540001D01*
X93967992Y-127563795D01*
X93967996Y-127563799D01*
X94038685Y-127621811D01*
X94054724Y-127634974D01*
X94186753Y-127705546D01*
X94330014Y-127749003D01*
X94441667Y-127760000D01*
X94441676Y-127760000D01*
X94478999Y-127763676D01*
X94516322Y-127760000D01*
X95031928Y-127760000D01*
X95031928Y-127850000D01*
X95044188Y-127974482D01*
X95080498Y-128094180D01*
X95139463Y-128204494D01*
X95218815Y-128301185D01*
X95315506Y-128380537D01*
X95425820Y-128439502D01*
X95545518Y-128475812D01*
X95670000Y-128488072D01*
X97370000Y-128488072D01*
X97494482Y-128475812D01*
X97614180Y-128439502D01*
X97724494Y-128380537D01*
X97821185Y-128301185D01*
X97900537Y-128204494D01*
X97959502Y-128094180D01*
X97981513Y-128021620D01*
X98113368Y-128153475D01*
X98356589Y-128315990D01*
X98626842Y-128427932D01*
X98913740Y-128485000D01*
X99206260Y-128485000D01*
X99493158Y-128427932D01*
X99763411Y-128315990D01*
X100006632Y-128153475D01*
X100213475Y-127946632D01*
X100330000Y-127772240D01*
X100446525Y-127946632D01*
X100653368Y-128153475D01*
X100896589Y-128315990D01*
X101166842Y-128427932D01*
X101453740Y-128485000D01*
X101746260Y-128485000D01*
X102033158Y-128427932D01*
X102303411Y-128315990D01*
X102546632Y-128153475D01*
X102753475Y-127946632D01*
X102870000Y-127772240D01*
X102986525Y-127946632D01*
X103193368Y-128153475D01*
X103436589Y-128315990D01*
X103706842Y-128427932D01*
X103993740Y-128485000D01*
X104286260Y-128485000D01*
X104573158Y-128427932D01*
X104843411Y-128315990D01*
X105086632Y-128153475D01*
X105293475Y-127946632D01*
X105410000Y-127772240D01*
X105526525Y-127946632D01*
X105733368Y-128153475D01*
X105976589Y-128315990D01*
X106246842Y-128427932D01*
X106533740Y-128485000D01*
X106826260Y-128485000D01*
X107113158Y-128427932D01*
X107383411Y-128315990D01*
X107626632Y-128153475D01*
X107833475Y-127946632D01*
X107958178Y-127760000D01*
X111350678Y-127760000D01*
X111388000Y-127763676D01*
X111425322Y-127760000D01*
X111425333Y-127760000D01*
X111536986Y-127749003D01*
X111680247Y-127705546D01*
X111812276Y-127634974D01*
X111928001Y-127540001D01*
X111951804Y-127510997D01*
X114669731Y-124793072D01*
X115258001Y-124793072D01*
X115431255Y-124776008D01*
X115597851Y-124725472D01*
X115751387Y-124643405D01*
X115885962Y-124532962D01*
X115996405Y-124398387D01*
X116078472Y-124244851D01*
X116129008Y-124078255D01*
X116146072Y-123905001D01*
X116146072Y-123254999D01*
X116129008Y-123081745D01*
X116078472Y-122915149D01*
X115996405Y-122761613D01*
X115885962Y-122627038D01*
X115798184Y-122555000D01*
X115885962Y-122482962D01*
X115996405Y-122348387D01*
X116078472Y-122194851D01*
X116129008Y-122028255D01*
X116146072Y-121855001D01*
X116146072Y-121204999D01*
X116129008Y-121031745D01*
X116078472Y-120865149D01*
X115996405Y-120711613D01*
X115885962Y-120577038D01*
X115751387Y-120466595D01*
X115597851Y-120384528D01*
X115568000Y-120375473D01*
X115568000Y-118456957D01*
X115577502Y-118439180D01*
X115613812Y-118319482D01*
X115626072Y-118195000D01*
X115626072Y-117395000D01*
X115613812Y-117270518D01*
X115577502Y-117150820D01*
X115518537Y-117040506D01*
X115439185Y-116943815D01*
X115342494Y-116864463D01*
X115232180Y-116805498D01*
X115112482Y-116769188D01*
X114988000Y-116756928D01*
X114088000Y-116756928D01*
X113963518Y-116769188D01*
X113843820Y-116805498D01*
X113733506Y-116864463D01*
X113636815Y-116943815D01*
X113557463Y-117040506D01*
X113548857Y-117056607D01*
X113464250Y-116972000D01*
X112665000Y-116972000D01*
X112665000Y-116992000D01*
X112411000Y-116992000D01*
X112411000Y-116972000D01*
X111611750Y-116972000D01*
X111453000Y-117130750D01*
X111449928Y-117245000D01*
X111462188Y-117369482D01*
X111498498Y-117489180D01*
X111557463Y-117599494D01*
X111636815Y-117696185D01*
X111733506Y-117775537D01*
X111769918Y-117795000D01*
X111733506Y-117814463D01*
X111636815Y-117893815D01*
X111557463Y-117990506D01*
X111498498Y-118100820D01*
X111462188Y-118220518D01*
X111449928Y-118345000D01*
X111449928Y-119145000D01*
X111462188Y-119269482D01*
X111498498Y-119389180D01*
X111508001Y-119406958D01*
X111508000Y-120375473D01*
X111478149Y-120384528D01*
X111324613Y-120466595D01*
X111190038Y-120577038D01*
X111079595Y-120711613D01*
X110997528Y-120865149D01*
X110946992Y-121031745D01*
X110929928Y-121204999D01*
X110929928Y-121855001D01*
X110946992Y-122028255D01*
X110997528Y-122194851D01*
X111079595Y-122348387D01*
X111190038Y-122482962D01*
X111277816Y-122555000D01*
X111190038Y-122627038D01*
X111079595Y-122761613D01*
X110997528Y-122915149D01*
X110946992Y-123081745D01*
X110929928Y-123254999D01*
X110929928Y-123843271D01*
X110693081Y-124080118D01*
X110591939Y-124060000D01*
X110415806Y-124060000D01*
X110431072Y-123905001D01*
X110431072Y-123254999D01*
X110414008Y-123081745D01*
X110363472Y-122915149D01*
X110281405Y-122761613D01*
X110170962Y-122627038D01*
X110083184Y-122555000D01*
X110170962Y-122482962D01*
X110281405Y-122348387D01*
X110363472Y-122194851D01*
X110414008Y-122028255D01*
X110431072Y-121855001D01*
X110431072Y-121204999D01*
X110414008Y-121031745D01*
X110363472Y-120865149D01*
X110281405Y-120711613D01*
X110170962Y-120577038D01*
X110036387Y-120466595D01*
X109882851Y-120384528D01*
X109853000Y-120375473D01*
X109853000Y-118643973D01*
X109930537Y-118549494D01*
X109989502Y-118439180D01*
X110025812Y-118319482D01*
X110038072Y-118195000D01*
X110038072Y-117395000D01*
X110025812Y-117270518D01*
X109989502Y-117150820D01*
X109930537Y-117040506D01*
X109851185Y-116943815D01*
X109754494Y-116864463D01*
X109644180Y-116805498D01*
X109524482Y-116769188D01*
X109400000Y-116756928D01*
X108500000Y-116756928D01*
X108375518Y-116769188D01*
X108255820Y-116805498D01*
X108145506Y-116864463D01*
X108048815Y-116943815D01*
X107969463Y-117040506D01*
X107960857Y-117056607D01*
X107876250Y-116972000D01*
X107077000Y-116972000D01*
X107077000Y-116992000D01*
X106823000Y-116992000D01*
X106823000Y-116972000D01*
X106023750Y-116972000D01*
X105865000Y-117130750D01*
X105861928Y-117245000D01*
X105874188Y-117369482D01*
X105910498Y-117489180D01*
X105969463Y-117599494D01*
X106048815Y-117696185D01*
X106145506Y-117775537D01*
X106181918Y-117795000D01*
X106145506Y-117814463D01*
X106048815Y-117893815D01*
X105969463Y-117990506D01*
X105910498Y-118100820D01*
X105874188Y-118220518D01*
X105861928Y-118345000D01*
X105861928Y-118822675D01*
X105847454Y-118849754D01*
X105824018Y-118927015D01*
X105803998Y-118993014D01*
X105793633Y-119098246D01*
X105789324Y-119142000D01*
X105793001Y-119179332D01*
X105793000Y-120375473D01*
X105763149Y-120384528D01*
X105609613Y-120466595D01*
X105475038Y-120577038D01*
X105364595Y-120711613D01*
X105282528Y-120865149D01*
X105231992Y-121031745D01*
X105214928Y-121204999D01*
X105214928Y-121855001D01*
X105231992Y-122028255D01*
X105282528Y-122194851D01*
X105364595Y-122348387D01*
X105475038Y-122482962D01*
X105562816Y-122555000D01*
X105475038Y-122627038D01*
X105364595Y-122761613D01*
X105282528Y-122915149D01*
X105281736Y-122917759D01*
X105230724Y-122945026D01*
X105114999Y-123039999D01*
X105091201Y-123068997D01*
X104100199Y-124060000D01*
X104038061Y-124060000D01*
X103838102Y-124099774D01*
X103649744Y-124177795D01*
X103480226Y-124291063D01*
X103336063Y-124435226D01*
X103222795Y-124604744D01*
X103144774Y-124793102D01*
X103105000Y-124993061D01*
X103105000Y-125196939D01*
X103144774Y-125396898D01*
X103222795Y-125585256D01*
X103334402Y-125752289D01*
X103193368Y-125846525D01*
X102986525Y-126053368D01*
X102870000Y-126227760D01*
X102753475Y-126053368D01*
X102546632Y-125846525D01*
X102485000Y-125805344D01*
X102485000Y-124684981D01*
X102530537Y-124629494D01*
X102589502Y-124519180D01*
X102625812Y-124399482D01*
X102638072Y-124275000D01*
X102638072Y-123375000D01*
X102625812Y-123250518D01*
X102589502Y-123130820D01*
X102530537Y-123020506D01*
X102451185Y-122923815D01*
X102438095Y-122913072D01*
X102950000Y-122913072D01*
X103074482Y-122900812D01*
X103194180Y-122864502D01*
X103304494Y-122805537D01*
X103401185Y-122726185D01*
X103414468Y-122710000D01*
X103466289Y-122710000D01*
X103480226Y-122723937D01*
X103649744Y-122837205D01*
X103838102Y-122915226D01*
X104038061Y-122955000D01*
X104241939Y-122955000D01*
X104441898Y-122915226D01*
X104630256Y-122837205D01*
X104799774Y-122723937D01*
X104943937Y-122579774D01*
X105057205Y-122410256D01*
X105135226Y-122221898D01*
X105175000Y-122021939D01*
X105175000Y-121818061D01*
X105135226Y-121618102D01*
X105057205Y-121429744D01*
X105025000Y-121381546D01*
X105025000Y-119839614D01*
X105083387Y-119808405D01*
X105217962Y-119697962D01*
X105328405Y-119563387D01*
X105410472Y-119409851D01*
X105461008Y-119243255D01*
X105478072Y-119070001D01*
X105478072Y-118419999D01*
X105461008Y-118246745D01*
X105410472Y-118080149D01*
X105328405Y-117926613D01*
X105217962Y-117792038D01*
X105130184Y-117720000D01*
X105217962Y-117647962D01*
X105328405Y-117513387D01*
X105410472Y-117359851D01*
X105461008Y-117193255D01*
X105478072Y-117020001D01*
X105478072Y-116445000D01*
X105861928Y-116445000D01*
X105865000Y-116559250D01*
X106023750Y-116718000D01*
X106823000Y-116718000D01*
X106823000Y-115968750D01*
X107077000Y-115968750D01*
X107077000Y-116718000D01*
X107876250Y-116718000D01*
X108035000Y-116559250D01*
X108038072Y-116445000D01*
X111449928Y-116445000D01*
X111453000Y-116559250D01*
X111611750Y-116718000D01*
X112411000Y-116718000D01*
X112411000Y-115968750D01*
X112665000Y-115968750D01*
X112665000Y-116718000D01*
X113464250Y-116718000D01*
X113623000Y-116559250D01*
X113626072Y-116445000D01*
X113613812Y-116320518D01*
X113577502Y-116200820D01*
X113518537Y-116090506D01*
X113439185Y-115993815D01*
X113342494Y-115914463D01*
X113232180Y-115855498D01*
X113112482Y-115819188D01*
X112988000Y-115806928D01*
X112823750Y-115810000D01*
X112665000Y-115968750D01*
X112411000Y-115968750D01*
X112252250Y-115810000D01*
X112088000Y-115806928D01*
X111963518Y-115819188D01*
X111843820Y-115855498D01*
X111733506Y-115914463D01*
X111636815Y-115993815D01*
X111557463Y-116090506D01*
X111498498Y-116200820D01*
X111462188Y-116320518D01*
X111449928Y-116445000D01*
X108038072Y-116445000D01*
X108025812Y-116320518D01*
X107989502Y-116200820D01*
X107930537Y-116090506D01*
X107851185Y-115993815D01*
X107754494Y-115914463D01*
X107644180Y-115855498D01*
X107524482Y-115819188D01*
X107400000Y-115806928D01*
X107235750Y-115810000D01*
X107077000Y-115968750D01*
X106823000Y-115968750D01*
X106664250Y-115810000D01*
X106500000Y-115806928D01*
X106375518Y-115819188D01*
X106255820Y-115855498D01*
X106145506Y-115914463D01*
X106048815Y-115993815D01*
X105969463Y-116090506D01*
X105910498Y-116200820D01*
X105874188Y-116320518D01*
X105861928Y-116445000D01*
X105478072Y-116445000D01*
X105478072Y-116369999D01*
X105461008Y-116196745D01*
X105410472Y-116030149D01*
X105328405Y-115876613D01*
X105217962Y-115742038D01*
X105083387Y-115631595D01*
X104929851Y-115549528D01*
X104763255Y-115498992D01*
X104590001Y-115481928D01*
X103689999Y-115481928D01*
X103516745Y-115498992D01*
X103350149Y-115549528D01*
X103196613Y-115631595D01*
X103062038Y-115742038D01*
X102951595Y-115876613D01*
X102920386Y-115935000D01*
X102819614Y-115935000D01*
X102788405Y-115876613D01*
X102677962Y-115742038D01*
X102543387Y-115631595D01*
X102389851Y-115549528D01*
X102223255Y-115498992D01*
X102050001Y-115481928D01*
X101885333Y-115481928D01*
X101895537Y-115469494D01*
X101954502Y-115359180D01*
X101990812Y-115239482D01*
X102003072Y-115115000D01*
X102003072Y-114215000D01*
X101990812Y-114090518D01*
X101954502Y-113970820D01*
X101895537Y-113860506D01*
X101816185Y-113763815D01*
X101719494Y-113684463D01*
X101703393Y-113675857D01*
X101788000Y-113591250D01*
X101788000Y-112792000D01*
X102042000Y-112792000D01*
X102042000Y-113591250D01*
X102200750Y-113750000D01*
X102315000Y-113753072D01*
X102439482Y-113740812D01*
X102559180Y-113704502D01*
X102669494Y-113645537D01*
X102766185Y-113566185D01*
X102845537Y-113469494D01*
X102904502Y-113359180D01*
X102940812Y-113239482D01*
X102953072Y-113115000D01*
X102950000Y-112950750D01*
X102791250Y-112792000D01*
X102042000Y-112792000D01*
X101788000Y-112792000D01*
X101768000Y-112792000D01*
X101768000Y-112538000D01*
X101788000Y-112538000D01*
X101788000Y-111738750D01*
X102042000Y-111738750D01*
X102042000Y-112538000D01*
X102791250Y-112538000D01*
X102950000Y-112379250D01*
X102953072Y-112215000D01*
X102940812Y-112090518D01*
X102904502Y-111970820D01*
X102845537Y-111860506D01*
X102766185Y-111763815D01*
X102669494Y-111684463D01*
X102559180Y-111625498D01*
X102439482Y-111589188D01*
X102315000Y-111576928D01*
X102200750Y-111580000D01*
X102042000Y-111738750D01*
X101788000Y-111738750D01*
X101629250Y-111580000D01*
X101515000Y-111576928D01*
X101390518Y-111589188D01*
X101270820Y-111625498D01*
X101160506Y-111684463D01*
X101063815Y-111763815D01*
X100984463Y-111860506D01*
X100965000Y-111896918D01*
X100945537Y-111860506D01*
X100866185Y-111763815D01*
X100769494Y-111684463D01*
X100659180Y-111625498D01*
X100539482Y-111589188D01*
X100415000Y-111576928D01*
X99615000Y-111576928D01*
X99490518Y-111589188D01*
X99370820Y-111625498D01*
X99260506Y-111684463D01*
X99163815Y-111763815D01*
X99084463Y-111860506D01*
X99025498Y-111970820D01*
X99020468Y-111987401D01*
X98940724Y-112030026D01*
X98824999Y-112124999D01*
X98801196Y-112154003D01*
X98548998Y-112406201D01*
X98520000Y-112429999D01*
X98496202Y-112458997D01*
X98496201Y-112458998D01*
X98425026Y-112545724D01*
X98354454Y-112677754D01*
X98310998Y-112821015D01*
X98296324Y-112970000D01*
X98300001Y-113007332D01*
X98300000Y-115540473D01*
X98270149Y-115549528D01*
X98116613Y-115631595D01*
X97982038Y-115742038D01*
X97871595Y-115876613D01*
X97789528Y-116030149D01*
X97738992Y-116196745D01*
X97721928Y-116369999D01*
X97721928Y-117020001D01*
X97738992Y-117193255D01*
X97789528Y-117359851D01*
X97871595Y-117513387D01*
X97982038Y-117647962D01*
X98069816Y-117720000D01*
X97982038Y-117792038D01*
X97871595Y-117926613D01*
X97789528Y-118080149D01*
X97738992Y-118246745D01*
X97721928Y-118419999D01*
X97721928Y-119070001D01*
X97738992Y-119243255D01*
X97789528Y-119409851D01*
X97871595Y-119563387D01*
X97982038Y-119697962D01*
X98116613Y-119808405D01*
X98270149Y-119890472D01*
X98300000Y-119899527D01*
X98300001Y-121216288D01*
X98256063Y-121260226D01*
X98142795Y-121429744D01*
X98064774Y-121618102D01*
X98025000Y-121818061D01*
X98025000Y-122021939D01*
X98064774Y-122221898D01*
X98142795Y-122410256D01*
X98256063Y-122579774D01*
X98400226Y-122723937D01*
X98569744Y-122837205D01*
X98758102Y-122915226D01*
X98958061Y-122955000D01*
X99161939Y-122955000D01*
X99361898Y-122915226D01*
X99550256Y-122837205D01*
X99719774Y-122723937D01*
X99762174Y-122681537D01*
X99798815Y-122726185D01*
X99895506Y-122805537D01*
X100005820Y-122864502D01*
X100125518Y-122900812D01*
X100250000Y-122913072D01*
X100761905Y-122913072D01*
X100748815Y-122923815D01*
X100669463Y-123020506D01*
X100610498Y-123130820D01*
X100574188Y-123250518D01*
X100561928Y-123375000D01*
X100561928Y-124275000D01*
X100574188Y-124399482D01*
X100610498Y-124519180D01*
X100669463Y-124629494D01*
X100715001Y-124684982D01*
X100715000Y-125805344D01*
X100653368Y-125846525D01*
X100446525Y-126053368D01*
X100330000Y-126227760D01*
X100213475Y-126053368D01*
X100006632Y-125846525D01*
X99763411Y-125684010D01*
X99493158Y-125572068D01*
X99206260Y-125515000D01*
X98913740Y-125515000D01*
X98693592Y-125558790D01*
X97693546Y-124558745D01*
X97724962Y-124532962D01*
X97835405Y-124398387D01*
X97917472Y-124244851D01*
X97968008Y-124078255D01*
X97985072Y-123905001D01*
X97985072Y-123254999D01*
X97968008Y-123081745D01*
X97917472Y-122915149D01*
X97835405Y-122761613D01*
X97724962Y-122627038D01*
X97637184Y-122555000D01*
X97724962Y-122482962D01*
X97835405Y-122348387D01*
X97917472Y-122194851D01*
X97968008Y-122028255D01*
X97985072Y-121855001D01*
X97985072Y-121204999D01*
X97968008Y-121031745D01*
X97917472Y-120865149D01*
X97835405Y-120711613D01*
X97724962Y-120577038D01*
X97590387Y-120466595D01*
X97436851Y-120384528D01*
X97407000Y-120375473D01*
X97407000Y-118456957D01*
X97416502Y-118439180D01*
X97452812Y-118319482D01*
X97465072Y-118195000D01*
X97465072Y-117395000D01*
X97452812Y-117270518D01*
X97416502Y-117150820D01*
X97357537Y-117040506D01*
X97278185Y-116943815D01*
X97181494Y-116864463D01*
X97071180Y-116805498D01*
X96951482Y-116769188D01*
X96827000Y-116756928D01*
X95927000Y-116756928D01*
X95802518Y-116769188D01*
X95682820Y-116805498D01*
X95572506Y-116864463D01*
X95475815Y-116943815D01*
X95396463Y-117040506D01*
X95387857Y-117056607D01*
X95303250Y-116972000D01*
X94504000Y-116972000D01*
X94504000Y-116992000D01*
X94250000Y-116992000D01*
X94250000Y-116972000D01*
X93450750Y-116972000D01*
X93292000Y-117130750D01*
X93288928Y-117245000D01*
X93301188Y-117369482D01*
X93337498Y-117489180D01*
X93396463Y-117599494D01*
X93475815Y-117696185D01*
X93572506Y-117775537D01*
X93608918Y-117795000D01*
X93572506Y-117814463D01*
X93475815Y-117893815D01*
X93396463Y-117990506D01*
X93337498Y-118100820D01*
X93301188Y-118220518D01*
X93288928Y-118345000D01*
X93288928Y-119145000D01*
X93301188Y-119269482D01*
X93337498Y-119389180D01*
X93347001Y-119406958D01*
X93347000Y-120375473D01*
X93317149Y-120384528D01*
X93163613Y-120466595D01*
X93029038Y-120577038D01*
X92918595Y-120711613D01*
X92836528Y-120865149D01*
X92785992Y-121031745D01*
X92768928Y-121204999D01*
X92768928Y-121855001D01*
X92785992Y-122028255D01*
X92836528Y-122194851D01*
X92918595Y-122348387D01*
X93029038Y-122482962D01*
X93116816Y-122555000D01*
X93029038Y-122627038D01*
X92918595Y-122761613D01*
X92836528Y-122915149D01*
X92785992Y-123081745D01*
X92768928Y-123254999D01*
X92768928Y-123905001D01*
X92785992Y-124078255D01*
X92836528Y-124244851D01*
X92880020Y-124326218D01*
X92397072Y-123843271D01*
X92397072Y-123254999D01*
X92380008Y-123081745D01*
X92329472Y-122915149D01*
X92247405Y-122761613D01*
X92136962Y-122627038D01*
X92049184Y-122555000D01*
X92136962Y-122482962D01*
X92247405Y-122348387D01*
X92329472Y-122194851D01*
X92380008Y-122028255D01*
X92397072Y-121855001D01*
X92397072Y-121204999D01*
X92380008Y-121031745D01*
X92329472Y-120865149D01*
X92247405Y-120711613D01*
X92136962Y-120577038D01*
X92002387Y-120466595D01*
X91848851Y-120384528D01*
X91819000Y-120375473D01*
X91819000Y-118517957D01*
X91828502Y-118500180D01*
X91864812Y-118380482D01*
X91877072Y-118256000D01*
X91877072Y-117456000D01*
X91864812Y-117331518D01*
X91828502Y-117211820D01*
X91769537Y-117101506D01*
X91690185Y-117004815D01*
X91593494Y-116925463D01*
X91483180Y-116866498D01*
X91363482Y-116830188D01*
X91239000Y-116817928D01*
X90339000Y-116817928D01*
X90214518Y-116830188D01*
X90094820Y-116866498D01*
X89984506Y-116925463D01*
X89887815Y-117004815D01*
X89808463Y-117101506D01*
X89799857Y-117117607D01*
X89715250Y-117033000D01*
X88916000Y-117033000D01*
X88916000Y-117053000D01*
X88662000Y-117053000D01*
X88662000Y-117033000D01*
X87862750Y-117033000D01*
X87704000Y-117191750D01*
X87700928Y-117306000D01*
X87713188Y-117430482D01*
X87749498Y-117550180D01*
X87808463Y-117660494D01*
X87887815Y-117757185D01*
X87984506Y-117836537D01*
X88020918Y-117856000D01*
X87984506Y-117875463D01*
X87887815Y-117954815D01*
X87808463Y-118051506D01*
X87749498Y-118161820D01*
X87713188Y-118281518D01*
X87700928Y-118406000D01*
X87700928Y-119206000D01*
X87713188Y-119330482D01*
X87749498Y-119450180D01*
X87759001Y-119467958D01*
X87759000Y-120375473D01*
X87729149Y-120384528D01*
X87575613Y-120466595D01*
X87441038Y-120577038D01*
X87330595Y-120711613D01*
X87248528Y-120865149D01*
X87197992Y-121031745D01*
X87180928Y-121204999D01*
X77876000Y-121204999D01*
X77876000Y-116506000D01*
X87700928Y-116506000D01*
X87704000Y-116620250D01*
X87862750Y-116779000D01*
X88662000Y-116779000D01*
X88662000Y-116029750D01*
X88916000Y-116029750D01*
X88916000Y-116779000D01*
X89715250Y-116779000D01*
X89874000Y-116620250D01*
X89877072Y-116506000D01*
X89871065Y-116445000D01*
X93288928Y-116445000D01*
X93292000Y-116559250D01*
X93450750Y-116718000D01*
X94250000Y-116718000D01*
X94250000Y-115968750D01*
X94504000Y-115968750D01*
X94504000Y-116718000D01*
X95303250Y-116718000D01*
X95462000Y-116559250D01*
X95465072Y-116445000D01*
X95452812Y-116320518D01*
X95416502Y-116200820D01*
X95357537Y-116090506D01*
X95278185Y-115993815D01*
X95181494Y-115914463D01*
X95071180Y-115855498D01*
X94951482Y-115819188D01*
X94827000Y-115806928D01*
X94662750Y-115810000D01*
X94504000Y-115968750D01*
X94250000Y-115968750D01*
X94091250Y-115810000D01*
X93927000Y-115806928D01*
X93802518Y-115819188D01*
X93682820Y-115855498D01*
X93572506Y-115914463D01*
X93475815Y-115993815D01*
X93396463Y-116090506D01*
X93337498Y-116200820D01*
X93301188Y-116320518D01*
X93288928Y-116445000D01*
X89871065Y-116445000D01*
X89864812Y-116381518D01*
X89828502Y-116261820D01*
X89769537Y-116151506D01*
X89690185Y-116054815D01*
X89593494Y-115975463D01*
X89483180Y-115916498D01*
X89363482Y-115880188D01*
X89239000Y-115867928D01*
X89074750Y-115871000D01*
X88916000Y-116029750D01*
X88662000Y-116029750D01*
X88503250Y-115871000D01*
X88339000Y-115867928D01*
X88214518Y-115880188D01*
X88094820Y-115916498D01*
X87984506Y-115975463D01*
X87887815Y-116054815D01*
X87808463Y-116151506D01*
X87749498Y-116261820D01*
X87713188Y-116381518D01*
X87700928Y-116506000D01*
X77876000Y-116506000D01*
X77876000Y-101600000D01*
X86137815Y-101600000D01*
X86166487Y-101891111D01*
X86251401Y-102171034D01*
X86389294Y-102429014D01*
X86574866Y-102655134D01*
X86800986Y-102840706D01*
X86855791Y-102870000D01*
X86800986Y-102899294D01*
X86574866Y-103084866D01*
X86389294Y-103310986D01*
X86251401Y-103568966D01*
X86166487Y-103848889D01*
X86137815Y-104140000D01*
X86166487Y-104431111D01*
X86251401Y-104711034D01*
X86389294Y-104969014D01*
X86574866Y-105195134D01*
X86800986Y-105380706D01*
X87058966Y-105518599D01*
X87338889Y-105603513D01*
X87557050Y-105625000D01*
X87702950Y-105625000D01*
X87921111Y-105603513D01*
X88201034Y-105518599D01*
X88459014Y-105380706D01*
X88685134Y-105195134D01*
X88870706Y-104969014D01*
X89008599Y-104711034D01*
X89093513Y-104431111D01*
X89122185Y-104140000D01*
X89093513Y-103848889D01*
X89008599Y-103568966D01*
X88870706Y-103310986D01*
X88685134Y-103084866D01*
X88459014Y-102899294D01*
X88404209Y-102870000D01*
X88459014Y-102840706D01*
X88685134Y-102655134D01*
X88870706Y-102429014D01*
X89008599Y-102171034D01*
X89093513Y-101891111D01*
X89122185Y-101600000D01*
X113677815Y-101600000D01*
X113706487Y-101891111D01*
X113791401Y-102171034D01*
X113929294Y-102429014D01*
X114114866Y-102655134D01*
X114340986Y-102840706D01*
X114395791Y-102870000D01*
X114340986Y-102899294D01*
X114114866Y-103084866D01*
X113929294Y-103310986D01*
X113791401Y-103568966D01*
X113706487Y-103848889D01*
X113677815Y-104140000D01*
X113706487Y-104431111D01*
X113791401Y-104711034D01*
X113929294Y-104969014D01*
X114114866Y-105195134D01*
X114340986Y-105380706D01*
X114395791Y-105410000D01*
X114340986Y-105439294D01*
X114114866Y-105624866D01*
X113929294Y-105850986D01*
X113791401Y-106108966D01*
X113706487Y-106388889D01*
X113677815Y-106680000D01*
X113706487Y-106971111D01*
X113791401Y-107251034D01*
X113929294Y-107509014D01*
X114114866Y-107735134D01*
X114340986Y-107920706D01*
X114598966Y-108058599D01*
X114878889Y-108143513D01*
X115097050Y-108165000D01*
X115242950Y-108165000D01*
X115461111Y-108143513D01*
X115741034Y-108058599D01*
X115999014Y-107920706D01*
X116225134Y-107735134D01*
X116410706Y-107509014D01*
X116548599Y-107251034D01*
X116633513Y-106971111D01*
X116662185Y-106680000D01*
X116633513Y-106388889D01*
X116548599Y-106108966D01*
X116410706Y-105850986D01*
X116225134Y-105624866D01*
X115999014Y-105439294D01*
X115944209Y-105410000D01*
X115999014Y-105380706D01*
X116225134Y-105195134D01*
X116410706Y-104969014D01*
X116548599Y-104711034D01*
X116633513Y-104431111D01*
X116662185Y-104140000D01*
X116633513Y-103848889D01*
X116548599Y-103568966D01*
X116410706Y-103310986D01*
X116225134Y-103084866D01*
X115999014Y-102899294D01*
X115944209Y-102870000D01*
X115999014Y-102840706D01*
X116225134Y-102655134D01*
X116410706Y-102429014D01*
X116548599Y-102171034D01*
X116633513Y-101891111D01*
X116662185Y-101600000D01*
X116633513Y-101308889D01*
X116548599Y-101028966D01*
X116410706Y-100770986D01*
X116225134Y-100544866D01*
X115999014Y-100359294D01*
X115934477Y-100324799D01*
X116051355Y-100255178D01*
X116267588Y-100060269D01*
X116441641Y-99826920D01*
X116566825Y-99564099D01*
X116611476Y-99416890D01*
X116490155Y-99187000D01*
X115297000Y-99187000D01*
X115297000Y-99207000D01*
X115043000Y-99207000D01*
X115043000Y-99187000D01*
X113849845Y-99187000D01*
X113728524Y-99416890D01*
X113773175Y-99564099D01*
X113898359Y-99826920D01*
X114072412Y-100060269D01*
X114288645Y-100255178D01*
X114405523Y-100324799D01*
X114340986Y-100359294D01*
X114114866Y-100544866D01*
X113929294Y-100770986D01*
X113791401Y-101028966D01*
X113706487Y-101308889D01*
X113677815Y-101600000D01*
X89122185Y-101600000D01*
X89093513Y-101308889D01*
X89008599Y-101028966D01*
X88870706Y-100770986D01*
X88685134Y-100544866D01*
X88459014Y-100359294D01*
X88394477Y-100324799D01*
X88511355Y-100255178D01*
X88727588Y-100060269D01*
X88901641Y-99826920D01*
X89026825Y-99564099D01*
X89071476Y-99416890D01*
X88950155Y-99187000D01*
X87757000Y-99187000D01*
X87757000Y-99207000D01*
X87503000Y-99207000D01*
X87503000Y-99187000D01*
X86309845Y-99187000D01*
X86188524Y-99416890D01*
X86233175Y-99564099D01*
X86358359Y-99826920D01*
X86532412Y-100060269D01*
X86748645Y-100255178D01*
X86865523Y-100324799D01*
X86800986Y-100359294D01*
X86574866Y-100544866D01*
X86389294Y-100770986D01*
X86251401Y-101028966D01*
X86166487Y-101308889D01*
X86137815Y-101600000D01*
X77876000Y-101600000D01*
X77876000Y-93980000D01*
X86137815Y-93980000D01*
X86166487Y-94271111D01*
X86251401Y-94551034D01*
X86389294Y-94809014D01*
X86574866Y-95035134D01*
X86800986Y-95220706D01*
X86855791Y-95250000D01*
X86800986Y-95279294D01*
X86574866Y-95464866D01*
X86389294Y-95690986D01*
X86251401Y-95948966D01*
X86166487Y-96228889D01*
X86137815Y-96520000D01*
X86166487Y-96811111D01*
X86251401Y-97091034D01*
X86389294Y-97349014D01*
X86574866Y-97575134D01*
X86800986Y-97760706D01*
X86865523Y-97795201D01*
X86748645Y-97864822D01*
X86532412Y-98059731D01*
X86358359Y-98293080D01*
X86233175Y-98555901D01*
X86188524Y-98703110D01*
X86309845Y-98933000D01*
X87503000Y-98933000D01*
X87503000Y-98913000D01*
X87757000Y-98913000D01*
X87757000Y-98933000D01*
X88950155Y-98933000D01*
X89071476Y-98703110D01*
X89026825Y-98555901D01*
X88901641Y-98293080D01*
X88727588Y-98059731D01*
X88511355Y-97864822D01*
X88394477Y-97795201D01*
X88459014Y-97760706D01*
X88685134Y-97575134D01*
X88870706Y-97349014D01*
X88907595Y-97280000D01*
X97558500Y-97280000D01*
X97595822Y-97283676D01*
X97633144Y-97280000D01*
X97633155Y-97280000D01*
X97744808Y-97269003D01*
X97888069Y-97225546D01*
X98020098Y-97154974D01*
X98135823Y-97060001D01*
X98159626Y-97030997D01*
X98585623Y-96605000D01*
X102601928Y-96605000D01*
X102614188Y-96729482D01*
X102650498Y-96849180D01*
X102709463Y-96959494D01*
X102788815Y-97056185D01*
X102885506Y-97135537D01*
X102995820Y-97194502D01*
X103115518Y-97230812D01*
X103240000Y-97243072D01*
X103654250Y-97240000D01*
X103813000Y-97081250D01*
X103813000Y-96157000D01*
X104067000Y-96157000D01*
X104067000Y-97081250D01*
X104225750Y-97240000D01*
X104640000Y-97243072D01*
X104764482Y-97230812D01*
X104884180Y-97194502D01*
X104994494Y-97135537D01*
X105091185Y-97056185D01*
X105170537Y-96959494D01*
X105229502Y-96849180D01*
X105265812Y-96729482D01*
X105278072Y-96605000D01*
X105275000Y-96315750D01*
X105116250Y-96157000D01*
X104067000Y-96157000D01*
X103813000Y-96157000D01*
X102763750Y-96157000D01*
X102605000Y-96315750D01*
X102601928Y-96605000D01*
X98585623Y-96605000D01*
X100062844Y-95127779D01*
X100161063Y-95274774D01*
X100305226Y-95418937D01*
X100474744Y-95532205D01*
X100663102Y-95610226D01*
X100863061Y-95650000D01*
X101066939Y-95650000D01*
X101266898Y-95610226D01*
X101455256Y-95532205D01*
X101503454Y-95500000D01*
X102602406Y-95500000D01*
X102605000Y-95744250D01*
X102763750Y-95903000D01*
X103813000Y-95903000D01*
X103813000Y-95883000D01*
X104067000Y-95883000D01*
X104067000Y-95903000D01*
X105116250Y-95903000D01*
X105275000Y-95744250D01*
X105278072Y-95455000D01*
X105265812Y-95330518D01*
X105229502Y-95210820D01*
X105170537Y-95100506D01*
X105091185Y-95003815D01*
X105011406Y-94938342D01*
X105017962Y-94932962D01*
X105128405Y-94798387D01*
X105210472Y-94644851D01*
X105261008Y-94478255D01*
X105278072Y-94305001D01*
X105278072Y-93980000D01*
X113677815Y-93980000D01*
X113706487Y-94271111D01*
X113791401Y-94551034D01*
X113929294Y-94809014D01*
X114114866Y-95035134D01*
X114340986Y-95220706D01*
X114395791Y-95250000D01*
X114340986Y-95279294D01*
X114114866Y-95464866D01*
X113929294Y-95690986D01*
X113791401Y-95948966D01*
X113706487Y-96228889D01*
X113677815Y-96520000D01*
X113706487Y-96811111D01*
X113791401Y-97091034D01*
X113929294Y-97349014D01*
X114114866Y-97575134D01*
X114340986Y-97760706D01*
X114405523Y-97795201D01*
X114288645Y-97864822D01*
X114072412Y-98059731D01*
X113898359Y-98293080D01*
X113773175Y-98555901D01*
X113728524Y-98703110D01*
X113849845Y-98933000D01*
X115043000Y-98933000D01*
X115043000Y-98913000D01*
X115297000Y-98913000D01*
X115297000Y-98933000D01*
X116490155Y-98933000D01*
X116611476Y-98703110D01*
X116566825Y-98555901D01*
X116441641Y-98293080D01*
X116267588Y-98059731D01*
X116051355Y-97864822D01*
X115934477Y-97795201D01*
X115999014Y-97760706D01*
X116225134Y-97575134D01*
X116410706Y-97349014D01*
X116548599Y-97091034D01*
X116633513Y-96811111D01*
X116662185Y-96520000D01*
X116633513Y-96228889D01*
X116548599Y-95948966D01*
X116410706Y-95690986D01*
X116225134Y-95464866D01*
X115999014Y-95279294D01*
X115944209Y-95250000D01*
X115999014Y-95220706D01*
X116225134Y-95035134D01*
X116410706Y-94809014D01*
X116548599Y-94551034D01*
X116633513Y-94271111D01*
X116662185Y-93980000D01*
X116633513Y-93688889D01*
X116548599Y-93408966D01*
X116410706Y-93150986D01*
X116225134Y-92924866D01*
X116195313Y-92900393D01*
X116264180Y-92879502D01*
X116374494Y-92820537D01*
X116471185Y-92741185D01*
X116550537Y-92644494D01*
X116609502Y-92534180D01*
X116645812Y-92414482D01*
X116658072Y-92290000D01*
X116658072Y-90590000D01*
X116645812Y-90465518D01*
X116609502Y-90345820D01*
X116550537Y-90235506D01*
X116471185Y-90138815D01*
X116374494Y-90059463D01*
X116264180Y-90000498D01*
X116144482Y-89964188D01*
X116020000Y-89951928D01*
X114320000Y-89951928D01*
X114195518Y-89964188D01*
X114075820Y-90000498D01*
X113965506Y-90059463D01*
X113868815Y-90138815D01*
X113789463Y-90235506D01*
X113730498Y-90345820D01*
X113694188Y-90465518D01*
X113681928Y-90590000D01*
X113681928Y-92290000D01*
X113694188Y-92414482D01*
X113730498Y-92534180D01*
X113789463Y-92644494D01*
X113868815Y-92741185D01*
X113965506Y-92820537D01*
X114075820Y-92879502D01*
X114144687Y-92900393D01*
X114114866Y-92924866D01*
X113929294Y-93150986D01*
X113791401Y-93408966D01*
X113706487Y-93688889D01*
X113677815Y-93980000D01*
X105278072Y-93980000D01*
X105278072Y-93654999D01*
X105261008Y-93481745D01*
X105210472Y-93315149D01*
X105128405Y-93161613D01*
X105017962Y-93027038D01*
X104947812Y-92969467D01*
X104964180Y-92964502D01*
X105074494Y-92905537D01*
X105171185Y-92826185D01*
X105250537Y-92729494D01*
X105309502Y-92619180D01*
X105345812Y-92499482D01*
X105358072Y-92375000D01*
X105358072Y-91775000D01*
X105345812Y-91650518D01*
X105309502Y-91530820D01*
X105260957Y-91440000D01*
X105309502Y-91349180D01*
X105345812Y-91229482D01*
X105358072Y-91105000D01*
X105358072Y-90505000D01*
X105345812Y-90380518D01*
X105319870Y-90295000D01*
X105341289Y-90295000D01*
X105385226Y-90338937D01*
X105554744Y-90452205D01*
X105743102Y-90530226D01*
X105943061Y-90570000D01*
X106146939Y-90570000D01*
X106346898Y-90530226D01*
X106535256Y-90452205D01*
X106704774Y-90338937D01*
X106848937Y-90194774D01*
X106962205Y-90025256D01*
X107040226Y-89836898D01*
X107080000Y-89636939D01*
X107080000Y-89433061D01*
X107040226Y-89233102D01*
X106962205Y-89044744D01*
X106848937Y-88875226D01*
X106704774Y-88731063D01*
X106535256Y-88617795D01*
X106346898Y-88539774D01*
X106146939Y-88500000D01*
X105943061Y-88500000D01*
X105743102Y-88539774D01*
X105554744Y-88617795D01*
X105385226Y-88731063D01*
X105341289Y-88775000D01*
X105319870Y-88775000D01*
X105345812Y-88689482D01*
X105358072Y-88565000D01*
X105355000Y-88550750D01*
X105196250Y-88392000D01*
X104097000Y-88392000D01*
X104097000Y-88412000D01*
X103843000Y-88412000D01*
X103843000Y-88392000D01*
X102743750Y-88392000D01*
X102585000Y-88550750D01*
X102581928Y-88565000D01*
X102594188Y-88689482D01*
X102630498Y-88809180D01*
X102679043Y-88900000D01*
X102630498Y-88990820D01*
X102597032Y-89101144D01*
X102530937Y-89002226D01*
X102386774Y-88858063D01*
X102217256Y-88744795D01*
X102028898Y-88666774D01*
X101828939Y-88627000D01*
X101625061Y-88627000D01*
X101425102Y-88666774D01*
X101355019Y-88695804D01*
X101355019Y-87755000D01*
X102620130Y-87755000D01*
X102594188Y-87840518D01*
X102581928Y-87965000D01*
X102585000Y-87979250D01*
X102743750Y-88138000D01*
X103843000Y-88138000D01*
X103843000Y-88118000D01*
X104097000Y-88118000D01*
X104097000Y-88138000D01*
X105196250Y-88138000D01*
X105355000Y-87979250D01*
X105358072Y-87965000D01*
X105345812Y-87840518D01*
X105319870Y-87755000D01*
X105341289Y-87755000D01*
X105385226Y-87798937D01*
X105554744Y-87912205D01*
X105743102Y-87990226D01*
X105943061Y-88030000D01*
X106146939Y-88030000D01*
X106346898Y-87990226D01*
X106535256Y-87912205D01*
X106704774Y-87798937D01*
X106848937Y-87654774D01*
X106962205Y-87485256D01*
X107040226Y-87296898D01*
X107080000Y-87096939D01*
X107080000Y-86893061D01*
X107040226Y-86693102D01*
X106962205Y-86504744D01*
X106865490Y-86360000D01*
X106962205Y-86215256D01*
X107040226Y-86026898D01*
X107080000Y-85826939D01*
X107080000Y-85623061D01*
X107040226Y-85423102D01*
X106962205Y-85234744D01*
X106865490Y-85090000D01*
X106962205Y-84945256D01*
X107040226Y-84756898D01*
X107080000Y-84556939D01*
X107080000Y-84353061D01*
X107040226Y-84153102D01*
X106962205Y-83964744D01*
X106848937Y-83795226D01*
X106704774Y-83651063D01*
X106535256Y-83537795D01*
X106346898Y-83459774D01*
X106146939Y-83420000D01*
X105943061Y-83420000D01*
X105743102Y-83459774D01*
X105554744Y-83537795D01*
X105506546Y-83570000D01*
X105349701Y-83570000D01*
X105358072Y-83485000D01*
X105358072Y-82885000D01*
X105345812Y-82760518D01*
X105309502Y-82640820D01*
X105250537Y-82530506D01*
X105171185Y-82433815D01*
X105074494Y-82354463D01*
X104964180Y-82295498D01*
X104844482Y-82259188D01*
X104720000Y-82246928D01*
X103220000Y-82246928D01*
X103095518Y-82259188D01*
X102975820Y-82295498D01*
X102865506Y-82354463D01*
X102768815Y-82433815D01*
X102689463Y-82530506D01*
X102630498Y-82640820D01*
X102594188Y-82760518D01*
X102581928Y-82885000D01*
X102581928Y-83048270D01*
X99958072Y-85672127D01*
X99958072Y-85425000D01*
X99945812Y-85300518D01*
X99909502Y-85180820D01*
X99860957Y-85090000D01*
X99909502Y-84999180D01*
X99945812Y-84879482D01*
X99958072Y-84755000D01*
X99958072Y-84155000D01*
X99945812Y-84030518D01*
X99909502Y-83910820D01*
X99860957Y-83820000D01*
X99909502Y-83729180D01*
X99945812Y-83609482D01*
X99958072Y-83485000D01*
X99955000Y-83470750D01*
X99796250Y-83312000D01*
X98697000Y-83312000D01*
X98697000Y-83332000D01*
X98443000Y-83332000D01*
X98443000Y-83312000D01*
X97343750Y-83312000D01*
X97185000Y-83470750D01*
X97181928Y-83485000D01*
X97194188Y-83609482D01*
X97218570Y-83689859D01*
X97179774Y-83651063D01*
X97010256Y-83537795D01*
X96821898Y-83459774D01*
X96621939Y-83420000D01*
X96418061Y-83420000D01*
X96218102Y-83459774D01*
X96029744Y-83537795D01*
X95860226Y-83651063D01*
X95716063Y-83795226D01*
X95602795Y-83964744D01*
X95524774Y-84153102D01*
X95485000Y-84353061D01*
X95485000Y-84556939D01*
X95524774Y-84756898D01*
X95602795Y-84945256D01*
X95699510Y-85090000D01*
X95602795Y-85234744D01*
X95524774Y-85423102D01*
X95485000Y-85623061D01*
X95485000Y-85826939D01*
X95524774Y-86026898D01*
X95602795Y-86215256D01*
X95699510Y-86360000D01*
X95602795Y-86504744D01*
X95524774Y-86693102D01*
X95485000Y-86893061D01*
X95485000Y-87096939D01*
X95524774Y-87296898D01*
X95602795Y-87485256D01*
X95699510Y-87630000D01*
X95602795Y-87774744D01*
X95524774Y-87963102D01*
X95485000Y-88163061D01*
X95485000Y-88366939D01*
X95524774Y-88566898D01*
X95602795Y-88755256D01*
X95699510Y-88900000D01*
X95602795Y-89044744D01*
X95524774Y-89233102D01*
X95485000Y-89433061D01*
X95485000Y-89636939D01*
X95524774Y-89836898D01*
X95602795Y-90025256D01*
X95669442Y-90125000D01*
X95602795Y-90224744D01*
X95524774Y-90413102D01*
X95485000Y-90613061D01*
X95485000Y-90680000D01*
X89118072Y-90680000D01*
X89118072Y-90590000D01*
X89105812Y-90465518D01*
X89069502Y-90345820D01*
X89010537Y-90235506D01*
X88931185Y-90138815D01*
X88834494Y-90059463D01*
X88724180Y-90000498D01*
X88604482Y-89964188D01*
X88480000Y-89951928D01*
X86780000Y-89951928D01*
X86655518Y-89964188D01*
X86535820Y-90000498D01*
X86425506Y-90059463D01*
X86328815Y-90138815D01*
X86249463Y-90235506D01*
X86190498Y-90345820D01*
X86154188Y-90465518D01*
X86141928Y-90590000D01*
X86141928Y-92290000D01*
X86154188Y-92414482D01*
X86190498Y-92534180D01*
X86249463Y-92644494D01*
X86328815Y-92741185D01*
X86425506Y-92820537D01*
X86535820Y-92879502D01*
X86604687Y-92900393D01*
X86574866Y-92924866D01*
X86389294Y-93150986D01*
X86251401Y-93408966D01*
X86166487Y-93688889D01*
X86137815Y-93980000D01*
X77876000Y-93980000D01*
X77876000Y-82885000D01*
X97181928Y-82885000D01*
X97185000Y-82899250D01*
X97343750Y-83058000D01*
X98443000Y-83058000D01*
X98443000Y-82408750D01*
X98697000Y-82408750D01*
X98697000Y-83058000D01*
X99796250Y-83058000D01*
X99955000Y-82899250D01*
X99958072Y-82885000D01*
X99945812Y-82760518D01*
X99909502Y-82640820D01*
X99850537Y-82530506D01*
X99771185Y-82433815D01*
X99674494Y-82354463D01*
X99564180Y-82295498D01*
X99444482Y-82259188D01*
X99320000Y-82246928D01*
X98855750Y-82250000D01*
X98697000Y-82408750D01*
X98443000Y-82408750D01*
X98284250Y-82250000D01*
X97820000Y-82246928D01*
X97695518Y-82259188D01*
X97575820Y-82295498D01*
X97465506Y-82354463D01*
X97368815Y-82433815D01*
X97289463Y-82530506D01*
X97230498Y-82640820D01*
X97194188Y-82760518D01*
X97181928Y-82885000D01*
X77876000Y-82885000D01*
X77876000Y-76915000D01*
X93891928Y-76915000D01*
X93904188Y-77039482D01*
X93940498Y-77159180D01*
X93999463Y-77269494D01*
X94078815Y-77366185D01*
X94175506Y-77445537D01*
X94285820Y-77504502D01*
X94405518Y-77540812D01*
X94530000Y-77553072D01*
X94694250Y-77550000D01*
X94853000Y-77391250D01*
X94853000Y-76642000D01*
X95107000Y-76642000D01*
X95107000Y-77391250D01*
X95265750Y-77550000D01*
X95430000Y-77553072D01*
X95554482Y-77540812D01*
X95674180Y-77504502D01*
X95784494Y-77445537D01*
X95881185Y-77366185D01*
X95960537Y-77269494D01*
X96019502Y-77159180D01*
X96055812Y-77039482D01*
X96068072Y-76915000D01*
X98971928Y-76915000D01*
X98984188Y-77039482D01*
X99020498Y-77159180D01*
X99079463Y-77269494D01*
X99158815Y-77366185D01*
X99255506Y-77445537D01*
X99365820Y-77504502D01*
X99485518Y-77540812D01*
X99610000Y-77553072D01*
X99774250Y-77550000D01*
X99933000Y-77391250D01*
X99933000Y-76642000D01*
X100187000Y-76642000D01*
X100187000Y-77391250D01*
X100345750Y-77550000D01*
X100510000Y-77553072D01*
X100634482Y-77540812D01*
X100754180Y-77504502D01*
X100864494Y-77445537D01*
X100961185Y-77366185D01*
X101040537Y-77269494D01*
X101099502Y-77159180D01*
X101135812Y-77039482D01*
X101148072Y-76915000D01*
X104051928Y-76915000D01*
X104064188Y-77039482D01*
X104100498Y-77159180D01*
X104159463Y-77269494D01*
X104238815Y-77366185D01*
X104335506Y-77445537D01*
X104445820Y-77504502D01*
X104565518Y-77540812D01*
X104690000Y-77553072D01*
X104854250Y-77550000D01*
X105013000Y-77391250D01*
X105013000Y-76642000D01*
X105267000Y-76642000D01*
X105267000Y-77391250D01*
X105425750Y-77550000D01*
X105590000Y-77553072D01*
X105714482Y-77540812D01*
X105834180Y-77504502D01*
X105944494Y-77445537D01*
X106041185Y-77366185D01*
X106120537Y-77269494D01*
X106179502Y-77159180D01*
X106215812Y-77039482D01*
X106228072Y-76915000D01*
X109131928Y-76915000D01*
X109144188Y-77039482D01*
X109180498Y-77159180D01*
X109239463Y-77269494D01*
X109318815Y-77366185D01*
X109415506Y-77445537D01*
X109525820Y-77504502D01*
X109645518Y-77540812D01*
X109770000Y-77553072D01*
X109934250Y-77550000D01*
X110093000Y-77391250D01*
X110093000Y-76642000D01*
X110347000Y-76642000D01*
X110347000Y-77391250D01*
X110505750Y-77550000D01*
X110670000Y-77553072D01*
X110794482Y-77540812D01*
X110914180Y-77504502D01*
X111024494Y-77445537D01*
X111121185Y-77366185D01*
X111200537Y-77269494D01*
X111259502Y-77159180D01*
X111295812Y-77039482D01*
X111308072Y-76915000D01*
X111305000Y-76800750D01*
X111146250Y-76642000D01*
X110347000Y-76642000D01*
X110093000Y-76642000D01*
X109293750Y-76642000D01*
X109135000Y-76800750D01*
X109131928Y-76915000D01*
X106228072Y-76915000D01*
X106225000Y-76800750D01*
X106066250Y-76642000D01*
X105267000Y-76642000D01*
X105013000Y-76642000D01*
X104213750Y-76642000D01*
X104055000Y-76800750D01*
X104051928Y-76915000D01*
X101148072Y-76915000D01*
X101145000Y-76800750D01*
X100986250Y-76642000D01*
X100187000Y-76642000D01*
X99933000Y-76642000D01*
X99133750Y-76642000D01*
X98975000Y-76800750D01*
X98971928Y-76915000D01*
X96068072Y-76915000D01*
X96065000Y-76800750D01*
X95906250Y-76642000D01*
X95107000Y-76642000D01*
X94853000Y-76642000D01*
X94053750Y-76642000D01*
X93895000Y-76800750D01*
X93891928Y-76915000D01*
X77876000Y-76915000D01*
X77876000Y-70014999D01*
X91371928Y-70014999D01*
X91371928Y-70665001D01*
X91388992Y-70838255D01*
X91439528Y-71004851D01*
X91521595Y-71158387D01*
X91632038Y-71292962D01*
X91719816Y-71365000D01*
X91632038Y-71437038D01*
X91521595Y-71571613D01*
X91439528Y-71725149D01*
X91388992Y-71891745D01*
X91371928Y-72064999D01*
X91371928Y-72715001D01*
X91388992Y-72888255D01*
X91439528Y-73054851D01*
X91521595Y-73208387D01*
X91632038Y-73342962D01*
X91766613Y-73453405D01*
X91920149Y-73535472D01*
X92086745Y-73586008D01*
X92220001Y-73599133D01*
X92220000Y-74610680D01*
X92175506Y-74634463D01*
X92078815Y-74713815D01*
X91999463Y-74810506D01*
X91940498Y-74920820D01*
X91904188Y-75040518D01*
X91891928Y-75165000D01*
X91891928Y-75965000D01*
X91904188Y-76089482D01*
X91940498Y-76209180D01*
X91999463Y-76319494D01*
X92078815Y-76416185D01*
X92175506Y-76495537D01*
X92285820Y-76554502D01*
X92405518Y-76590812D01*
X92530000Y-76603072D01*
X93430000Y-76603072D01*
X93554482Y-76590812D01*
X93674180Y-76554502D01*
X93784494Y-76495537D01*
X93881185Y-76416185D01*
X93960537Y-76319494D01*
X93969143Y-76303393D01*
X94053750Y-76388000D01*
X94853000Y-76388000D01*
X94853000Y-76368000D01*
X95107000Y-76368000D01*
X95107000Y-76388000D01*
X95906250Y-76388000D01*
X96065000Y-76229250D01*
X96068072Y-76115000D01*
X96055812Y-75990518D01*
X96019502Y-75870820D01*
X95960537Y-75760506D01*
X95881185Y-75663815D01*
X95784494Y-75584463D01*
X95748082Y-75565000D01*
X95784494Y-75545537D01*
X95881185Y-75466185D01*
X95960537Y-75369494D01*
X96019502Y-75259180D01*
X96055812Y-75139482D01*
X96068072Y-75015000D01*
X96068072Y-74215000D01*
X96055812Y-74090518D01*
X96019502Y-73970820D01*
X95960537Y-73860506D01*
X95881185Y-73763815D01*
X95784494Y-73684463D01*
X95740000Y-73660680D01*
X95740000Y-73599132D01*
X95873255Y-73586008D01*
X96039851Y-73535472D01*
X96193387Y-73453405D01*
X96327962Y-73342962D01*
X96438405Y-73208387D01*
X96520000Y-73055734D01*
X96601595Y-73208387D01*
X96712038Y-73342962D01*
X96846613Y-73453405D01*
X97000149Y-73535472D01*
X97166745Y-73586008D01*
X97300001Y-73599133D01*
X97300000Y-74610680D01*
X97255506Y-74634463D01*
X97158815Y-74713815D01*
X97079463Y-74810506D01*
X97020498Y-74920820D01*
X96984188Y-75040518D01*
X96971928Y-75165000D01*
X96971928Y-75965000D01*
X96984188Y-76089482D01*
X97020498Y-76209180D01*
X97079463Y-76319494D01*
X97158815Y-76416185D01*
X97255506Y-76495537D01*
X97365820Y-76554502D01*
X97485518Y-76590812D01*
X97610000Y-76603072D01*
X98510000Y-76603072D01*
X98634482Y-76590812D01*
X98754180Y-76554502D01*
X98864494Y-76495537D01*
X98961185Y-76416185D01*
X99040537Y-76319494D01*
X99049143Y-76303393D01*
X99133750Y-76388000D01*
X99933000Y-76388000D01*
X99933000Y-76368000D01*
X100187000Y-76368000D01*
X100187000Y-76388000D01*
X100986250Y-76388000D01*
X101145000Y-76229250D01*
X101148072Y-76115000D01*
X101135812Y-75990518D01*
X101099502Y-75870820D01*
X101040537Y-75760506D01*
X100961185Y-75663815D01*
X100864494Y-75584463D01*
X100828082Y-75565000D01*
X100864494Y-75545537D01*
X100961185Y-75466185D01*
X101040537Y-75369494D01*
X101099502Y-75259180D01*
X101135812Y-75139482D01*
X101148072Y-75015000D01*
X101148072Y-74215000D01*
X101135812Y-74090518D01*
X101099502Y-73970820D01*
X101040537Y-73860506D01*
X100961185Y-73763815D01*
X100864494Y-73684463D01*
X100820000Y-73660680D01*
X100820000Y-73599132D01*
X100953255Y-73586008D01*
X101119851Y-73535472D01*
X101273387Y-73453405D01*
X101407962Y-73342962D01*
X101518405Y-73208387D01*
X101600000Y-73055734D01*
X101681595Y-73208387D01*
X101792038Y-73342962D01*
X101926613Y-73453405D01*
X102080149Y-73535472D01*
X102246745Y-73586008D01*
X102380001Y-73599133D01*
X102380000Y-74610680D01*
X102335506Y-74634463D01*
X102238815Y-74713815D01*
X102159463Y-74810506D01*
X102100498Y-74920820D01*
X102064188Y-75040518D01*
X102051928Y-75165000D01*
X102051928Y-75965000D01*
X102064188Y-76089482D01*
X102100498Y-76209180D01*
X102159463Y-76319494D01*
X102238815Y-76416185D01*
X102335506Y-76495537D01*
X102445820Y-76554502D01*
X102565518Y-76590812D01*
X102690000Y-76603072D01*
X103590000Y-76603072D01*
X103714482Y-76590812D01*
X103834180Y-76554502D01*
X103944494Y-76495537D01*
X104041185Y-76416185D01*
X104120537Y-76319494D01*
X104129143Y-76303393D01*
X104213750Y-76388000D01*
X105013000Y-76388000D01*
X105013000Y-76368000D01*
X105267000Y-76368000D01*
X105267000Y-76388000D01*
X106066250Y-76388000D01*
X106225000Y-76229250D01*
X106228072Y-76115000D01*
X106215812Y-75990518D01*
X106179502Y-75870820D01*
X106120537Y-75760506D01*
X106041185Y-75663815D01*
X105944494Y-75584463D01*
X105908082Y-75565000D01*
X105944494Y-75545537D01*
X106041185Y-75466185D01*
X106120537Y-75369494D01*
X106179502Y-75259180D01*
X106215812Y-75139482D01*
X106228072Y-75015000D01*
X106228072Y-74215000D01*
X106215812Y-74090518D01*
X106179502Y-73970820D01*
X106120537Y-73860506D01*
X106041185Y-73763815D01*
X105944494Y-73684463D01*
X105900000Y-73660680D01*
X105900000Y-73599132D01*
X106033255Y-73586008D01*
X106199851Y-73535472D01*
X106353387Y-73453405D01*
X106487962Y-73342962D01*
X106598405Y-73208387D01*
X106680000Y-73055734D01*
X106761595Y-73208387D01*
X106872038Y-73342962D01*
X107006613Y-73453405D01*
X107160149Y-73535472D01*
X107190000Y-73544527D01*
X107190001Y-74903042D01*
X107180498Y-74920820D01*
X107144188Y-75040518D01*
X107131928Y-75165000D01*
X107131928Y-75965000D01*
X107144188Y-76089482D01*
X107180498Y-76209180D01*
X107239463Y-76319494D01*
X107318815Y-76416185D01*
X107415506Y-76495537D01*
X107525820Y-76554502D01*
X107645518Y-76590812D01*
X107770000Y-76603072D01*
X108670000Y-76603072D01*
X108794482Y-76590812D01*
X108914180Y-76554502D01*
X109024494Y-76495537D01*
X109121185Y-76416185D01*
X109200537Y-76319494D01*
X109209143Y-76303393D01*
X109293750Y-76388000D01*
X110093000Y-76388000D01*
X110093000Y-76368000D01*
X110347000Y-76368000D01*
X110347000Y-76388000D01*
X111146250Y-76388000D01*
X111305000Y-76229250D01*
X111308072Y-76115000D01*
X111295812Y-75990518D01*
X111259502Y-75870820D01*
X111200537Y-75760506D01*
X111121185Y-75663815D01*
X111024494Y-75584463D01*
X110988082Y-75565000D01*
X111024494Y-75545537D01*
X111121185Y-75466185D01*
X111200537Y-75369494D01*
X111259502Y-75259180D01*
X111295812Y-75139482D01*
X111308072Y-75015000D01*
X111308072Y-74215000D01*
X111295812Y-74090518D01*
X111259502Y-73970820D01*
X111250000Y-73953043D01*
X111250000Y-73544527D01*
X111279851Y-73535472D01*
X111433387Y-73453405D01*
X111567962Y-73342962D01*
X111678405Y-73208387D01*
X111760472Y-73054851D01*
X111811008Y-72888255D01*
X111828072Y-72715001D01*
X111828072Y-72064999D01*
X111811008Y-71891745D01*
X111760472Y-71725149D01*
X111678405Y-71571613D01*
X111567962Y-71437038D01*
X111480184Y-71365000D01*
X111567962Y-71292962D01*
X111678405Y-71158387D01*
X111760472Y-71004851D01*
X111811008Y-70838255D01*
X111828072Y-70665001D01*
X111828072Y-70014999D01*
X111811008Y-69841745D01*
X111760472Y-69675149D01*
X111678405Y-69521613D01*
X111567962Y-69387038D01*
X111433387Y-69276595D01*
X111312506Y-69211983D01*
X111407205Y-69070256D01*
X111485226Y-68881898D01*
X111525000Y-68681939D01*
X111525000Y-68478061D01*
X111485226Y-68278102D01*
X111407205Y-68089744D01*
X111293937Y-67920226D01*
X111149774Y-67776063D01*
X110980256Y-67662795D01*
X110791898Y-67584774D01*
X110591939Y-67545000D01*
X110388061Y-67545000D01*
X110188102Y-67584774D01*
X109999744Y-67662795D01*
X109830226Y-67776063D01*
X109686063Y-67920226D01*
X109572795Y-68089744D01*
X109494774Y-68278102D01*
X109455000Y-68478061D01*
X109455000Y-68681939D01*
X109494774Y-68881898D01*
X109572795Y-69070256D01*
X109667494Y-69211983D01*
X109546613Y-69276595D01*
X109412038Y-69387038D01*
X109301595Y-69521613D01*
X109220000Y-69674266D01*
X109138405Y-69521613D01*
X109027962Y-69387038D01*
X108893387Y-69276595D01*
X108739851Y-69194528D01*
X108710000Y-69185473D01*
X108710000Y-68207322D01*
X108713676Y-68169999D01*
X108710000Y-68132676D01*
X108710000Y-68132667D01*
X108699003Y-68021014D01*
X108655546Y-67877753D01*
X108584974Y-67745724D01*
X108490001Y-67629999D01*
X108461003Y-67606201D01*
X108121210Y-67266408D01*
X108165000Y-67046260D01*
X108165000Y-66753740D01*
X108107932Y-66466842D01*
X107995990Y-66196589D01*
X107833475Y-65953368D01*
X107626632Y-65746525D01*
X107383411Y-65584010D01*
X107113158Y-65472068D01*
X106826260Y-65415000D01*
X106533740Y-65415000D01*
X106246842Y-65472068D01*
X105976589Y-65584010D01*
X105733368Y-65746525D01*
X105526525Y-65953368D01*
X105410000Y-66127760D01*
X105293475Y-65953368D01*
X105086632Y-65746525D01*
X104843411Y-65584010D01*
X104573158Y-65472068D01*
X104286260Y-65415000D01*
X103993740Y-65415000D01*
X103706842Y-65472068D01*
X103436589Y-65584010D01*
X103193368Y-65746525D01*
X102986525Y-65953368D01*
X102870000Y-66127760D01*
X102753475Y-65953368D01*
X102546632Y-65746525D01*
X102303411Y-65584010D01*
X102033158Y-65472068D01*
X101746260Y-65415000D01*
X101453740Y-65415000D01*
X101166842Y-65472068D01*
X100896589Y-65584010D01*
X100653368Y-65746525D01*
X100446525Y-65953368D01*
X100330000Y-66127760D01*
X100213475Y-65953368D01*
X100006632Y-65746525D01*
X99763411Y-65584010D01*
X99493158Y-65472068D01*
X99206260Y-65415000D01*
X98913740Y-65415000D01*
X98626842Y-65472068D01*
X98356589Y-65584010D01*
X98113368Y-65746525D01*
X97906525Y-65953368D01*
X97790000Y-66127760D01*
X97673475Y-65953368D01*
X97466632Y-65746525D01*
X97223411Y-65584010D01*
X96953158Y-65472068D01*
X96666260Y-65415000D01*
X96373740Y-65415000D01*
X96086842Y-65472068D01*
X95816589Y-65584010D01*
X95573368Y-65746525D01*
X95366525Y-65953368D01*
X95204010Y-66196589D01*
X95092068Y-66466842D01*
X95035000Y-66753740D01*
X95035000Y-66940198D01*
X92848271Y-69126928D01*
X92259999Y-69126928D01*
X92086745Y-69143992D01*
X91920149Y-69194528D01*
X91766613Y-69276595D01*
X91632038Y-69387038D01*
X91521595Y-69521613D01*
X91439528Y-69675149D01*
X91388992Y-69841745D01*
X91371928Y-70014999D01*
X77876000Y-70014999D01*
X77876000Y-62191500D01*
X125386908Y-62191500D01*
X125324592Y-131674000D01*
M02*
