M48
; DRILL file {KiCad (5.1.0)-1} date 26.01.2020 20:33:32
; FORMAT={-:-/ absolute / inch / decimal}
; #@! TF.CreationDate,2020-01-26T20:33:32+01:00
; #@! TF.GenerationSoftware,Kicad,Pcbnew,(5.1.0)-1
FMAT,2
INCH
T1C0.0157
T2C0.0394
%
G90
G05
T1
X3.4825Y-5.1375
X3.75Y-4.925
X3.7548Y-2.7048
X3.8Y-3.325
X3.8Y-3.375
X3.8Y-3.425
X3.8Y-3.475
X3.8Y-3.525
X3.8Y-3.5715
X3.875Y-3.675
X3.9Y-4.8
X3.95Y-2.7
X3.975Y-3.725
X4.005Y-3.53
X4.1Y-4.8
X4.1Y-4.925
X4.15Y-2.7
X4.175Y-3.325
X4.175Y-3.375
X4.175Y-3.425
X4.175Y-3.525
X4.35Y-2.7
X4.35Y-4.925
T2
X3.45Y-3.6
X3.45Y-3.7
X3.45Y-3.8
X3.45Y-3.9
X3.45Y-4.0
X3.45Y-4.1
X3.8Y-2.6339
X3.8Y-5.0
X3.9Y-2.6339
X3.9Y-5.0
X4.0Y-2.6339
X4.0Y-5.0
X4.1Y-2.6339
X4.1Y-5.0
X4.2Y-2.6339
X4.2Y-5.0
X4.5343Y-3.6
X4.5343Y-3.7
X4.5343Y-3.8
X4.5343Y-3.9
X4.5343Y-4.0
X4.5343Y-4.1
X4.5343Y-4.2
T0
M30
